<?xml version="1.0" encoding="UTF-8"?><svg id="a" xmlns="http://www.w3.org/2000/svg" viewBox="0 0 595.28 595.28"><defs><style>.b{fill:#f4ac36;}.c{fill:#6b40d8;}.d{fill:#ef4146;}.e{fill:#27b5ea;}.f{fill:#68de7a;}</style></defs><path class="c" d="m426.75,202.48l12.89,22.02c.03.05.06.11.09.16,5.02,8.69,7.16,18.39,6.19,28.06-.77,7.74-3.57,14.96-8.18,21.29h119.25v-78h-134.76c1.66,2.01,3.17,4.17,4.51,6.48Z"/><path class="b" d="m479.21,75h-233.43c-42.96,0-77.79,34.83-77.79,77.79v10.21h71.15c2.47-7.07,6.54-13.37,12.03-18.55,8.52-8.03,19.72-12.45,31.54-12.45h27.62c11.94,0,23.2,4.5,31.7,12.66,5.35,5.14,9.32,11.37,11.74,18.34h203.22v-10.21c0-42.96-34.83-77.79-77.79-77.79Z"/><path class="f" d="m430.17,307.72c8.91,7.92,14.21,18.01,15.33,29.19.97,9.71-1.18,19.45-6.22,28.16-.03.05-.06.11-.1.16l-2.25,3.85,56.87,45.51c25.47,20.38,63.2,2.24,63.2-30.36v-77.24h-127.69c.29.24.59.47.87.72Z"/><path class="e" d="m426.67,387.98c-5.28,9.12-13.16,15.99-22.81,19.86-3.21,1.29-6.51,2.19-9.86,2.7v20.79c0,24.66-19.99,44.66-44.66,44.66h-187.91c-7.52,0-14.81,2.56-20.69,7.25l-60.35,48.25c-1.16.93-2.22,1.34-3.43,1.34-.06,0-5.96-.25-5.96-5.83v-231.36c0-24.66,19.99-44.66,44.66-44.66h28.63c-.57-9.1,1.61-18.17,6.33-26.35.03-.05.06-.11.09-.16l3.8-6.49h-38.72c-42.96,0-77.79,34.83-77.79,77.79v232.12c0,23.13,18.99,38.99,39.12,38.99,8.27,0,16.72-2.67,24.14-8.61l60.35-48.3h187.6c42.96,0,77.79-34.83,77.79-77.79v-44.79l-.33.56Z"/><circle class="e" cx="135.81" cy="427.96" r="21.78"/><circle class="e" cx="202.51" cy="427.96" r="21.78"/><path class="d" d="m410.1,331.41l-21.16-13.79c1.74-7.26,2.67-14.83,2.67-22.62s-.93-15.37-2.67-22.62l21.16-13.79c5.75-3.75,7.56-11.33,4.13-17.27l-13.07-22.63c-3.43-5.94-10.91-8.16-17.03-5.06l-22.53,11.44c-10.93-10.4-24.31-18.26-39.17-22.64l-1.36-25.21c-.37-6.85-6.03-12.22-12.89-12.22h-26.13c-6.86,0-12.52,5.37-12.89,12.22l-1.36,25.21c-14.86,4.38-28.24,12.24-39.17,22.64l-22.53-11.44c-6.12-3.11-13.6-.88-17.03,5.06l-13.07,22.63c-3.43,5.94-1.62,13.53,4.13,17.27l21.16,13.79c-1.74,7.26-2.67,14.83-2.67,22.62s.93,15.37,2.67,22.62l-21.16,13.79c-5.75,3.75-7.56,11.33-4.13,17.27l13.07,22.63c3.43,5.94,10.91,8.16,17.03,5.06l22.53-11.44c10.93,10.4,24.31,18.26,39.17,22.64l1.36,25.21c.37,6.85,6.03,12.22,12.89,12.22h26.13c6.86,0,12.52-5.37,12.89-12.22l1.36-25.21c14.86-4.38,28.24-12.24,39.17-22.64l22.53,11.44c6.12,3.11,13.6.88,17.03-5.06l13.07-22.63c3.43-5.94,1.62-13.53-4.13-17.27Zm-114.98,26.83c-35.02,0-63.4-28.39-63.4-63.4s28.39-63.4,63.4-63.4,63.4,28.39,63.4,63.4-28.39,63.4-63.4,63.4Z"/></svg>