<?xml version="1.0" encoding="UTF-8"?><svg id="a" xmlns="http://www.w3.org/2000/svg" viewBox="0 0 254.42 92.63"><defs><style>.b{fill:#fff;}</style></defs><path class="b" d="m72,26.31l2.24,3.83s.01.02.02.03c.87,1.51,1.24,3.2,1.08,4.88-.13,1.35-.62,2.6-1.42,3.7h20.73v-13.56h-23.43c.29.35.55.72.78,1.13Z"/><path class="b" d="m81.12,4.15h-40.59c-7.47,0-13.52,6.06-13.52,13.52v1.78h12.37c.43-1.23,1.14-2.32,2.09-3.23,1.48-1.4,3.43-2.16,5.48-2.16h4.8c2.08,0,4.03.78,5.51,2.2.93.89,1.62,1.98,2.04,3.19h35.33v-1.78c0-7.47-6.06-13.52-13.52-13.52Z"/><path class="b" d="m72.59,44.61c1.55,1.38,2.47,3.13,2.66,5.07.17,1.69-.2,3.38-1.08,4.9,0,0-.01.02-.02.03l-.39.67,9.89,7.91c4.43,3.54,10.99.39,10.99-5.28v-13.43h-22.2c.05.04.1.08.15.13Z"/><path class="b" d="m71.98,58.56c-.92,1.59-2.29,2.78-3.97,3.45-.56.22-1.13.38-1.71.47v3.62c0,4.29-3.48,7.76-7.76,7.76H25.87c-1.31,0-2.58.44-3.6,1.26l-10.49,8.39c-.2.16-.39.23-.6.23-.01,0-1.04-.04-1.04-1.01v-40.23c0-4.29,3.48-7.76,7.76-7.76h4.98c-.1-1.58.28-3.16,1.1-4.58,0,0,.01-.02.02-.03l.66-1.13h-6.73c-7.47,0-13.52,6.06-13.52,13.52v40.36c0,4.02,3.3,6.78,6.8,6.78,1.44,0,2.91-.46,4.2-1.5l10.49-8.4h32.62c7.47,0,13.52-6.06,13.52-13.52v-7.79l-.06.1Z"/><circle class="b" cx="21.41" cy="65.51" r="3.79"/><circle class="b" cx="33.01" cy="65.51" r="3.79"/><path class="b" d="m69.1,48.73l-3.68-2.4c.3-1.26.46-2.58.46-3.93s-.16-2.67-.46-3.93l3.68-2.4c1-.65,1.32-1.97.72-3l-2.27-3.93c-.6-1.03-1.9-1.42-2.96-.88l-3.92,1.99c-1.9-1.81-4.23-3.17-6.81-3.94l-.24-4.38c-.06-1.19-1.05-2.12-2.24-2.12h-4.54c-1.19,0-2.18.93-2.24,2.12l-.24,4.38c-2.58.76-4.91,2.13-6.81,3.94l-3.92-1.99c-1.06-.54-2.36-.15-2.96.88l-2.27,3.93c-.6,1.03-.28,2.35.72,3l3.68,2.4c-.3,1.26-.46,2.58-.46,3.93s.16,2.67.46,3.93l-3.68,2.4c-1,.65-1.32,1.97-.72,3l2.27,3.93c.6,1.03,1.9,1.42,2.96.88l3.92-1.99c1.9,1.81,4.23,3.17,6.81,3.94l.24,4.38c.06,1.19,1.05,2.12,2.24,2.12h4.54c1.19,0,2.18-.93,2.24-2.12l.24-4.38c2.58-.76,4.91-2.13,6.81-3.94l3.92,1.99c1.06.54,2.36.15,2.96-.88l2.27-3.93c.6-1.03.28-2.35-.72-3Zm-19.99,4.67c-6.09,0-11.02-4.94-11.02-11.02s4.94-11.02,11.02-11.02,11.02,4.94,11.02,11.02-4.94,11.02-11.02,11.02Z"/><path class="b" d="m121.96,9.65c0,1.86-.58,3.28-1.74,4.27-1.16.99-2.81,1.48-4.96,1.48h-1.57v6.14h-3.66V4.26h5.52c2.1,0,3.69.45,4.78,1.35,1.09.9,1.64,2.25,1.64,4.04Zm-8.27,2.74h1.21c1.13,0,1.97-.22,2.53-.67s.84-1.09.84-1.94-.23-1.49-.7-1.9c-.47-.41-1.2-.61-2.2-.61h-1.67v5.13Z"/><path class="b" d="m131.96,8.08c.49,0,.89.04,1.22.11l-.27,3.38c-.29-.08-.65-.12-1.06-.12-1.15,0-2.05.3-2.69.89-.64.59-.96,1.42-.96,2.48v6.72h-3.6v-13.21h2.73l.53,2.22h.18c.41-.74.96-1.34,1.66-1.79s1.46-.68,2.28-.68Z"/><path class="b" d="m147.4,14.91c0,2.15-.57,3.83-1.7,5.04-1.13,1.21-2.71,1.82-4.74,1.82-1.27,0-2.39-.28-3.36-.83-.97-.56-1.71-1.35-2.23-2.39-.52-1.04-.78-2.25-.78-3.64,0-2.16.56-3.84,1.69-5.03,1.13-1.2,2.71-1.8,4.75-1.8,1.27,0,2.39.28,3.36.83.97.55,1.71,1.34,2.23,2.38.52,1.03.78,2.24.78,3.63Zm-9.13,0c0,1.31.21,2.3.64,2.97.43.67,1.13,1,2.1,1s1.65-.33,2.07-1c.42-.67.63-1.66.63-2.97s-.21-2.29-.64-2.94c-.42-.65-1.12-.98-2.09-.98s-1.65.33-2.08.98c-.43.65-.64,1.63-.64,2.95Z"/><path class="b" d="m162.02,21.54h-3.6v-7.72c0-.95-.16-1.67-.48-2.14-.32-.48-.82-.71-1.51-.71-.92,0-1.59.34-2.01,1.02-.42.68-.63,1.79-.63,3.34v6.22h-3.6v-13.21h2.75l.48,1.69h.2c.35-.61.87-1.08,1.54-1.42.67-.34,1.44-.51,2.3-.51,1.98,0,3.32.65,4.02,1.94h.32c.35-.61.88-1.09,1.57-1.43s1.47-.51,2.33-.51c1.5,0,2.63.38,3.4,1.15s1.15,2,1.15,3.69v8.61h-3.62v-7.72c0-.95-.16-1.67-.48-2.14s-.82-.71-1.51-.71c-.88,0-1.54.32-1.98.95-.44.63-.66,1.63-.66,3v6.63Z"/><path class="b" d="m180.96,21.77c-1.55,0-2.77-.56-3.65-1.69h-.19c.13,1.1.19,1.74.19,1.92v5.35h-3.6V8.33h2.93l.51,1.71h.17c.84-1.31,2.09-1.96,3.75-1.96,1.56,0,2.78.6,3.66,1.81.88,1.21,1.32,2.88,1.32,5.02,0,1.41-.21,2.63-.62,3.67-.41,1.04-1,1.83-1.77,2.38-.76.54-1.66.82-2.69.82Zm-1.06-10.81c-.89,0-1.54.27-1.95.82-.41.55-.62,1.45-.64,2.71v.39c0,1.42.21,2.43.63,3.05s1.09.92,2,.92c1.62,0,2.42-1.33,2.42-3.99,0-1.3-.2-2.27-.6-2.92-.4-.65-1.02-.98-1.87-.98Z"/><path class="b" d="m194.48,18.9c.63,0,1.39-.14,2.27-.41v2.68c-.9.4-2,.6-3.31.6-1.44,0-2.49-.36-3.15-1.09-.66-.73-.99-1.82-.99-3.28v-6.37h-1.73v-1.52l1.99-1.21,1.04-2.79h2.3v2.81h3.7v2.71h-3.7v6.37c0,.51.14.89.43,1.13.29.24.67.37,1.14.37Z"/><path class="b" d="m119.97,50.58h-9.95v-17.28h9.95v3h-6.29v3.79h5.85v3h-5.85v4.46h6.29v3.02Z"/><path class="b" d="m135.39,50.58h-3.6v-7.72c0-.95-.17-1.67-.51-2.14s-.88-.71-1.62-.71c-1.01,0-1.74.34-2.19,1.01-.45.67-.67,1.79-.67,3.35v6.21h-3.6v-13.21h2.75l.48,1.69h.2c.4-.64.96-1.12,1.66-1.45.71-.33,1.51-.49,2.4-.49,1.54,0,2.7.42,3.5,1.25s1.19,2.03,1.19,3.6v8.61Z"/><path class="b" d="m150.46,37.37v1.83l-2.07.53c.38.59.57,1.25.57,1.99,0,1.42-.49,2.52-1.48,3.31-.99.79-2.36,1.19-4.12,1.19l-.65-.04-.53-.06c-.37.28-.55.6-.55.95,0,.52.66.78,1.99.78h2.25c1.45,0,2.55.31,3.31.93.76.62,1.14,1.54,1.14,2.74,0,1.54-.64,2.74-1.93,3.59-1.29.85-3.14,1.28-5.55,1.28-1.84,0-3.25-.32-4.22-.96-.97-.64-1.46-1.54-1.46-2.7,0-.79.25-1.46.74-2,.5-.54,1.22-.92,2.19-1.15-.37-.16-.69-.42-.97-.77-.28-.36-.41-.74-.41-1.14,0-.5.15-.92.44-1.26.29-.33.71-.66,1.26-.99-.69-.3-1.24-.78-1.65-1.44-.41-.66-.61-1.44-.61-2.34,0-1.44.47-2.56,1.41-3.34.94-.79,2.28-1.18,4.02-1.18.37,0,.81.03,1.32.1.51.07.83.12.98.15h4.61Zm-10.2,15.08c0,.5.24.89.71,1.17s1.14.43,2,.43c1.29,0,2.3-.18,3.04-.53s1.1-.84,1.1-1.45c0-.5-.22-.84-.65-1.03-.43-.19-1.1-.28-2.01-.28h-1.87c-.66,0-1.21.16-1.66.47-.45.31-.67.72-.67,1.23Zm1.31-10.75c0,.72.16,1.28.49,1.7.33.42.83.63,1.5.63s1.17-.21,1.49-.63c.31-.42.47-.98.47-1.7,0-1.59-.65-2.39-1.96-2.39s-1.99.8-1.99,2.39Z"/><path class="b" d="m152.37,33.95c0-1.17.65-1.76,1.96-1.76s1.96.59,1.96,1.76c0,.56-.16.99-.49,1.31-.33.31-.82.47-1.47.47-1.31,0-1.96-.59-1.96-1.77Zm3.76,16.62h-3.6v-13.21h3.6v13.21Z"/><path class="b" d="m171.85,50.58h-3.6v-7.72c0-.95-.17-1.67-.51-2.14s-.88-.71-1.62-.71c-1.01,0-1.74.34-2.19,1.01-.45.67-.67,1.79-.67,3.35v6.21h-3.6v-13.21h2.75l.48,1.69h.2c.4-.64.96-1.12,1.66-1.45.71-.33,1.51-.49,2.4-.49,1.54,0,2.7.42,3.5,1.25s1.19,2.03,1.19,3.6v8.61Z"/><path class="b" d="m181.36,50.81c-2.13,0-3.79-.59-4.99-1.76s-1.8-2.84-1.8-4.99.55-3.92,1.66-5.13,2.64-1.81,4.59-1.81,3.32.53,4.36,1.6,1.56,2.53,1.56,4.41v1.75h-8.52c.04,1.02.34,1.82.91,2.4.57.58,1.36.86,2.39.86.79,0,1.55-.08,2.26-.25.71-.17,1.45-.43,2.22-.79v2.79c-.63.32-1.3.55-2.02.7-.72.15-1.59.23-2.62.23Zm-.51-11.13c-.76,0-1.36.24-1.8.73-.43.48-.68,1.17-.74,2.06h5.06c-.02-.89-.25-1.58-.7-2.06-.45-.48-1.06-.73-1.82-.73Z"/><path class="b" d="m195.63,50.81c-2.13,0-3.79-.59-4.99-1.76s-1.8-2.84-1.8-4.99.55-3.92,1.66-5.13,2.64-1.81,4.59-1.81,3.32.53,4.36,1.6,1.56,2.53,1.56,4.41v1.75h-8.52c.04,1.02.34,1.82.91,2.4.57.58,1.36.86,2.39.86.79,0,1.55-.08,2.26-.25.71-.17,1.45-.43,2.22-.79v2.79c-.63.32-1.3.55-2.02.7-.72.15-1.59.23-2.62.23Zm-.51-11.13c-.76,0-1.36.24-1.8.73-.43.48-.68,1.17-.74,2.06h5.06c-.02-.89-.25-1.58-.7-2.06-.45-.48-1.06-.73-1.82-.73Z"/><path class="b" d="m211.27,37.12c.49,0,.89.04,1.22.11l-.27,3.38c-.29-.08-.65-.12-1.06-.12-1.15,0-2.05.29-2.69.89-.64.59-.96,1.42-.96,2.48v6.72h-3.6v-13.21h2.73l.53,2.22h.18c.41-.74.96-1.34,1.66-1.79s1.46-.68,2.27-.68Z"/><path class="b" d="m214.51,33.95c0-1.17.65-1.76,1.96-1.76s1.96.59,1.96,1.76c0,.56-.16.99-.49,1.31-.33.31-.82.47-1.47.47-1.31,0-1.96-.59-1.96-1.77Zm3.76,16.62h-3.6v-13.21h3.6v13.21Z"/><path class="b" d="m233.98,50.58h-3.6v-7.72c0-.95-.17-1.67-.51-2.14s-.88-.71-1.62-.71c-1.01,0-1.74.34-2.19,1.01-.45.67-.67,1.79-.67,3.35v6.21h-3.6v-13.21h2.75l.48,1.69h.2c.4-.64.96-1.12,1.66-1.45.71-.33,1.51-.49,2.4-.49,1.54,0,2.7.42,3.5,1.25s1.19,2.03,1.19,3.6v8.61Z"/><path class="b" d="m249.06,37.37v1.83l-2.07.53c.38.59.57,1.25.57,1.99,0,1.42-.49,2.52-1.48,3.31-.99.79-2.36,1.19-4.12,1.19l-.65-.04-.53-.06c-.37.28-.56.6-.56.95,0,.52.66.78,1.99.78h2.25c1.45,0,2.55.31,3.31.93s1.14,1.54,1.14,2.74c0,1.54-.64,2.74-1.93,3.59-1.29.85-3.14,1.28-5.55,1.28-1.84,0-3.25-.32-4.22-.96-.97-.64-1.46-1.54-1.46-2.7,0-.79.25-1.46.75-2,.5-.54,1.22-.92,2.19-1.15-.37-.16-.69-.42-.97-.77-.28-.36-.41-.74-.41-1.14,0-.5.15-.92.44-1.26s.71-.66,1.26-.99c-.69-.3-1.24-.78-1.65-1.44-.41-.66-.61-1.44-.61-2.34,0-1.44.47-2.56,1.41-3.34.94-.79,2.28-1.18,4.02-1.18.37,0,.81.03,1.32.1.51.07.83.12.97.15h4.61Zm-10.2,15.08c0,.5.24.89.71,1.17s1.14.43,2,.43c1.29,0,2.3-.18,3.04-.53.73-.35,1.1-.84,1.1-1.45,0-.5-.22-.84-.65-1.03-.43-.19-1.1-.28-2.01-.28h-1.87c-.66,0-1.21.16-1.66.47-.44.31-.67.72-.67,1.23Zm1.31-10.75c0,.72.16,1.28.49,1.7.33.42.83.63,1.5.63s1.17-.21,1.49-.63c.32-.42.47-.98.47-1.7,0-1.59-.65-2.39-1.96-2.39s-1.99.8-1.99,2.39Z"/><path class="b" d="m117.36,65.14c-1.38,0-2.45.52-3.2,1.55-.76,1.04-1.13,2.48-1.13,4.33,0,3.85,1.45,5.78,4.34,5.78,1.21,0,2.68-.3,4.41-.91v3.07c-1.42.59-3,.89-4.75.89-2.51,0-4.44-.76-5.77-2.29s-2-3.71-2-6.56c0-1.8.33-3.37.98-4.72.65-1.35,1.59-2.39,2.82-3.11,1.23-.72,2.66-1.08,4.31-1.08s3.36.41,5.06,1.22l-1.18,2.98c-.65-.31-1.3-.57-1.95-.8s-1.3-.34-1.93-.34Z"/><path class="b" d="m136.85,72.99c0,2.15-.57,3.83-1.7,5.05-1.13,1.21-2.71,1.82-4.74,1.82-1.27,0-2.39-.28-3.36-.83s-1.71-1.35-2.23-2.39-.78-2.25-.78-3.64c0-2.16.56-3.84,1.69-5.03,1.13-1.2,2.71-1.8,4.75-1.8,1.27,0,2.39.28,3.36.83.97.55,1.71,1.34,2.23,2.38.52,1.03.78,2.24.78,3.63Zm-9.13,0c0,1.31.21,2.3.64,2.97.43.67,1.13,1,2.1,1s1.65-.33,2.07-1c.42-.67.63-1.66.63-2.97s-.21-2.29-.64-2.94c-.42-.65-1.12-.98-2.09-.98s-1.65.33-2.08.97c-.43.65-.64,1.63-.64,2.95Z"/><path class="b" d="m151.84,79.62h-3.6v-7.72c0-.95-.17-1.67-.51-2.14-.34-.48-.88-.71-1.62-.71-1.01,0-1.74.34-2.19,1.01-.45.67-.67,1.79-.67,3.35v6.21h-3.6v-13.21h2.75l.48,1.69h.2c.4-.64.96-1.12,1.66-1.45.71-.33,1.51-.49,2.41-.49,1.54,0,2.7.42,3.5,1.25s1.19,2.03,1.19,3.6v8.61Z"/><path class="b" d="m162.59,69.11h-3.12v10.5h-3.6v-10.5h-1.99v-1.74l1.99-.97v-.97c0-1.5.37-2.6,1.11-3.3.74-.69,1.93-1.04,3.56-1.04,1.25,0,2.35.18,3.32.55l-.92,2.65c-.72-.23-1.39-.34-2.01-.34-.51,0-.88.15-1.11.46-.23.3-.34.69-.34,1.16v.83h3.12v2.71Z"/><path class="b" d="m170.64,79.85c-2.13,0-3.79-.59-4.99-1.76-1.2-1.17-1.8-2.84-1.8-4.99s.55-3.92,1.66-5.13c1.11-1.21,2.64-1.81,4.59-1.81s3.32.53,4.36,1.6,1.56,2.53,1.56,4.41v1.75h-8.52c.04,1.02.34,1.82.91,2.4.57.58,1.36.86,2.39.86.8,0,1.55-.08,2.26-.25.71-.17,1.45-.43,2.22-.79v2.79c-.63.32-1.3.55-2.02.7-.72.15-1.59.23-2.62.23Zm-.51-11.13c-.76,0-1.36.24-1.8.73-.43.48-.68,1.17-.74,2.06h5.06c-.02-.89-.25-1.58-.7-2.06s-1.06-.73-1.82-.73Z"/><path class="b" d="m186.28,66.16c.49,0,.89.04,1.22.11l-.27,3.38c-.29-.08-.65-.12-1.06-.12-1.15,0-2.05.29-2.69.89-.64.59-.96,1.42-.96,2.48v6.72h-3.6v-13.21h2.73l.53,2.22h.18c.41-.74.96-1.34,1.66-1.79s1.46-.68,2.28-.68Z"/><path class="b" d="m195.68,79.85c-2.13,0-3.79-.59-4.99-1.76-1.2-1.17-1.8-2.84-1.8-4.99s.55-3.92,1.66-5.13c1.11-1.21,2.64-1.81,4.59-1.81s3.32.53,4.36,1.6,1.56,2.53,1.56,4.41v1.75h-8.52c.04,1.02.34,1.82.91,2.4.57.58,1.36.86,2.39.86.8,0,1.55-.08,2.26-.25.71-.17,1.45-.43,2.22-.79v2.79c-.63.32-1.3.55-2.02.7-.72.15-1.59.23-2.62.23Zm-.51-11.13c-.76,0-1.36.24-1.8.73-.43.48-.68,1.17-.74,2.06h5.06c-.02-.89-.25-1.58-.7-2.06s-1.06-.73-1.82-.73Z"/><path class="b" d="m216.13,79.62h-3.6v-7.72c0-.95-.17-1.67-.51-2.14-.34-.48-.88-.71-1.62-.71-1.01,0-1.74.34-2.19,1.01-.45.67-.67,1.79-.67,3.35v6.21h-3.6v-13.21h2.75l.48,1.69h.2c.4-.64.96-1.12,1.66-1.45.71-.33,1.51-.49,2.41-.49,1.54,0,2.7.42,3.5,1.25s1.19,2.03,1.19,3.6v8.61Z"/><path class="b" d="m225.07,79.85c-4.11,0-6.17-2.26-6.17-6.77,0-2.25.56-3.96,1.68-5.15,1.12-1.19,2.72-1.78,4.81-1.78,1.53,0,2.9.3,4.11.9l-1.06,2.79c-.57-.23-1.1-.42-1.58-.56s-.98-.22-1.46-.22c-1.88,0-2.81,1.33-2.81,3.99s.94,3.88,2.81,3.88c.69,0,1.33-.09,1.93-.28.59-.18,1.18-.47,1.77-.87v3.08c-.58.37-1.17.63-1.77.77-.59.14-1.34.21-2.25.21Z"/><path class="b" d="m237.88,79.85c-2.13,0-3.79-.59-4.99-1.76s-1.8-2.84-1.8-4.99.55-3.92,1.66-5.13,2.64-1.81,4.59-1.81,3.32.53,4.36,1.6,1.56,2.53,1.56,4.41v1.75h-8.52c.04,1.02.34,1.82.91,2.4.57.58,1.36.86,2.39.86.79,0,1.55-.08,2.26-.25.71-.17,1.45-.43,2.22-.79v2.79c-.63.32-1.3.55-2.02.7-.72.15-1.59.23-2.62.23Zm-.51-11.13c-.76,0-1.36.24-1.8.73-.43.48-.68,1.17-.74,2.06h5.06c-.02-.89-.25-1.58-.7-2.06-.45-.48-1.06-.73-1.82-.73Z"/></svg>