<?xml version="1.0" encoding="UTF-8"?><svg id="a" xmlns="http://www.w3.org/2000/svg" viewBox="0 0 239.94 91.88"><defs><style>.b{fill:#fff;}.c{fill:#f4ac36;}.d{fill:#6b40d8;}.e{fill:#ef4146;}.f{fill:#27b5ea;}.g{fill:#68de7a;}</style></defs><path class="d" d="m70.49,26.06l2.24,3.83s.01.02.02.03c.87,1.51,1.24,3.2,1.08,4.88-.13,1.35-.62,2.6-1.42,3.7h20.73v-13.56h-23.43c.29.35.55.72.78,1.13Z"/><path class="c" d="m79.61,3.9h-40.59c-7.47,0-13.52,6.06-13.52,13.52v1.78h12.37c.43-1.23,1.14-2.32,2.09-3.23,1.48-1.4,3.43-2.16,5.48-2.16h4.8c2.08,0,4.03.78,5.51,2.2.93.89,1.62,1.98,2.04,3.19h35.33v-1.78c0-7.47-6.06-13.52-13.52-13.52Z"/><path class="g" d="m71.08,44.36c1.55,1.38,2.47,3.13,2.66,5.07.17,1.69-.2,3.38-1.08,4.9,0,0-.01.02-.02.03l-.39.67,9.89,7.91c4.43,3.54,10.99.39,10.99-5.28v-13.43h-22.2c.05.04.1.08.15.13Z"/><path class="f" d="m70.47,58.32c-.92,1.59-2.29,2.78-3.97,3.45-.56.22-1.13.38-1.71.47v3.62c0,4.29-3.48,7.76-7.76,7.76H24.35c-1.31,0-2.58.44-3.6,1.26l-10.49,8.39c-.2.16-.39.23-.6.23-.01,0-1.04-.04-1.04-1.01v-40.23c0-4.29,3.48-7.76,7.76-7.76h4.98c-.1-1.58.28-3.16,1.1-4.58,0,0,.01-.02.02-.03l.66-1.13h-6.73c-7.47,0-13.52,6.06-13.52,13.52v40.36c0,4.02,3.3,6.78,6.8,6.78,1.44,0,2.91-.46,4.2-1.5l10.49-8.4h32.62c7.47,0,13.52-6.06,13.52-13.52v-7.79l-.06.1Z"/><circle class="f" cx="19.9" cy="65.27" r="3.79"/><circle class="f" cx="31.5" cy="65.27" r="3.79"/><path class="e" d="m67.59,48.48l-3.68-2.4c.3-1.26.46-2.58.46-3.93s-.16-2.67-.46-3.93l3.68-2.4c1-.65,1.32-1.97.72-3l-2.27-3.93c-.6-1.03-1.9-1.42-2.96-.88l-3.92,1.99c-1.9-1.81-4.23-3.17-6.81-3.94l-.24-4.38c-.06-1.19-1.05-2.12-2.24-2.12h-4.54c-1.19,0-2.18.93-2.24,2.12l-.24,4.38c-2.58.76-4.91,2.13-6.81,3.94l-3.92-1.99c-1.06-.54-2.36-.15-2.96.88l-2.27,3.93c-.6,1.03-.28,2.35.72,3l3.68,2.4c-.3,1.26-.46,2.58-.46,3.93s.16,2.67.46,3.93l-3.68,2.4c-1,.65-1.32,1.97-.72,3l2.27,3.93c.6,1.03,1.9,1.42,2.96.88l3.92-1.99c1.9,1.81,4.23,3.17,6.81,3.94l.24,4.38c.06,1.19,1.05,2.12,2.24,2.12h4.54c1.19,0,2.18-.93,2.24-2.12l.24-4.38c2.58-.76,4.91-2.13,6.81-3.94l3.92,1.99c1.06.54,2.36.15,2.96-.88l2.27-3.93c.6-1.03.28-2.35-.72-3Zm-19.99,4.67c-6.09,0-11.02-4.94-11.02-11.02s4.94-11.02,11.02-11.02,11.02,4.94,11.02,11.02-4.94,11.02-11.02,11.02Z"/><path class="c" d="m154.18,54.19h76.09v25.2h-81.22v-20.07c0-2.83,2.3-5.13,5.13-5.13Z" transform="translate(379.32 133.59) rotate(180)"/><path class="d" d="m110.12,3.79h55.16v25.2h-60.3V8.93c0-2.83,2.3-5.13,5.13-5.13Z"/><path class="f" d="m184.51,28.99h52.11v25.2h-52.11c-2.83,0-5.13-2.3-5.13-5.13v-14.93c0-2.83,2.3-5.13,5.13-5.13Z" transform="translate(415.99 83.19) rotate(180)"/><rect class="e" x="104.98" y="28.99" width="74.51" height="25.2"/><path class="g" d="m104.98,54.19h44.06v25.2h-38.93c-2.83,0-5.13-2.3-5.13-5.13v-20.07h0Z"/><path class="g" d="m165.28,3.79h20.3c2.83,0,5.13,2.3,5.13,5.13v20.07h-25.43V3.79h0Z"/><path class="b" d="m121.58,11.84c0,1.61-.5,2.85-1.51,3.7-1.01.85-2.44,1.28-4.3,1.28h-1.36v5.33h-3.18V7.16h4.79c1.82,0,3.2.39,4.15,1.17.95.78,1.42,1.95,1.42,3.5Zm-7.18,2.38h1.05c.98,0,1.71-.19,2.19-.58s.73-.95.73-1.69-.2-1.3-.61-1.65c-.41-.36-1.04-.53-1.91-.53h-1.45v4.45Z"/><path class="b" d="m130.38,10.47c.42,0,.78.03,1.06.09l-.24,2.93c-.25-.07-.56-.1-.92-.1-1,0-1.78.26-2.33.77-.56.51-.83,1.23-.83,2.15v5.83h-3.13v-11.46h2.37l.46,1.93h.15c.36-.64.83-1.16,1.44-1.55.6-.39,1.26-.59,1.97-.59Z"/><path class="b" d="m143.91,16.4c0,1.87-.49,3.33-1.48,4.38s-2.36,1.58-4.11,1.58c-1.1,0-2.07-.24-2.91-.72-.84-.48-1.49-1.17-1.94-2.08s-.68-1.96-.68-3.16c0-1.87.49-3.33,1.47-4.37s2.35-1.56,4.12-1.56c1.1,0,2.07.24,2.91.72s1.49,1.17,1.94,2.06.68,1.94.68,3.15Zm-7.93,0c0,1.13.19,1.99.56,2.57.37.58.98.87,1.82.87s1.43-.29,1.8-.87c.37-.58.55-1.44.55-2.58s-.18-1.99-.55-2.55-.97-.85-1.82-.85-1.44.28-1.8.85c-.37.56-.55,1.42-.55,2.56Z"/><path class="b" d="m156.73,22.15h-3.13v-6.7c0-.83-.14-1.45-.42-1.86-.28-.41-.71-.62-1.31-.62-.8,0-1.38.29-1.74.88s-.54,1.56-.54,2.9v5.39h-3.13v-11.46h2.39l.42,1.47h.17c.31-.53.75-.94,1.33-1.24.58-.3,1.25-.45,2-.45,1.72,0,2.88.56,3.49,1.68h.28c.31-.53.76-.95,1.36-1.24.6-.29,1.27-.44,2.02-.44,1.3,0,2.28.33,2.95,1s1,1.73,1,3.2v7.48h-3.14v-6.7c0-.83-.14-1.45-.42-1.86-.28-.41-.71-.62-1.31-.62-.77,0-1.34.27-1.72.82-.38.55-.57,1.42-.57,2.6v5.75Z"/><path class="b" d="m173.29,22.36c-1.35,0-2.4-.49-3.17-1.47h-.16c.11.96.16,1.51.16,1.66v4.65h-3.13V10.69h2.54l.44,1.49h.14c.73-1.13,1.81-1.7,3.25-1.7,1.35,0,2.41.52,3.18,1.57s1.15,2.5,1.15,4.36c0,1.22-.18,2.29-.54,3.19-.36.9-.87,1.59-1.53,2.06s-1.44.71-2.34.71Zm-.92-9.38c-.77,0-1.34.24-1.69.71-.36.48-.54,1.26-.55,2.35v.34c0,1.23.18,2.11.55,2.65.37.53.95.8,1.74.8,1.4,0,2.1-1.16,2.1-3.47,0-1.13-.17-1.97-.52-2.54-.34-.56-.89-.85-1.62-.85Z"/><path class="b" d="m185.15,19.87c.55,0,1.2-.12,1.97-.36v2.33c-.78.35-1.74.52-2.87.52-1.25,0-2.16-.32-2.73-.95-.57-.63-.86-1.58-.86-2.85v-5.53h-1.5v-1.32l1.72-1.05.9-2.42h2v2.44h3.21v2.35h-3.21v5.53c0,.44.12.77.37.98.25.21.58.32.99.32Z"/><path class="b" d="m119.86,47.35h-8.63v-14.99h8.63v2.6h-5.46v3.29h5.08v2.6h-5.08v3.87h5.46v2.62Z"/><path class="b" d="m133.36,47.35h-3.13v-6.7c0-.83-.15-1.45-.44-1.86s-.76-.62-1.4-.62c-.88,0-1.51.29-1.9.88-.39.58-.58,1.55-.58,2.91v5.39h-3.13v-11.46h2.39l.42,1.47h.17c.35-.55.83-.97,1.44-1.26.61-.28,1.31-.43,2.09-.43,1.33,0,2.34.36,3.04,1.08.69.72,1.04,1.76,1.04,3.12v7.48Z"/><path class="b" d="m146.57,35.89v1.59l-1.79.46c.33.51.49,1.09.49,1.72,0,1.23-.43,2.19-1.29,2.88-.86.69-2.05,1.03-3.57,1.03l-.56-.03-.46-.05c-.32.25-.48.52-.48.82,0,.45.57.68,1.72.68h1.95c1.26,0,2.22.27,2.88.81.66.54.99,1.33.99,2.38,0,1.34-.56,2.38-1.68,3.12-1.12.74-2.72,1.11-4.81,1.11-1.6,0-2.82-.28-3.67-.84-.84-.56-1.27-1.34-1.27-2.34,0-.69.22-1.27.65-1.73s1.06-.8,1.9-.99c-.32-.14-.6-.36-.84-.67-.24-.31-.36-.64-.36-.99,0-.44.13-.8.38-1.09s.62-.58,1.1-.86c-.6-.26-1.08-.68-1.43-1.25-.35-.57-.53-1.25-.53-2.03,0-1.25.41-2.22,1.22-2.9s1.98-1.03,3.49-1.03c.32,0,.7.03,1.14.09.44.06.72.1.85.13h4Zm-8.85,13.08c0,.43.21.77.62,1.02.41.25.99.37,1.74.37,1.12,0,2-.15,2.64-.46s.95-.73.95-1.26c0-.43-.19-.73-.56-.89s-.96-.25-1.74-.25h-1.62c-.57,0-1.05.13-1.44.41-.39.27-.58.63-.58,1.07Zm1.14-9.33c0,.62.14,1.11.42,1.48.28.36.72.54,1.3.54s1.02-.18,1.29-.54.41-.85.41-1.48c0-1.38-.57-2.07-1.7-2.07s-1.72.69-1.72,2.07Z"/><path class="b" d="m148.36,32.93c0-1.02.57-1.53,1.7-1.53s1.7.51,1.7,1.53c0,.49-.14.86-.42,1.13-.28.27-.71.4-1.28.4-1.13,0-1.7-.51-1.7-1.54Zm3.26,14.43h-3.13v-11.46h3.13v11.46Z"/><path class="b" d="m165.38,47.35h-3.13v-6.7c0-.83-.15-1.45-.44-1.86s-.76-.62-1.4-.62c-.88,0-1.51.29-1.9.88-.39.58-.58,1.55-.58,2.91v5.39h-3.13v-11.46h2.39l.42,1.47h.17c.35-.55.83-.97,1.44-1.26.61-.28,1.31-.43,2.09-.43,1.33,0,2.34.36,3.04,1.08.69.72,1.04,1.76,1.04,3.12v7.48Z"/><path class="b" d="m173.77,47.56c-1.85,0-3.29-.51-4.33-1.53s-1.56-2.46-1.56-4.33.48-3.41,1.44-4.46c.96-1.05,2.29-1.57,3.98-1.57s2.88.46,3.78,1.38,1.35,2.2,1.35,3.82v1.52h-7.39c.03.89.3,1.58.79,2.08s1.18.75,2.07.75c.69,0,1.34-.07,1.96-.22s1.26-.37,1.93-.69v2.42c-.55.27-1.13.48-1.75.61-.62.13-1.38.2-2.28.2Zm-.44-9.66c-.66,0-1.18.21-1.56.63-.38.42-.59,1.02-.65,1.79h4.39c-.01-.77-.22-1.37-.61-1.79-.39-.42-.92-.63-1.58-.63Z"/><path class="b" d="m186.28,47.56c-1.85,0-3.29-.51-4.33-1.53s-1.56-2.46-1.56-4.33.48-3.41,1.44-4.46c.96-1.05,2.29-1.57,3.98-1.57s2.88.46,3.78,1.38,1.35,2.2,1.35,3.82v1.52h-7.39c.03.89.3,1.58.79,2.08s1.18.75,2.07.75c.69,0,1.34-.07,1.96-.22s1.26-.37,1.93-.69v2.42c-.55.27-1.13.48-1.75.61-.62.13-1.38.2-2.28.2Zm-.44-9.66c-.66,0-1.18.21-1.56.63-.38.42-.59,1.02-.65,1.79h4.39c-.01-.77-.21-1.37-.6-1.79-.39-.42-.92-.63-1.58-.63Z"/><path class="b" d="m199.98,35.67c.42,0,.78.03,1.06.09l-.24,2.93c-.25-.07-.56-.1-.92-.1-1,0-1.78.26-2.33.77-.56.51-.84,1.23-.84,2.15v5.83h-3.13v-11.46h2.37l.46,1.93h.15c.36-.64.84-1.16,1.44-1.55.6-.39,1.26-.59,1.97-.59Z"/><path class="b" d="m202.91,32.93c0-1.02.57-1.53,1.7-1.53s1.7.51,1.7,1.53c0,.49-.14.86-.43,1.13-.28.27-.71.4-1.28.4-1.13,0-1.7-.51-1.7-1.54Zm3.26,14.43h-3.13v-11.46h3.13v11.46Z"/><path class="b" d="m219.94,47.35h-3.13v-6.7c0-.83-.15-1.45-.44-1.86s-.76-.62-1.41-.62c-.88,0-1.51.29-1.9.88-.39.58-.58,1.55-.58,2.91v5.39h-3.13v-11.46h2.39l.42,1.47h.17c.35-.55.83-.97,1.44-1.26.61-.28,1.31-.43,2.09-.43,1.33,0,2.34.36,3.04,1.08.69.72,1.04,1.76,1.04,3.12v7.48Z"/><path class="b" d="m233.15,35.89v1.59l-1.79.46c.33.51.49,1.09.49,1.72,0,1.23-.43,2.19-1.29,2.88-.86.69-2.05,1.03-3.57,1.03l-.56-.03-.46-.05c-.32.25-.48.52-.48.82,0,.45.57.68,1.72.68h1.95c1.26,0,2.22.27,2.88.81.66.54.99,1.33.99,2.38,0,1.34-.56,2.38-1.68,3.12-1.12.74-2.72,1.11-4.81,1.11-1.6,0-2.82-.28-3.67-.84-.84-.56-1.27-1.34-1.27-2.34,0-.69.21-1.27.65-1.73s1.06-.8,1.9-.99c-.32-.14-.6-.36-.84-.67-.24-.31-.36-.64-.36-.99,0-.44.13-.8.38-1.09s.62-.58,1.1-.86c-.6-.26-1.08-.68-1.43-1.25-.35-.57-.53-1.25-.53-2.03,0-1.25.41-2.22,1.22-2.9s1.98-1.03,3.49-1.03c.32,0,.7.03,1.14.09.44.06.72.1.85.13h4Zm-8.85,13.08c0,.43.21.77.62,1.02.41.25.99.37,1.74.37,1.12,0,2-.15,2.63-.46s.95-.73.95-1.26c0-.43-.19-.73-.56-.89s-.96-.25-1.74-.25h-1.62c-.57,0-1.05.13-1.44.41-.39.27-.58.63-.58,1.07Zm1.14-9.33c0,.62.14,1.11.43,1.48.28.36.72.54,1.3.54s1.02-.18,1.29-.54.41-.85.41-1.48c0-1.38-.57-2.07-1.7-2.07s-1.72.69-1.72,2.07Z"/><path class="b" d="m117.59,59.99c-1.2,0-2.12.45-2.78,1.35-.66.9-.98,2.15-.98,3.76,0,3.34,1.25,5.01,3.76,5.01,1.05,0,2.33-.26,3.83-.79v2.67c-1.23.51-2.6.77-4.12.77-2.18,0-3.85-.66-5-1.98-1.16-1.32-1.73-3.22-1.73-5.7,0-1.56.28-2.92.85-4.1s1.38-2.07,2.45-2.7c1.06-.62,2.31-.94,3.74-.94s2.92.35,4.39,1.06l-1.03,2.58c-.56-.27-1.12-.5-1.69-.7s-1.12-.3-1.67-.3Z"/><path class="b" d="m134.63,66.8c0,1.87-.49,3.33-1.48,4.38s-2.36,1.58-4.11,1.58c-1.1,0-2.07-.24-2.91-.72-.84-.48-1.49-1.17-1.94-2.08s-.68-1.96-.68-3.16c0-1.87.49-3.33,1.47-4.37s2.35-1.56,4.12-1.56c1.1,0,2.07.24,2.91.72s1.49,1.17,1.94,2.06.68,1.94.68,3.15Zm-7.93,0c0,1.13.19,1.99.56,2.57.37.58.98.87,1.82.87s1.43-.29,1.8-.87c.37-.58.55-1.44.55-2.58s-.18-1.99-.55-2.55-.97-.85-1.82-.85-1.44.28-1.8.85c-.37.56-.55,1.42-.55,2.56Z"/><path class="b" d="m147.77,72.55h-3.13v-6.7c0-.83-.15-1.45-.44-1.86s-.76-.62-1.41-.62c-.88,0-1.51.29-1.9.88-.39.58-.58,1.55-.58,2.91v5.39h-3.13v-11.46h2.39l.42,1.47h.17c.35-.55.83-.97,1.44-1.26.61-.28,1.31-.43,2.09-.43,1.33,0,2.34.36,3.04,1.08.69.72,1.04,1.76,1.04,3.12v7.48Z"/><path class="b" d="m157.22,63.44h-2.71v9.12h-3.13v-9.12h-1.72v-1.51l1.72-.84v-.84c0-1.31.32-2.26.96-2.86s1.67-.9,3.09-.9c1.08,0,2.04.16,2.88.48l-.8,2.3c-.63-.2-1.21-.3-1.74-.3-.44,0-.77.13-.96.4s-.3.6-.3,1.01v.72h2.71v2.35Z"/><path class="b" d="m164.33,72.76c-1.85,0-3.29-.51-4.33-1.53s-1.56-2.46-1.56-4.33.48-3.41,1.44-4.46c.96-1.05,2.29-1.57,3.98-1.57s2.88.46,3.78,1.38,1.35,2.2,1.35,3.82v1.52h-7.39c.03.89.3,1.58.79,2.08s1.18.75,2.07.75c.69,0,1.34-.07,1.96-.22s1.26-.37,1.93-.69v2.42c-.55.27-1.13.48-1.75.61-.62.13-1.38.2-2.28.2Zm-.44-9.66c-.66,0-1.18.21-1.56.63-.38.42-.59,1.02-.65,1.79h4.39c-.01-.77-.21-1.37-.6-1.79-.39-.42-.92-.63-1.58-.63Z"/><path class="b" d="m178.03,60.87c.42,0,.78.03,1.06.09l-.24,2.93c-.25-.07-.56-.1-.92-.1-1,0-1.78.26-2.33.77-.56.51-.84,1.23-.84,2.15v5.83h-3.13v-11.46h2.37l.46,1.93h.15c.36-.64.84-1.16,1.44-1.55.6-.39,1.26-.59,1.97-.59Z"/><path class="b" d="m186.31,72.76c-1.85,0-3.29-.51-4.33-1.53s-1.56-2.46-1.56-4.33.48-3.41,1.44-4.46c.96-1.05,2.29-1.57,3.98-1.57s2.88.46,3.78,1.38,1.35,2.2,1.35,3.82v1.52h-7.39c.03.89.3,1.58.79,2.08s1.18.75,2.07.75c.69,0,1.34-.07,1.96-.22s1.26-.37,1.93-.69v2.42c-.55.27-1.13.48-1.75.61-.62.13-1.38.2-2.28.2Zm-.44-9.66c-.66,0-1.18.21-1.56.63-.38.42-.59,1.02-.65,1.79h4.39c-.01-.77-.22-1.37-.61-1.79-.39-.42-.92-.63-1.58-.63Z"/><path class="b" d="m204.19,72.55h-3.13v-6.7c0-.83-.15-1.45-.44-1.86s-.76-.62-1.4-.62c-.88,0-1.51.29-1.9.88-.39.58-.58,1.55-.58,2.91v5.39h-3.13v-11.46h2.39l.42,1.47h.17c.35-.55.83-.97,1.44-1.26.61-.28,1.31-.43,2.09-.43,1.33,0,2.34.36,3.04,1.08.69.72,1.04,1.76,1.04,3.12v7.48Z"/><path class="b" d="m212.08,72.76c-3.57,0-5.35-1.96-5.35-5.88,0-1.95.49-3.44,1.46-4.47s2.36-1.54,4.17-1.54c1.33,0,2.52.26,3.57.78l-.92,2.42c-.49-.2-.95-.36-1.37-.49s-.85-.19-1.27-.19c-1.63,0-2.44,1.16-2.44,3.47s.81,3.36,2.44,3.36c.6,0,1.16-.08,1.67-.24s1.03-.41,1.54-.75v2.68c-.51.32-1.02.54-1.53.67-.52.12-1.17.18-1.95.18Z"/><path class="b" d="m223.32,72.76c-1.85,0-3.29-.51-4.33-1.53s-1.56-2.46-1.56-4.33.48-3.41,1.44-4.46c.96-1.05,2.29-1.57,3.98-1.57s2.88.46,3.78,1.38,1.35,2.2,1.35,3.82v1.52h-7.39c.03.89.3,1.58.79,2.08s1.18.75,2.07.75c.69,0,1.34-.07,1.96-.22s1.26-.37,1.93-.69v2.42c-.55.27-1.13.48-1.75.61-.62.13-1.38.2-2.28.2Zm-.44-9.66c-.66,0-1.18.21-1.56.63-.38.42-.59,1.02-.65,1.79h4.39c-.01-.77-.22-1.37-.61-1.79-.39-.42-.92-.63-1.58-.63Z"/></svg>