<?xml version="1.0" encoding="UTF-8"?><svg id="a" xmlns="http://www.w3.org/2000/svg" viewBox="0 0 151.13 82.01"><defs><style>.b{fill:#fff;}.c{fill:#f4ac36;}.d{fill:#6b40d8;}.e{fill:#ef4146;}.f{fill:#27b5ea;}.g{fill:#68de7a;}</style></defs><path class="d" d="m43.78,16.22l1.33,2.28s0,.01,0,.02c.52.9.74,1.9.64,2.9-.08.8-.37,1.55-.85,2.2h12.34v-8.07h-13.95c.17.21.33.43.47.67Z"/><path class="c" d="m49.21,3.03h-24.16c-4.45,0-8.05,3.6-8.05,8.05v1.06h7.36c.26-.73.68-1.38,1.25-1.92.88-.83,2.04-1.29,3.26-1.29h2.86c1.24,0,2.4.47,3.28,1.31.55.53.96,1.18,1.22,1.9h21.03v-1.06c0-4.45-3.6-8.05-8.05-8.05Z"/><path class="g" d="m44.14,27.11c.92.82,1.47,1.86,1.59,3.02.1,1-.12,2.01-.64,2.92,0,0,0,.01,0,.02l-.23.4,5.89,4.71c2.64,2.11,6.54.23,6.54-3.14v-8h-13.22s.06.05.09.07Z"/><path class="f" d="m43.77,35.42c-.55.94-1.36,1.65-2.36,2.06-.33.13-.67.23-1.02.28v2.15c0,2.55-2.07,4.62-4.62,4.62h-19.45c-.78,0-1.53.26-2.14.75l-6.25,4.99c-.12.1-.23.14-.35.14,0,0-.62-.03-.62-.6v-23.95c0-2.55,2.07-4.62,4.62-4.62h2.96c-.06-.94.17-1.88.66-2.73,0,0,0-.01,0-.02l.39-.67h-4.01c-4.45,0-8.05,3.6-8.05,8.05v24.03c0,2.39,1.97,4.04,4.05,4.04.86,0,1.73-.28,2.5-.89l6.25-5h19.42c4.45,0,8.05-3.6,8.05-8.05v-4.64l-.03.06Z"/><circle class="f" cx="13.67" cy="39.56" r="2.25"/><circle class="f" cx="20.57" cy="39.56" r="2.25"/><path class="e" d="m42.06,29.57l-2.19-1.43c.18-.75.28-1.54.28-2.34s-.1-1.59-.28-2.34l2.19-1.43c.59-.39.78-1.17.43-1.79l-1.35-2.34c-.36-.62-1.13-.84-1.76-.52l-2.33,1.18c-1.13-1.08-2.52-1.89-4.05-2.34l-.14-2.61c-.04-.71-.62-1.26-1.33-1.26h-2.7c-.71,0-1.3.56-1.33,1.26l-.14,2.61c-1.54.45-2.92,1.27-4.05,2.34l-2.33-1.18c-.63-.32-1.41-.09-1.76.52l-1.35,2.34c-.36.62-.17,1.4.43,1.79l2.19,1.43c-.18.75-.28,1.54-.28,2.34s.1,1.59.28,2.34l-2.19,1.43c-.59.39-.78,1.17-.43,1.79l1.35,2.34c.36.61,1.13.84,1.76.52l2.33-1.18c1.13,1.08,2.52,1.89,4.05,2.34l.14,2.61c.04.71.62,1.26,1.33,1.26h2.7c.71,0,1.3-.56,1.33-1.26l.14-2.61c1.54-.45,2.92-1.27,4.05-2.34l2.33,1.18c.63.32,1.41.09,1.76-.52l1.35-2.34c.36-.61.17-1.4-.43-1.79Zm-11.9,2.78c-3.62,0-6.56-2.94-6.56-6.56s2.94-6.56,6.56-6.56,6.56,2.94,6.56,6.56-2.94,6.56-6.56,6.56Z"/><path class="d" d="m121.07,52.79h-59.02v-19.34c0-3.24,2.63-5.86,5.86-5.86h53.15v25.2Z"/><path class="f" d="m89.43,77.99h52.49c3.24,0,5.86-2.63,5.86-5.86v-19.34h-58.36v25.2Z"/><path class="c" d="m89.43,77.99H22.33c-3.24,0-5.86-2.63-5.86-5.86v-13.47c0-3.24,2.63-5.86,5.86-5.86h67.1v25.2Z"/><path class="g" d="m121.07,52.79h26.72v-19.34c0-3.24-2.63-5.86-5.86-5.86h-20.85v25.2Z"/><path class="b" d="m77.22,35.63c0,1.61-.5,2.85-1.51,3.7s-2.44,1.28-4.3,1.28h-1.36v5.33h-3.18v-14.99h4.79c1.82,0,3.2.39,4.15,1.17.95.78,1.42,1.95,1.42,3.5Zm-7.18,2.38h1.05c.98,0,1.71-.19,2.19-.58s.73-.95.73-1.69-.2-1.3-.61-1.65c-.41-.36-1.04-.53-1.91-.53h-1.45v4.45Z"/><path class="b" d="m86.03,34.27c.42,0,.78.03,1.06.09l-.24,2.93c-.25-.07-.56-.1-.92-.1-1,0-1.78.26-2.33.77s-.84,1.23-.84,2.15v5.83h-3.13v-11.46h2.37l.46,1.93h.15c.36-.64.84-1.16,1.44-1.55.6-.39,1.26-.59,1.97-.59Z"/><path class="b" d="m99.55,40.19c0,1.87-.49,3.33-1.48,4.38s-2.36,1.58-4.11,1.58c-1.1,0-2.07-.24-2.91-.72-.84-.48-1.49-1.17-1.94-2.08s-.68-1.96-.68-3.16c0-1.87.49-3.33,1.47-4.37s2.35-1.56,4.12-1.56c1.1,0,2.07.24,2.91.72.84.48,1.49,1.17,1.94,2.06s.68,1.94.68,3.15Zm-7.93,0c0,1.13.19,1.99.56,2.57.37.58.98.87,1.82.87s1.43-.29,1.8-.87c.37-.58.55-1.44.55-2.58s-.18-1.99-.55-2.55-.97-.85-1.82-.85-1.44.28-1.8.85c-.37.56-.55,1.42-.55,2.56Z"/><path class="b" d="m112.37,45.95h-3.13v-6.7c0-.83-.14-1.45-.42-1.86-.28-.41-.71-.62-1.31-.62-.8,0-1.38.29-1.74.88s-.54,1.56-.54,2.9v5.39h-3.13v-11.46h2.39l.42,1.47h.17c.31-.53.75-.94,1.33-1.24.58-.3,1.25-.45,2-.45,1.72,0,2.88.56,3.49,1.68h.28c.31-.53.76-.95,1.36-1.24.6-.29,1.27-.44,2.02-.44,1.3,0,2.28.33,2.95,1s1,1.73,1,3.2v7.48h-3.14v-6.7c0-.83-.14-1.45-.42-1.86-.28-.41-.71-.62-1.31-.62-.77,0-1.34.27-1.72.82-.38.55-.57,1.42-.57,2.6v5.75Z"/><path class="b" d="m128.94,46.15c-1.35,0-2.4-.49-3.17-1.47h-.16c.11.96.16,1.51.16,1.66v4.65h-3.13v-16.51h2.54l.44,1.49h.14c.73-1.13,1.82-1.7,3.25-1.7,1.35,0,2.41.52,3.18,1.57s1.15,2.5,1.15,4.36c0,1.22-.18,2.29-.54,3.19-.36.9-.87,1.59-1.53,2.06s-1.44.71-2.34.71Zm-.92-9.38c-.77,0-1.34.24-1.69.71-.36.48-.54,1.26-.55,2.35v.34c0,1.23.18,2.11.55,2.65.37.53.95.8,1.74.8,1.4,0,2.1-1.16,2.1-3.47,0-1.13-.17-1.97-.52-2.54-.34-.56-.89-.85-1.62-.85Z"/><path class="b" d="m140.8,43.66c.55,0,1.2-.12,1.97-.36v2.33c-.78.35-1.74.52-2.87.52-1.25,0-2.16-.32-2.73-.95-.57-.63-.86-1.58-.86-2.85v-5.53h-1.5v-1.32l1.72-1.05.9-2.42h2v2.44h3.21v2.35h-3.21v5.53c0,.44.12.77.37.98.25.21.58.32.99.32Z"/><path class="b" d="m29.9,71.15h-8.63v-14.99h8.63v2.6h-5.46v3.29h5.08v2.6h-5.08v3.87h5.46v2.62Z"/><path class="b" d="m43.41,71.15h-3.13v-6.7c0-.83-.15-1.45-.44-1.86s-.76-.62-1.4-.62c-.88,0-1.51.29-1.9.88-.39.58-.58,1.55-.58,2.91v5.39h-3.13v-11.46h2.39l.42,1.47h.17c.35-.55.83-.97,1.44-1.26.61-.28,1.31-.43,2.09-.43,1.33,0,2.34.36,3.04,1.08.69.72,1.04,1.76,1.04,3.12v7.48Z"/><path class="b" d="m56.62,59.68v1.59l-1.79.46c.33.51.49,1.09.49,1.72,0,1.23-.43,2.19-1.29,2.88-.86.69-2.05,1.03-3.57,1.03l-.56-.03-.46-.05c-.32.25-.48.52-.48.82,0,.45.57.68,1.72.68h1.95c1.26,0,2.22.27,2.88.81.66.54.99,1.33.99,2.38,0,1.34-.56,2.38-1.68,3.12-1.12.74-2.72,1.11-4.81,1.11-1.6,0-2.82-.28-3.67-.84-.84-.56-1.27-1.34-1.27-2.34,0-.69.22-1.27.65-1.73s1.06-.8,1.9-.99c-.32-.14-.6-.36-.84-.67-.24-.31-.36-.64-.36-.99,0-.44.13-.8.38-1.09s.62-.58,1.1-.86c-.6-.26-1.08-.68-1.43-1.25-.35-.57-.53-1.25-.53-2.03,0-1.25.41-2.22,1.22-2.9s1.98-1.03,3.49-1.03c.32,0,.7.03,1.14.09.44.06.72.1.85.13h4Zm-8.85,13.08c0,.43.21.77.62,1.02s.99.37,1.74.37c1.12,0,2-.15,2.64-.46s.95-.73.95-1.26c0-.43-.19-.73-.56-.89s-.96-.25-1.74-.25h-1.62c-.57,0-1.05.13-1.44.41-.39.27-.58.63-.58,1.07Zm1.14-9.33c0,.62.14,1.11.43,1.48s.72.54,1.3.54,1.02-.18,1.29-.54.41-.85.41-1.48c0-1.38-.57-2.07-1.7-2.07s-1.72.69-1.72,2.07Z"/><path class="b" d="m58.4,56.72c0-1.02.57-1.53,1.7-1.53s1.7.51,1.7,1.53c0,.49-.14.86-.43,1.13-.28.27-.71.4-1.28.4-1.13,0-1.7-.51-1.7-1.54Zm3.26,14.43h-3.13v-11.46h3.13v11.46Z"/><path class="b" d="m75.43,71.15h-3.13v-6.7c0-.83-.15-1.45-.44-1.86s-.76-.62-1.4-.62c-.88,0-1.51.29-1.9.88-.39.58-.58,1.55-.58,2.91v5.39h-3.13v-11.46h2.39l.42,1.47h.17c.35-.55.83-.97,1.44-1.26.61-.28,1.31-.43,2.09-.43,1.33,0,2.34.36,3.04,1.08.69.72,1.04,1.76,1.04,3.12v7.48Z"/><path class="b" d="m83.81,71.35c-1.85,0-3.29-.51-4.33-1.53s-1.56-2.46-1.56-4.33.48-3.41,1.44-4.46c.96-1.05,2.29-1.57,3.98-1.57s2.88.46,3.78,1.38,1.35,2.2,1.35,3.82v1.52h-7.39c.03.89.3,1.58.79,2.08s1.18.75,2.07.75c.69,0,1.34-.07,1.96-.22s1.26-.37,1.93-.69v2.42c-.55.27-1.13.48-1.75.61-.62.13-1.38.2-2.28.2Zm-.44-9.66c-.66,0-1.18.21-1.56.63-.38.42-.59,1.02-.65,1.79h4.39c-.01-.77-.22-1.37-.6-1.79-.39-.42-.92-.63-1.58-.63Z"/><path class="b" d="m96.33,71.35c-1.85,0-3.29-.51-4.33-1.53s-1.56-2.46-1.56-4.33.48-3.41,1.44-4.46c.96-1.05,2.29-1.57,3.98-1.57s2.88.46,3.78,1.38,1.35,2.2,1.35,3.82v1.52h-7.39c.03.89.3,1.58.79,2.08s1.18.75,2.07.75c.69,0,1.34-.07,1.96-.22s1.26-.37,1.93-.69v2.42c-.55.27-1.13.48-1.75.61-.62.13-1.38.2-2.28.2Zm-.44-9.66c-.66,0-1.18.21-1.56.63-.38.42-.59,1.02-.65,1.79h4.39c-.01-.77-.21-1.37-.61-1.79-.39-.42-.92-.63-1.58-.63Z"/><path class="b" d="m110.02,59.47c.42,0,.78.03,1.06.09l-.24,2.93c-.25-.07-.56-.1-.92-.1-1,0-1.78.26-2.33.77-.56.51-.84,1.23-.84,2.15v5.83h-3.13v-11.46h2.37l.46,1.93h.15c.35-.64.83-1.16,1.44-1.55.6-.39,1.26-.59,1.97-.59Z"/><path class="b" d="m112.96,56.72c0-1.02.57-1.53,1.7-1.53s1.7.51,1.7,1.53c0,.49-.14.86-.43,1.13-.28.27-.71.4-1.28.4-1.13,0-1.7-.51-1.7-1.54Zm3.26,14.43h-3.13v-11.46h3.13v11.46Z"/><path class="b" d="m129.99,71.15h-3.13v-6.7c0-.83-.15-1.45-.44-1.86s-.76-.62-1.4-.62c-.88,0-1.51.29-1.9.88-.39.58-.58,1.55-.58,2.91v5.39h-3.13v-11.46h2.39l.42,1.47h.17c.35-.55.83-.97,1.44-1.26.61-.28,1.31-.43,2.09-.43,1.33,0,2.34.36,3.04,1.08.69.72,1.04,1.76,1.04,3.12v7.48Z"/><path class="b" d="m143.2,59.68v1.59l-1.79.46c.33.51.49,1.09.49,1.72,0,1.23-.43,2.19-1.29,2.88-.86.69-2.05,1.03-3.57,1.03l-.56-.03-.46-.05c-.32.25-.48.52-.48.82,0,.45.57.68,1.72.68h1.95c1.26,0,2.22.27,2.88.81.66.54.99,1.33.99,2.38,0,1.34-.56,2.38-1.68,3.12-1.12.74-2.72,1.11-4.81,1.11-1.6,0-2.82-.28-3.67-.84-.84-.56-1.27-1.34-1.27-2.34,0-.69.22-1.27.65-1.73.43-.46,1.06-.8,1.9-.99-.32-.14-.6-.36-.84-.67-.24-.31-.36-.64-.36-.99,0-.44.13-.8.38-1.09s.62-.58,1.1-.86c-.6-.26-1.08-.68-1.43-1.25-.35-.57-.53-1.25-.53-2.03,0-1.25.41-2.22,1.22-2.9s1.98-1.03,3.49-1.03c.32,0,.7.03,1.14.09.44.06.72.1.85.13h4Zm-8.85,13.08c0,.43.21.77.62,1.02.41.25.99.37,1.74.37,1.12,0,2-.15,2.63-.46.64-.31.95-.73.95-1.26,0-.43-.19-.73-.56-.89-.38-.16-.96-.25-1.74-.25h-1.62c-.57,0-1.05.13-1.44.41-.39.27-.58.63-.58,1.07Zm1.14-9.33c0,.62.14,1.11.43,1.48.28.36.72.54,1.3.54s1.02-.18,1.29-.54c.27-.36.41-.85.41-1.48,0-1.38-.57-2.07-1.7-2.07s-1.72.69-1.72,2.07Z"/></svg>