<?xml version="1.0" encoding="UTF-8"?><svg id="a" xmlns="http://www.w3.org/2000/svg" viewBox="0 0 595.28 595.28"><defs><style>.b{fill:#fff;}.c{fill:#f4ac36;}.d{fill:#6b40d8;}.e{fill:#ef4146;}.f{fill:#898989;}.g{fill:#27b5ea;}.h{fill:#b5b5b5;}.i{fill:#68de7a;}.j{fill:#5b5b5b;}.k{fill:#231f20;stroke:#fff;stroke-miterlimit:10;}.l{fill:#5e5e5e;}</style></defs><path class="d" d="m160.43,373.94l2.24,3.82s.01.02.02.03c.87,1.51,1.24,3.19,1.07,4.87-.13,1.34-.62,2.59-1.42,3.69h20.68v-13.53h-23.38c.29.35.55.72.78,1.12Z"/><path class="c" d="m169.53,351.83h-40.49c-7.45,0-13.49,6.04-13.49,13.49v1.77h12.34c.43-1.23,1.13-2.32,2.09-3.22,1.48-1.39,3.42-2.16,5.47-2.16h4.79c2.07,0,4.02.78,5.5,2.2.93.89,1.62,1.97,2.04,3.18h35.25v-1.77c0-7.45-6.04-13.49-13.49-13.49Z"/><path class="i" d="m161.03,392.2c1.55,1.37,2.46,3.12,2.66,5.06.17,1.68-.2,3.37-1.08,4.89,0,0-.01.02-.02.03l-.39.67,9.86,7.89c4.42,3.53,10.96.39,10.96-5.27v-13.4h-22.15c.05.04.1.08.15.13Z"/><path class="g" d="m160.42,406.12c-.92,1.58-2.28,2.77-3.96,3.44-.56.22-1.13.38-1.71.47v3.61c0,4.28-3.47,7.75-7.75,7.75h-32.59c-1.3,0-2.57.44-3.59,1.26l-10.47,8.37c-.2.16-.38.23-.59.23-.01,0-1.03-.04-1.03-1.01v-40.13c0-4.28,3.47-7.75,7.75-7.75h4.97c-.1-1.58.28-3.15,1.1-4.57,0,0,.01-.02.02-.03l.66-1.13h-6.72c-7.45,0-13.49,6.04-13.49,13.49v40.26c0,4.01,3.29,6.76,6.79,6.76,1.43,0,2.9-.46,4.19-1.49l10.47-8.38h32.54c7.45,0,13.49-6.04,13.49-13.49v-7.77l-.06.1Z"/><circle class="g" cx="109.97" cy="413.05" r="3.78"/><circle class="g" cx="121.54" cy="413.05" r="3.78"/><path class="e" d="m157.54,396.31l-3.67-2.39c.3-1.26.46-2.57.46-3.92s-.16-2.67-.46-3.92l3.67-2.39c1-.65,1.31-1.97.72-3l-2.27-3.93c-.6-1.03-1.89-1.42-2.95-.88l-3.91,1.98c-1.9-1.8-4.22-3.17-6.79-3.93l-.24-4.37c-.06-1.19-1.05-2.12-2.24-2.12h-4.53c-1.19,0-2.17.93-2.24,2.12l-.24,4.37c-2.58.76-4.9,2.12-6.79,3.93l-3.91-1.98c-1.06-.54-2.36-.15-2.95.88l-2.27,3.93c-.6,1.03-.28,2.35.72,3l3.67,2.39c-.3,1.26-.46,2.57-.46,3.92s.16,2.67.46,3.92l-3.67,2.39c-1,.65-1.31,1.97-.72,3l2.27,3.93c.6,1.03,1.89,1.42,2.95.88l3.91-1.98c1.9,1.8,4.22,3.17,6.79,3.93l.24,4.37c.06,1.19,1.05,2.12,2.24,2.12h4.53c1.19,0,2.17-.93,2.24-2.12l.24-4.37c2.58-.76,4.9-2.12,6.79-3.93l3.91,1.98c1.06.54,2.36.15,2.95-.88l2.27-3.93c.6-1.03.28-2.35-.72-3Zm-19.94,4.65c-6.07,0-11-4.92-11-11s4.92-11,11-11,11,4.92,11,11-4.92,11-11,11Z"/><path d="m267.28,373.94l2.24,3.82s.01.02.02.03c.87,1.51,1.24,3.19,1.07,4.87-.13,1.34-.62,2.59-1.42,3.69h20.68v-13.53h-23.38c.29.35.55.72.78,1.12Z"/><path d="m276.38,351.83h-40.49c-7.45,0-13.49,6.04-13.49,13.49v1.77h12.34c.43-1.23,1.13-2.32,2.09-3.22,1.48-1.39,3.42-2.16,5.47-2.16h4.79c2.07,0,4.02.78,5.5,2.2.93.89,1.62,1.97,2.04,3.18h35.25v-1.77c0-7.45-6.04-13.49-13.49-13.49Z"/><path d="m267.87,392.2c1.55,1.37,2.46,3.12,2.66,5.06.17,1.68-.2,3.37-1.08,4.89,0,0-.01.02-.02.03l-.39.67,9.86,7.89c4.42,3.53,10.96.39,10.96-5.27v-13.4h-22.15c.05.04.1.08.15.13Z"/><path d="m267.09,406.12c-.92,1.58-2.28,2.77-3.96,3.44-.56.22-1.13.38-1.71.47v3.61c0,4.28-3.47,7.75-7.75,7.75h-32.59c-1.3,0-2.57.44-3.59,1.26l-10.47,8.37c-.2.16-.38.23-.59.23-.01,0-1.03-.04-1.03-1.01v-40.13c0-4.28,3.47-7.75,7.75-7.75h4.97c-.1-1.58.28-3.15,1.1-4.57,0,0,.01-.02.02-.03l.66-1.13h-6.72c-7.45,0-13.49,6.04-13.49,13.49v40.26c0,4.01,3.29,6.76,6.79,6.76,1.43,0,2.9-.46,4.19-1.49l10.47-8.38h32.54c7.45,0,13.49-6.04,13.49-13.49v-7.77l-.06.1Z"/><circle cx="216.69" cy="413.05" r="3.78"/><circle cx="228.26" cy="413.05" r="3.78"/><path d="m264.27,396.31l-3.67-2.39c.3-1.26.46-2.57.46-3.92s-.16-2.67-.46-3.92l3.67-2.39c1-.65,1.31-1.97.72-3l-2.27-3.93c-.6-1.03-1.89-1.42-2.95-.88l-3.91,1.98c-1.9-1.8-4.22-3.17-6.79-3.93l-.24-4.37c-.06-1.19-1.05-2.12-2.24-2.12h-4.53c-1.19,0-2.17.93-2.24,2.12l-.24,4.37c-2.58.76-4.9,2.12-6.79,3.93l-3.91-1.98c-1.06-.54-2.36-.15-2.95.88l-2.27,3.93c-.6,1.03-.28,2.35.72,3l3.67,2.39c-.3,1.26-.46,2.57-.46,3.92s.16,2.67.46,3.92l-3.67,2.39c-1,.65-1.31,1.97-.72,3l2.27,3.93c.6,1.03,1.89,1.42,2.95.88l3.91-1.98c1.9,1.8,4.22,3.17,6.79,3.93l.24,4.37c.06,1.19,1.05,2.12,2.24,2.12h4.53c1.19,0,2.17-.93,2.24-2.12l.24-4.37c2.58-.76,4.9-2.12,6.79-3.93l3.91,1.98c1.06.54,2.36.15,2.95-.88l2.27-3.93c.6-1.03.28-2.35-.72-3Zm-19.94,4.65c-6.07,0-11-4.92-11-11s4.92-11,11-11,11,4.92,11,11-4.92,11-11,11Z"/><path class="f" d="m480.63,373.94l2.24,3.82s.01.02.02.03c.87,1.51,1.24,3.19,1.07,4.87-.13,1.34-.62,2.59-1.42,3.69h20.68v-13.53h-23.38c.29.35.55.72.78,1.12Z"/><path class="h" d="m489.73,351.83h-40.49c-7.45,0-13.49,6.04-13.49,13.49v1.77h12.34c.43-1.23,1.13-2.32,2.09-3.22,1.48-1.39,3.42-2.16,5.47-2.16h4.79c2.07,0,4.02.78,5.5,2.2.93.89,1.62,1.97,2.04,3.18h35.25v-1.77c0-7.45-6.04-13.49-13.49-13.49Z"/><path class="l" d="m481.22,392.2c1.55,1.37,2.46,3.12,2.66,5.06.17,1.68-.2,3.37-1.08,4.89,0,0-.01.02-.02.03l-.39.67,9.86,7.89c4.42,3.53,10.96.39,10.96-5.27v-13.4h-22.15c.05.04.1.08.15.13Z"/><path class="f" d="m480.61,406.12c-.92,1.58-2.28,2.77-3.96,3.44-.56.22-1.13.38-1.71.47v3.61c0,4.28-3.47,7.75-7.75,7.75h-32.59c-1.3,0-2.57.44-3.59,1.26l-10.47,8.37c-.2.16-.38.23-.59.23-.01,0-1.03-.04-1.03-1.01v-40.13c0-4.28,3.47-7.75,7.75-7.75h4.97c-.1-1.58.28-3.15,1.1-4.57,0,0,.01-.02.02-.03l.66-1.13h-6.72c-7.45,0-13.49,6.04-13.49,13.49v40.26c0,4.01,3.29,6.76,6.79,6.76,1.43,0,2.9-.46,4.19-1.49l10.47-8.38h32.54c7.45,0,13.49-6.04,13.49-13.49v-7.77l-.06.1Z"/><circle class="l" cx="430.13" cy="413.05" r="3.78"/><circle class="l" cx="441.7" cy="413.05" r="3.78"/><path class="j" d="m477.71,396.31l-3.67-2.39c.3-1.26.46-2.57.46-3.92s-.16-2.67-.46-3.92l3.67-2.39c1-.65,1.31-1.97.72-3l-2.27-3.93c-.6-1.03-1.89-1.42-2.95-.88l-3.91,1.98c-1.9-1.8-4.22-3.17-6.79-3.93l-.24-4.37c-.06-1.19-1.05-2.12-2.24-2.12h-4.53c-1.19,0-2.17.93-2.24,2.12l-.24,4.37c-2.58.76-4.9,2.12-6.79,3.93l-3.91-1.98c-1.06-.54-2.36-.15-2.95.88l-2.27,3.93c-.6,1.03-.28,2.35.72,3l3.67,2.39c-.3,1.26-.46,2.57-.46,3.92s.16,2.67.46,3.92l-3.67,2.39c-1,.65-1.31,1.97-.72,3l2.27,3.93c.6,1.03,1.89,1.42,2.95.88l3.91-1.98c1.9,1.8,4.22,3.17,6.79,3.93l.24,4.37c.06,1.19,1.05,2.12,2.24,2.12h4.53c1.19,0,2.17-.93,2.24-2.12l.24-4.37c2.58-.76,4.9-2.12,6.79-3.93l3.91,1.98c1.06.54,2.36.15,2.95-.88l2.27-3.93c.6-1.03.28-2.35-.72-3Zm-19.94,4.65c-6.07,0-11-4.92-11-11s4.92-11,11-11,11,4.92,11,11-4.92,11-11,11Z"/><rect class="k" x="193.17" y="445.58" width="103.21" height="103.21"/><path class="b" d="m267.28,480.62l2.24,3.82s.01.02.02.03c.87,1.51,1.24,3.19,1.07,4.87-.13,1.34-.62,2.59-1.42,3.69h20.68v-13.53h-23.38c.29.35.55.72.78,1.12Z"/><path class="b" d="m276.38,458.5h-40.49c-7.45,0-13.49,6.04-13.49,13.49v1.77h12.34c.43-1.23,1.13-2.32,2.09-3.22,1.48-1.39,3.42-2.16,5.47-2.16h4.79c2.07,0,4.02.78,5.5,2.2.93.89,1.62,1.97,2.04,3.18h35.25v-1.77c0-7.45-6.04-13.49-13.49-13.49Z"/><path class="b" d="m267.87,498.87c1.55,1.37,2.46,3.12,2.66,5.06.17,1.68-.2,3.37-1.08,4.89,0,0-.01.02-.02.03l-.39.67,9.86,7.89c4.42,3.53,10.96.39,10.96-5.27v-13.4h-22.15c.05.04.1.08.15.13Z"/><path class="b" d="m267.09,512.79c-.92,1.58-2.28,2.77-3.96,3.44-.56.22-1.13.38-1.71.47v3.78c0,4.28-3.47,7.75-7.75,7.75h-32.59c-1.3,0-2.57.44-3.59,1.26l-10.47,8.37c-.2.16-.38.23-.59.23-.01,0-1.03-.04-1.03-1.01v-40.3c0-4.28,3.47-7.75,7.75-7.75h4.97c-.1-1.58.28-3.15,1.1-4.57,0,0,.01-.02.02-.03l.66-1.13h-6.72c-7.45,0-13.49,6.04-13.49,13.49v40.26c0,4.01,3.29,6.76,6.79,6.76,1.43,0,2.9-.46,4.19-1.49l10.47-8.38h32.54c7.45,0,13.49-6.04,13.49-13.49v-7.77l-.06.1Z"/><circle class="b" cx="216.69" cy="519.77" r="3.78"/><circle class="b" cx="228.26" cy="519.77" r="3.78"/><path class="b" d="m264.27,502.98l-3.67-2.39c.3-1.26.46-2.57.46-3.92s-.16-2.67-.46-3.92l3.67-2.39c1-.65,1.31-1.97.72-3l-2.27-3.93c-.6-1.03-1.89-1.42-2.95-.88l-3.91,1.98c-1.9-1.8-4.22-3.17-6.79-3.93l-.24-4.37c-.06-1.19-1.05-2.12-2.24-2.12h-4.53c-1.19,0-2.17.93-2.24,2.12l-.24,4.37c-2.58.76-4.9,2.12-6.79,3.93l-3.91-1.98c-1.06-.54-2.36-.15-2.95.88l-2.27,3.93c-.6,1.03-.28,2.35.72,3l3.67,2.39c-.3,1.26-.46,2.57-.46,3.92s.16,2.67.46,3.92l-3.67,2.39c-1,.65-1.31,1.97-.72,3l2.27,3.93c.6,1.03,1.89,1.42,2.95.88l3.91-1.98c1.9,1.8,4.22,3.17,6.79,3.93l.24,4.37c.06,1.19,1.05,2.12,2.24,2.12h4.53c1.19,0,2.17-.93,2.24-2.12l.24-4.37c2.58-.76,4.9-2.12,6.79-3.93l3.91,1.98c1.06.54,2.36.15,2.95-.88l2.27-3.93c.6-1.03.28-2.35-.72-3Zm-19.94,4.7c-6.07,0-11-4.92-11-11s4.92-11,11-11,11,4.92,11,11-4.92,11-11,11Z"/><path class="d" d="m373.95,373.94l2.24,3.82s.01.02.02.03c.87,1.51,1.24,3.19,1.07,4.87-.13,1.34-.62,2.59-1.42,3.69h20.68v-13.53h-23.38c.29.35.55.72.78,1.12Z"/><path class="d" d="m383.05,351.83h-40.49c-7.45,0-13.49,6.04-13.49,13.49v1.77h12.34c.43-1.23,1.13-2.32,2.09-3.22,1.48-1.39,3.42-2.16,5.47-2.16h4.79c2.07,0,4.02.78,5.5,2.2.93.89,1.62,1.97,2.04,3.18h35.25v-1.77c0-7.45-6.04-13.49-13.49-13.49Z"/><path class="d" d="m374.55,392.2c1.55,1.37,2.46,3.12,2.66,5.06.17,1.68-.2,3.37-1.08,4.89,0,0-.01.02-.02.03l-.39.67,9.86,7.89c4.42,3.53,10.96.39,10.96-5.27v-13.4h-22.15c.05.04.1.08.15.13Z"/><path class="d" d="m373.77,406.12c-.92,1.58-2.28,2.77-3.96,3.44-.56.22-1.13.38-1.71.47v3.61c0,4.28-3.47,7.75-7.75,7.75h-32.59c-1.3,0-2.57.44-3.59,1.26l-10.47,8.37c-.2.16-.38.23-.59.23-.01,0-1.03-.04-1.03-1.01v-40.13c0-4.28,3.47-7.75,7.75-7.75h4.97c-.1-1.58.28-3.15,1.1-4.57,0,0,.01-.02.02-.03l.66-1.13h-6.54c-7.45,0-13.49,6.04-13.49,13.49v40.26c0,4.01,3.29,6.76,6.79,6.76,1.43,0,2.9-.46,4.19-1.49l10.47-8.38h32.37c7.45,0,13.49-6.04,13.49-13.49v-7.77l-.06.1Z"/><circle class="d" cx="323.41" cy="413.05" r="3.78"/><circle class="d" cx="334.98" cy="413.05" r="3.78"/><path class="d" d="m370.99,396.31l-3.67-2.39c.3-1.26.46-2.57.46-3.92s-.16-2.67-.46-3.92l3.67-2.39c1-.65,1.31-1.97.72-3l-2.27-3.93c-.6-1.03-1.89-1.42-2.95-.88l-3.91,1.98c-1.9-1.8-4.22-3.17-6.79-3.93l-.24-4.37c-.06-1.19-1.05-2.12-2.24-2.12h-4.53c-1.19,0-2.17.93-2.24,2.12l-.24,4.37c-2.58.76-4.9,2.12-6.79,3.93l-3.91-1.98c-1.06-.54-2.36-.15-2.95.88l-2.27,3.93c-.6,1.03-.28,2.35.72,3l3.67,2.39c-.3,1.26-.46,2.57-.46,3.92s.16,2.67.46,3.92l-3.67,2.39c-1,.65-1.31,1.97-.72,3l2.27,3.93c.6,1.03,1.89,1.42,2.95.88l3.91-1.98c1.9,1.8,4.22,3.17,6.79,3.93l.24,4.37c.06,1.19,1.05,2.12,2.24,2.12h4.53c1.19,0,2.17-.93,2.24-2.12l.24-4.37c2.58-.76,4.9-2.12,6.79-3.93l3.91,1.98c1.06.54,2.36.15,2.95-.88l2.27-3.93c.6-1.03.28-2.35-.72-3Zm-19.94,4.65c-6.07,0-11-4.92-11-11s4.92-11,11-11,11,4.92,11,11-4.92,11-11,11Z"/><rect class="k" x="86.5" y="445.58" width="103.21" height="103.21"/><rect class="k" x="299.85" y="445.58" width="103.21" height="103.21"/><rect class="k" x="406.52" y="445.58" width="103.21" height="103.21"/><path class="d" d="m160.43,480.62l2.24,3.82s.01.02.02.03c.87,1.51,1.24,3.19,1.07,4.87-.13,1.34-.62,2.59-1.42,3.69h20.68v-13.53h-23.38c.29.35.55.72.78,1.12Z"/><path class="c" d="m169.53,458.5h-40.49c-7.45,0-13.49,6.04-13.49,13.49v1.77h12.34c.43-1.23,1.13-2.32,2.09-3.22,1.48-1.39,3.42-2.16,5.47-2.16h4.79c2.07,0,4.02.78,5.5,2.2.93.89,1.62,1.97,2.04,3.18h35.25v-1.77c0-7.45-6.04-13.49-13.49-13.49Z"/><path class="i" d="m161.03,498.87c1.55,1.37,2.46,3.12,2.66,5.06.17,1.68-.2,3.37-1.08,4.89,0,0-.01.02-.02.03l-.39.67,9.86,7.89c4.42,3.53,10.96.39,10.96-5.27v-13.4h-22.15c.05.04.1.08.15.13Z"/><path class="g" d="m160.42,512.79c-.92,1.58-2.28,2.77-3.96,3.44-.56.22-1.13.38-1.71.47v3.78c0,4.28-3.47,7.75-7.75,7.75h-32.59c-1.3,0-2.57.44-3.59,1.26l-10.47,8.37c-.2.16-.38.23-.59.23-.01,0-1.03-.04-1.03-1.01v-40.3c0-4.28,3.47-7.75,7.75-7.75h4.97c-.1-1.58.28-3.15,1.1-4.57,0,0,.01-.02.02-.03l.66-1.13h-6.72c-7.45,0-13.49,6.04-13.49,13.49v40.26c0,4.01,3.29,6.76,6.79,6.76,1.43,0,2.9-.46,4.19-1.49l10.47-8.38h32.54c7.45,0,13.49-6.04,13.49-13.49v-7.77l-.06.1Z"/><circle class="g" cx="109.97" cy="519.77" r="3.78"/><circle class="g" cx="121.54" cy="519.77" r="3.78"/><path class="e" d="m157.54,502.98l-3.67-2.39c.3-1.26.46-2.57.46-3.92s-.16-2.67-.46-3.92l3.67-2.39c1-.65,1.31-1.97.72-3l-2.27-3.93c-.6-1.03-1.89-1.42-2.95-.88l-3.91,1.98c-1.9-1.8-4.22-3.17-6.79-3.93l-.24-4.37c-.06-1.19-1.05-2.12-2.24-2.12h-4.53c-1.19,0-2.17.93-2.24,2.12l-.24,4.37c-2.58.76-4.9,2.12-6.79,3.93l-3.91-1.98c-1.06-.54-2.36-.15-2.95.88l-2.27,3.93c-.6,1.03-.28,2.35.72,3l3.67,2.39c-.3,1.26-.46,2.57-.46,3.92s.16,2.67.46,3.92l-3.67,2.39c-1,.65-1.31,1.97-.72,3l2.27,3.93c.6,1.03,1.89,1.42,2.95.88l3.91-1.98c1.9,1.8,4.22,3.17,6.79,3.93l.24,4.37c.06,1.19,1.05,2.12,2.24,2.12h4.53c1.19,0,2.17-.93,2.24-2.12l.24-4.37c2.58-.76,4.9-2.12,6.79-3.93l3.91,1.98c1.06.54,2.36.15,2.95-.88l2.27-3.93c.6-1.03.28-2.35-.72-3Zm-19.94,4.7c-6.07,0-11-4.92-11-11s4.92-11,11-11,11,4.92,11,11-4.92,11-11,11Z"/><path class="d" d="m373.95,480.62l2.24,3.82s.01.02.02.03c.87,1.51,1.24,3.19,1.07,4.87-.13,1.34-.62,2.59-1.42,3.69h20.68v-13.53h-23.38c.29.35.55.72.78,1.12Z"/><path class="d" d="m383.05,458.5h-40.49c-7.45,0-13.49,6.04-13.49,13.49v1.77h12.34c.43-1.23,1.13-2.32,2.09-3.22,1.48-1.39,3.42-2.16,5.47-2.16h4.79c2.07,0,4.02.78,5.5,2.2.93.89,1.62,1.97,2.04,3.18h35.25v-1.77c0-7.45-6.04-13.49-13.49-13.49Z"/><path class="d" d="m374.55,498.87c1.55,1.37,2.46,3.12,2.66,5.06.17,1.68-.2,3.37-1.08,4.89,0,0-.01.02-.02.03l-.39.67,9.86,7.89c4.42,3.53,10.96.39,10.96-5.27v-13.4h-22.15c.05.04.1.08.15.13Z"/><path class="d" d="m373.77,512.79c-.92,1.58-2.28,2.77-3.96,3.44-.56.22-1.13.38-1.71.47v3.78c0,4.28-3.47,7.75-7.75,7.75h-32.59c-1.3,0-2.57.44-3.59,1.26l-10.47,8.37c-.2.16-.38.23-.59.23-.01,0-1.03-.04-1.03-1.01v-40.3c0-4.28,3.47-7.75,7.75-7.75h4.97c-.1-1.58.28-3.15,1.1-4.57,0,0,.01-.02.02-.03l.66-1.13h-6.54c-7.45,0-13.49,6.04-13.49,13.49v40.26c0,4.01,3.29,6.76,6.79,6.76,1.43,0,2.9-.46,4.19-1.49l10.47-8.38h32.37c7.45,0,13.49-6.04,13.49-13.49v-7.77l-.06.1Z"/><circle class="d" cx="323.41" cy="519.77" r="3.78"/><circle class="d" cx="334.98" cy="519.77" r="3.78"/><path class="d" d="m370.99,502.98l-3.67-2.39c.3-1.26.46-2.57.46-3.92s-.16-2.67-.46-3.92l3.67-2.39c1-.65,1.31-1.97.72-3l-2.27-3.93c-.6-1.03-1.89-1.42-2.95-.88l-3.91,1.98c-1.9-1.8-4.22-3.17-6.79-3.93l-.24-4.37c-.06-1.19-1.05-2.12-2.24-2.12h-4.53c-1.19,0-2.17.93-2.24,2.12l-.24,4.37c-2.58.76-4.9,2.12-6.79,3.93l-3.91-1.98c-1.06-.54-2.36-.15-2.95.88l-2.27,3.93c-.6,1.03-.28,2.35.72,3l3.67,2.39c-.3,1.26-.46,2.57-.46,3.92s.16,2.67.46,3.92l-3.67,2.39c-1,.65-1.31,1.97-.72,3l2.27,3.93c.6,1.03,1.89,1.42,2.95.88l3.91-1.98c1.9,1.8,4.22,3.17,6.79,3.93l.24,4.37c.06,1.19,1.05,2.12,2.24,2.12h4.53c1.19,0,2.17-.93,2.24-2.12l.24-4.37c2.58-.76,4.9-2.12,6.79-3.93l3.91,1.98c1.06.54,2.36.15,2.95-.88l2.27-3.93c.6-1.03.28-2.35-.72-3Zm-19.94,4.7c-6.07,0-11-4.92-11-11s4.92-11,11-11,11,4.92,11,11-4.92,11-11,11Z"/><path class="f" d="m480.63,480.62l2.24,3.82s.01.02.02.03c.87,1.51,1.24,3.19,1.07,4.87-.13,1.34-.62,2.59-1.42,3.69h20.68v-13.53h-23.38c.29.35.55.72.78,1.12Z"/><path class="h" d="m489.73,458.5h-40.49c-7.45,0-13.49,6.04-13.49,13.49v1.77h12.34c.43-1.23,1.13-2.32,2.09-3.22,1.48-1.39,3.42-2.16,5.47-2.16h4.79c2.07,0,4.02.78,5.5,2.2.93.89,1.62,1.97,2.04,3.18h35.25v-1.77c0-7.45-6.04-13.49-13.49-13.49Z"/><path class="l" d="m481.22,498.87c1.55,1.37,2.46,3.12,2.66,5.06.17,1.68-.2,3.37-1.08,4.89,0,0-.01.02-.02.03l-.39.67,9.86,7.89c4.42,3.53,10.96.39,10.96-5.27v-13.4h-22.15c.05.04.1.08.15.13Z"/><path class="f" d="m480.61,512.79c-.92,1.58-2.28,2.77-3.96,3.44-.56.22-1.13.38-1.71.47v3.78c0,4.28-3.47,7.75-7.75,7.75h-32.59c-1.3,0-2.57.44-3.59,1.26l-10.47,8.37c-.2.16-.38.23-.59.23-.01,0-1.03-.04-1.03-1.01v-40.3c0-4.28,3.47-7.75,7.75-7.75h4.97c-.1-1.58.28-3.15,1.1-4.57,0,0,.01-.02.02-.03l.66-1.13h-6.72c-7.45,0-13.49,6.04-13.49,13.49v40.26c0,4.01,3.29,6.76,6.79,6.76,1.43,0,2.9-.46,4.19-1.49l10.47-8.38h32.54c7.45,0,13.49-6.04,13.49-13.49v-7.77l-.06.1Z"/><circle class="l" cx="430.13" cy="519.77" r="3.78"/><circle class="l" cx="441.7" cy="519.77" r="3.78"/><path class="j" d="m477.71,502.98l-3.67-2.39c.3-1.26.46-2.57.46-3.92s-.16-2.67-.46-3.92l3.67-2.39c1-.65,1.31-1.97.72-3l-2.27-3.93c-.6-1.03-1.89-1.42-2.95-.88l-3.91,1.98c-1.9-1.8-4.22-3.17-6.79-3.93l-.24-4.37c-.06-1.19-1.05-2.12-2.24-2.12h-4.53c-1.19,0-2.17.93-2.24,2.12l-.24,4.37c-2.58.76-4.9,2.12-6.79,3.93l-3.91-1.98c-1.06-.54-2.36-.15-2.95.88l-2.27,3.93c-.6,1.03-.28,2.35.72,3l3.67,2.39c-.3,1.26-.46,2.57-.46,3.92s.16,2.67.46,3.92l-3.67,2.39c-1,.65-1.31,1.97-.72,3l2.27,3.93c.6,1.03,1.89,1.42,2.95.88l3.91-1.98c1.9,1.8,4.22,3.17,6.79,3.93l.24,4.37c.06,1.19,1.05,2.12,2.24,2.12h4.53c1.19,0,2.17-.93,2.24-2.12l.24-4.37c2.58-.76,4.9-2.12,6.79-3.93l3.91,1.98c1.06.54,2.36.15,2.95-.88l2.27-3.93c.6-1.03.28-2.35-.72-3Zm-19.94,4.7c-6.07,0-11-4.92-11-11s4.92-11,11-11,11,4.92,11,11-4.92,11-11,11Z"/><path class="d" d="m356.64,84.69l5.69,9.72s.03.05.04.07c2.21,3.83,3.16,8.11,2.73,12.38-.34,3.42-1.57,6.6-3.61,9.4h52.62v-34.42h-59.47c.73.89,1.4,1.84,1.99,2.86Z"/><path class="c" d="m379.79,28.43h-103.01c-18.96,0-34.33,15.37-34.33,34.33v4.51h31.4c1.09-3.12,2.88-5.9,5.31-8.19,3.76-3.54,8.7-5.49,13.92-5.49h12.19c5.27,0,10.24,1.99,13.99,5.59,2.36,2.27,4.11,5.02,5.18,8.09h89.68v-4.51c0-18.96-15.37-34.33-34.33-34.33Z"/><path class="i" d="m358.14,131.13c3.93,3.49,6.27,7.95,6.76,12.88.43,4.28-.52,8.58-2.74,12.43-.01.02-.03.05-.04.07l-.99,1.7,25.09,20.08c11.24,8.99,27.89.99,27.89-13.4v-34.09h-56.35c.13.11.26.21.38.32Z"/><path class="g" d="m356.6,166.55c-2.33,4.02-5.81,7.05-10.07,8.76-1.42.57-2.87.97-4.35,1.19v9.18c0,10.88-8.82,19.71-19.71,19.71h-82.93c-3.32,0-6.54,1.13-9.13,3.2l-26.63,21.29c-.51.41-.98.59-1.51.59-.03,0-2.63-.11-2.63-2.57v-102.1c0-10.88,8.82-19.71,19.71-19.71h12.63c-.25-4.02.71-8.02,2.79-11.63.01-.02.03-.05.04-.07l1.68-2.86h-17.09c-18.96,0-34.33,15.37-34.33,34.33v102.44c0,10.21,8.38,17.21,17.27,17.21,3.65,0,7.38-1.18,10.65-3.8l26.63-21.31h82.79c18.96,0,34.33-15.37,34.33-34.33v-19.77l-.15.25Z"/><circle class="g" cx="228.24" cy="184.19" r="9.61"/><circle class="g" cx="257.68" cy="184.19" r="9.61"/><path class="e" d="m349.29,141.59l-9.34-6.08c.77-3.2,1.18-6.55,1.18-9.98s-.41-6.78-1.18-9.98l9.34-6.08c2.54-1.65,3.34-5,1.82-7.62l-5.77-9.99c-1.51-2.62-4.81-3.6-7.51-2.23l-9.94,5.05c-4.83-4.59-10.73-8.06-17.29-9.99l-.6-11.13c-.16-3.02-2.66-5.39-5.69-5.39h-11.53c-3.03,0-5.53,2.37-5.69,5.39l-.6,11.13c-6.56,1.93-12.46,5.4-17.29,9.99l-9.94-5.05c-2.7-1.37-6-.39-7.51,2.23l-5.77,9.99c-1.51,2.62-.71,5.97,1.82,7.62l9.34,6.08c-.77,3.2-1.18,6.55-1.18,9.98s.41,6.78,1.18,9.98l-9.34,6.08c-2.54,1.65-3.34,5-1.82,7.62l5.77,9.99c1.51,2.62,4.81,3.6,7.51,2.23l9.94-5.05c4.83,4.59,10.73,8.06,17.29,9.99l.6,11.13c.16,3.02,2.66,5.39,5.69,5.39h11.53c3.03,0,5.53-2.37,5.69-5.39l.6-11.13c6.56-1.93,12.46-5.4,17.29-9.99l9.94,5.05c2.7,1.37,6,.39,7.51-2.23l5.77-9.99c1.51-2.62.71-5.97-1.82-7.62Zm-50.74,11.84c-15.45,0-27.98-12.53-27.98-27.98s12.53-27.98,27.98-27.98,27.98,12.53,27.98,27.98-12.53,27.98-27.98,27.98Z"/><path d="m109.88,284.36v-17.13h3.63v14.13h6.95v3h-10.58Z"/><path d="m135.06,277.78c0,2.13-.56,3.8-1.69,5s-2.69,1.8-4.7,1.8c-1.26,0-2.37-.28-3.33-.83s-1.7-1.34-2.21-2.37-.77-2.23-.77-3.61c0-2.14.56-3.8,1.68-4.99s2.69-1.78,4.71-1.78c1.26,0,2.37.27,3.33.82s1.7,1.33,2.21,2.36.77,2.22.77,3.6Zm-9.06,0c0,1.3.21,2.28.64,2.94s1.12,1,2.08,1,1.64-.33,2.06-.99.63-1.64.63-2.95-.21-2.27-.63-2.92-1.11-.97-2.07-.97-1.64.32-2.06.97-.63,1.62-.63,2.92Z"/><path d="m149.41,271.25v1.82l-2.05.53c.38.59.56,1.24.56,1.97,0,1.41-.49,2.5-1.47,3.29s-2.34,1.18-4.08,1.18l-.64-.04-.53-.06c-.37.28-.55.59-.55.94,0,.52.66.77,1.97.77h2.23c1.44,0,2.53.31,3.29.93s1.13,1.52,1.13,2.72c0,1.53-.64,2.72-1.92,3.56s-3.11,1.27-5.5,1.27c-1.83,0-3.22-.32-4.19-.96s-1.45-1.53-1.45-2.68c0-.79.25-1.45.74-1.98s1.21-.91,2.17-1.14c-.37-.16-.69-.41-.96-.77s-.41-.73-.41-1.13c0-.5.14-.92.43-1.25s.71-.66,1.25-.98c-.69-.3-1.23-.77-1.63-1.43s-.6-1.43-.6-2.32c0-1.43.46-2.54,1.39-3.32s2.26-1.17,3.98-1.17c.37,0,.8.03,1.31.1s.83.12.97.15h4.57Zm-10.11,14.95c0,.49.24.88.71,1.16s1.13.42,1.99.42c1.28,0,2.29-.18,3.01-.53s1.09-.83,1.09-1.44c0-.49-.21-.83-.64-1.02s-1.09-.28-1.99-.28h-1.85c-.66,0-1.21.15-1.65.46s-.66.72-.66,1.22Zm1.3-10.66c0,.71.16,1.27.49,1.69s.82.62,1.48.62,1.16-.21,1.48-.62.47-.98.47-1.69c0-1.58-.65-2.37-1.95-2.37s-1.97.79-1.97,2.37Z"/><path d="m163.48,277.78c0,2.13-.56,3.8-1.69,5s-2.69,1.8-4.7,1.8c-1.26,0-2.37-.28-3.33-.83s-1.7-1.34-2.21-2.37-.77-2.23-.77-3.61c0-2.14.56-3.8,1.68-4.99s2.69-1.78,4.71-1.78c1.26,0,2.37.27,3.33.82s1.7,1.33,2.21,2.36.77,2.22.77,3.6Zm-9.06,0c0,1.3.21,2.28.64,2.94s1.12,1,2.08,1,1.64-.33,2.06-.99.63-1.64.63-2.95-.21-2.27-.63-2.92-1.11-.97-2.07-.97-1.64.32-2.06.97-.63,1.62-.63,2.92Z"/><path d="m171.95,281.74c.62,0,1.38-.14,2.25-.41v2.66c-.89.4-1.98.6-3.28.6-1.43,0-2.47-.36-3.12-1.08s-.98-1.81-.98-3.25v-6.32h-1.71v-1.51l1.97-1.2,1.03-2.77h2.29v2.79h3.67v2.68h-3.67v6.32c0,.51.14.88.43,1.12s.66.36,1.13.36Z"/><path d="m174.97,271.25h3.91l2.47,7.37c.21.64.36,1.4.43,2.27h.07c.09-.8.25-1.56.5-2.27l2.43-7.37h3.83l-5.54,14.78c-.51,1.37-1.23,2.39-2.17,3.07s-2.04,1.02-3.3,1.02c-.62,0-1.22-.07-1.82-.2v-2.84c.43.1.9.15,1.41.15.63,0,1.19-.19,1.66-.58s.84-.97,1.11-1.75l.21-.64-5.2-13.01Z"/><path d="m197.7,284.59c-1.54,0-2.75-.56-3.62-1.68h-.19c.12,1.09.19,1.73.19,1.9v5.31h-3.57v-18.87h2.91l.5,1.7h.16c.84-1.3,2.07-1.95,3.71-1.95,1.55,0,2.76.6,3.63,1.79s1.31,2.86,1.31,4.98c0,1.4-.21,2.61-.62,3.64s-.99,1.82-1.75,2.36-1.65.81-2.67.81Zm-1.05-10.72c-.88,0-1.53.27-1.93.81s-.62,1.44-.63,2.69v.39c0,1.41.21,2.41.63,3.02s1.08.91,1.99.91c1.6,0,2.4-1.32,2.4-3.96,0-1.29-.2-2.26-.59-2.9s-1.01-.97-1.86-.97Z"/><path d="m211.62,284.59c-2.11,0-3.76-.58-4.95-1.75s-1.78-2.81-1.78-4.95.55-3.89,1.65-5.09,2.62-1.8,4.55-1.8,3.29.53,4.32,1.58,1.55,2.51,1.55,4.37v1.73h-8.45c.04,1.02.34,1.81.9,2.38s1.35.86,2.37.86c.79,0,1.54-.08,2.24-.25s1.44-.43,2.2-.79v2.77c-.62.31-1.29.54-2,.7s-1.58.23-2.6.23Zm-.5-11.04c-.76,0-1.35.24-1.78.72s-.68,1.16-.74,2.04h5.02c-.02-.88-.25-1.56-.69-2.04s-1.05-.72-1.8-.72Z"/><path d="m234.02,267.22l-6.39,17.13h-3.25l6.39-17.13h3.25Z"/><path d="m252.64,279.6c0,1.55-.56,2.77-1.67,3.66s-2.66,1.34-4.65,1.34c-1.83,0-3.45-.34-4.85-1.03v-3.38c1.16.52,2.13.88,2.94,1.09s1.53.32,2.2.32c.8,0,1.41-.15,1.83-.46s.64-.76.64-1.36c0-.34-.09-.63-.28-.9s-.46-.51-.83-.76-1.1-.63-2.22-1.16c-1.05-.49-1.83-.96-2.36-1.42s-.94-.98-1.25-1.58-.47-1.3-.47-2.11c0-1.52.51-2.71,1.54-3.57s2.45-1.3,4.26-1.3c.89,0,1.74.11,2.55.32s1.65.51,2.54.89l-1.17,2.82c-.91-.38-1.67-.64-2.27-.79s-1.19-.22-1.76-.22c-.69,0-1.21.16-1.58.48s-.55.74-.55,1.25c0,.32.07.6.22.84s.38.47.71.69,1.09.62,2.3,1.2c1.6.77,2.7,1.53,3.29,2.3s.89,1.71.89,2.83Z"/><path d="m253.59,271.25h3.91l2.47,7.37c.21.64.36,1.4.43,2.27h.07c.09-.8.25-1.56.5-2.27l2.43-7.37h3.83l-5.54,14.78c-.51,1.37-1.23,2.39-2.17,3.07s-2.04,1.02-3.3,1.02c-.62,0-1.22-.07-1.82-.2v-2.84c.43.1.9.15,1.41.15.63,0,1.19-.19,1.66-.58s.84-.97,1.11-1.75l.21-.64-5.2-13.01Z"/><path d="m280.85,284.36h-3.57v-7.65c0-.95-.16-1.65-.47-2.13s-.81-.71-1.49-.71c-.91,0-1.58.34-1.99,1.01s-.62,1.78-.62,3.32v6.16h-3.57v-13.1h2.73l.48,1.68h.2c.35-.6.86-1.07,1.52-1.41s1.43-.51,2.29-.51c1.96,0,3.29.64,3.98,1.92h.32c.35-.61.87-1.08,1.55-1.42s1.46-.5,2.31-.5c1.48,0,2.61.38,3.37,1.14s1.14,1.98,1.14,3.66v8.54h-3.59v-7.65c0-.95-.16-1.65-.47-2.13s-.81-.71-1.49-.71c-.88,0-1.53.31-1.96.94s-.65,1.62-.65,2.98v6.57Z"/><path d="m299.98,271.01c1.55,0,2.76.6,3.63,1.81s1.31,2.86,1.31,4.96-.45,3.84-1.35,5.03-2.13,1.78-3.69,1.78-2.75-.56-3.62-1.68h-.25l-.6,1.44h-2.73v-18.23h3.57v4.24c0,.54-.05,1.4-.14,2.59h.14c.84-1.3,2.07-1.95,3.71-1.95Zm-1.15,2.86c-.88,0-1.53.27-1.93.81s-.62,1.44-.63,2.69v.39c0,1.41.21,2.41.63,3.02s1.08.91,1.99.91c.73,0,1.32-.34,1.75-1.01s.65-1.66.65-2.95-.22-2.26-.66-2.9-1.04-.97-1.79-.97Z"/><path d="m319.78,277.78c0,2.13-.56,3.8-1.69,5s-2.69,1.8-4.7,1.8c-1.26,0-2.37-.28-3.33-.83s-1.7-1.34-2.21-2.37-.77-2.23-.77-3.61c0-2.14.56-3.8,1.68-4.99s2.69-1.78,4.71-1.78c1.26,0,2.37.27,3.33.82s1.7,1.33,2.21,2.36.77,2.22.77,3.6Zm-9.06,0c0,1.3.21,2.28.64,2.94s1.12,1,2.08,1,1.64-.33,2.06-.99.63-1.64.63-2.95-.21-2.27-.63-2.92-1.11-.97-2.07-.97-1.64.32-2.06.97-.63,1.62-.63,2.92Z"/><path d="m326.31,284.36h-3.57v-18.23h3.57v18.23Z"/><path d="m344.21,267.22l-6.39,17.13h-3.25l6.39-17.13h3.25Z"/><path d="m352.72,284.36v-17.13h3.63v17.13h-3.63Z"/><path d="m365.71,284.59c-4.08,0-6.12-2.24-6.12-6.71,0-2.23.55-3.93,1.66-5.1s2.7-1.76,4.77-1.76c1.52,0,2.88.3,4.08.89l-1.05,2.77c-.56-.23-1.09-.41-1.57-.56s-.97-.22-1.45-.22c-1.86,0-2.79,1.32-2.79,3.96s.93,3.84,2.79,3.84c.69,0,1.32-.09,1.91-.28s1.17-.47,1.76-.86v3.06c-.58.37-1.16.62-1.75.76s-1.33.21-2.23.21Z"/><path d="m384.63,277.78c0,2.13-.56,3.8-1.69,5s-2.69,1.8-4.7,1.8c-1.26,0-2.37-.28-3.33-.83s-1.7-1.34-2.21-2.37-.77-2.23-.77-3.61c0-2.14.56-3.8,1.68-4.99s2.69-1.78,4.71-1.78c1.26,0,2.37.27,3.33.82s1.7,1.33,2.21,2.36.77,2.22.77,3.6Zm-9.06,0c0,1.3.21,2.28.64,2.94s1.12,1,2.08,1,1.64-.33,2.06-.99.63-1.64.63-2.95-.21-2.27-.63-2.92-1.11-.97-2.07-.97-1.64.32-2.06.97-.63,1.62-.63,2.92Z"/><path d="m399.68,284.36h-3.57v-7.65c0-.95-.17-1.65-.5-2.13s-.87-.71-1.61-.71c-1,0-1.72.33-2.17,1s-.67,1.78-.67,3.32v6.16h-3.57v-13.1h2.73l.48,1.68h.2c.4-.63.95-1.11,1.65-1.44s1.49-.49,2.38-.49c1.52,0,2.68.41,3.47,1.24s1.18,2.01,1.18,3.57v8.54Z"/><path d="m416.84,273.94h-3.09v10.42h-3.57v-10.42h-1.97v-1.72l1.97-.96v-.96c0-1.49.37-2.58,1.1-3.27s1.91-1.03,3.53-1.03c1.23,0,2.33.18,3.29.55l-.91,2.62c-.72-.23-1.38-.34-1.99-.34-.51,0-.88.15-1.1.45s-.34.69-.34,1.15v.82h3.09v2.68Z"/><path d="m430.79,277.78c0,2.13-.56,3.8-1.69,5s-2.69,1.8-4.7,1.8c-1.26,0-2.37-.28-3.33-.83s-1.7-1.34-2.21-2.37-.77-2.23-.77-3.61c0-2.14.56-3.8,1.68-4.99s2.69-1.78,4.71-1.78c1.26,0,2.37.27,3.33.82s1.7,1.33,2.21,2.36.77,2.22.77,3.6Zm-9.06,0c0,1.3.21,2.28.64,2.94s1.12,1,2.08,1,1.64-.33,2.06-.99.63-1.64.63-2.95-.21-2.27-.63-2.92-1.11-.97-2.07-.97-1.64.32-2.06.97-.63,1.62-.63,2.92Z"/><path d="m441.06,271.01c.48,0,.89.04,1.21.11l-.27,3.35c-.29-.08-.64-.12-1.05-.12-1.14,0-2.03.29-2.67.88s-.96,1.41-.96,2.46v6.67h-3.57v-13.1h2.71l.53,2.2h.18c.41-.73.96-1.33,1.65-1.78s1.44-.67,2.26-.67Z"/><path d="m456.4,281.74c.62,0,1.38-.14,2.25-.41v2.66c-.89.4-1.98.6-3.28.6-1.43,0-2.47-.36-3.12-1.08s-.98-1.81-.98-3.25v-6.32h-1.71v-1.51l1.97-1.2,1.03-2.77h2.29v2.79h3.67v2.68h-3.67v6.32c0,.51.14.88.43,1.12s.66.36,1.13.36Z"/><path d="m473.39,284.36h-3.57v-7.65c0-1.89-.7-2.84-2.11-2.84-1,0-1.72.34-2.17,1.02s-.67,1.78-.67,3.3v6.16h-3.57v-18.23h3.57v3.71c0,.29-.03.97-.08,2.04l-.08,1.05h.19c.8-1.28,2.06-1.92,3.8-1.92,1.54,0,2.71.41,3.5,1.24s1.2,2.02,1.2,3.56v8.54Z"/><path d="m483,284.59c-2.11,0-3.76-.58-4.95-1.75s-1.78-2.81-1.78-4.95.55-3.89,1.65-5.09,2.62-1.8,4.55-1.8,3.29.53,4.32,1.58,1.55,2.51,1.55,4.37v1.73h-8.45c.04,1.02.34,1.81.9,2.38s1.35.86,2.37.86c.79,0,1.54-.08,2.24-.25s1.44-.43,2.2-.79v2.77c-.62.31-1.29.54-2,.7s-1.58.23-2.6.23Zm-.5-11.04c-.76,0-1.35.24-1.78.72s-.68,1.16-.74,2.04h5.02c-.02-.88-.25-1.56-.69-2.04s-1.05-.72-1.8-.72Z"/><path d="m106.77,301.37c0,1.84-.58,3.25-1.73,4.23s-2.79,1.46-4.92,1.46h-1.56v6.09h-3.63v-17.13h5.47c2.08,0,3.66.45,4.74,1.34s1.62,2.23,1.62,4Zm-8.2,2.72h1.2c1.12,0,1.95-.22,2.51-.66s.83-1.08.83-1.93-.23-1.48-.7-1.89-1.19-.61-2.19-.61h-1.65v5.09Z"/><path d="m117.04,299.81c.48,0,.89.04,1.21.11l-.27,3.35c-.29-.08-.64-.12-1.05-.12-1.14,0-2.03.29-2.67.88s-.96,1.41-.96,2.46v6.67h-3.57v-13.1h2.71l.53,2.2h.18c.41-.73.96-1.33,1.65-1.78s1.44-.67,2.26-.67Z"/><path d="m132.53,306.58c0,2.13-.56,3.8-1.69,5s-2.69,1.8-4.7,1.8c-1.26,0-2.37-.28-3.33-.83s-1.7-1.34-2.21-2.37-.77-2.23-.77-3.61c0-2.14.56-3.8,1.68-4.99s2.69-1.78,4.71-1.78c1.26,0,2.37.27,3.33.82s1.7,1.33,2.21,2.36.77,2.22.77,3.6Zm-9.06,0c0,1.3.21,2.28.64,2.94s1.12,1,2.08,1,1.64-.33,2.06-.99.63-1.64.63-2.95-.21-2.27-.63-2.92-1.11-.97-2.07-.97-1.64.32-2.06.97-.63,1.62-.63,2.92Z"/><path d="m147.21,313.16h-3.57v-7.65c0-.95-.16-1.65-.47-2.13s-.81-.71-1.49-.71c-.91,0-1.58.34-1.99,1.01s-.62,1.78-.62,3.32v6.16h-3.57v-13.1h2.73l.48,1.68h.2c.35-.6.86-1.07,1.52-1.41s1.43-.51,2.29-.51c1.96,0,3.29.64,3.98,1.92h.32c.35-.61.87-1.08,1.55-1.42s1.46-.5,2.31-.5c1.48,0,2.61.38,3.37,1.14s1.14,1.98,1.14,3.66v8.54h-3.59v-7.65c0-.95-.16-1.65-.47-2.13s-.81-.71-1.49-.71c-.88,0-1.53.31-1.96.94s-.65,1.62-.65,2.98v6.57Z"/><path d="m166.24,313.39c-1.54,0-2.75-.56-3.62-1.68h-.19c.12,1.09.19,1.73.19,1.9v5.31h-3.57v-18.87h2.91l.5,1.7h.16c.84-1.3,2.07-1.95,3.71-1.95,1.55,0,2.76.6,3.63,1.79s1.31,2.86,1.31,4.98c0,1.4-.21,2.61-.62,3.64s-.99,1.82-1.75,2.36-1.65.81-2.67.81Zm-1.05-10.72c-.88,0-1.53.27-1.93.81s-.62,1.44-.63,2.69v.39c0,1.41.21,2.41.63,3.02s1.08.91,1.99.91c1.6,0,2.4-1.32,2.4-3.96,0-1.29-.2-2.26-.59-2.9s-1.01-.97-1.86-.97Z"/><path d="m179.75,310.54c.62,0,1.38-.14,2.25-.41v2.66c-.89.4-1.98.6-3.28.6-1.43,0-2.47-.36-3.12-1.08s-.98-1.81-.98-3.25v-6.32h-1.71v-1.51l1.97-1.2,1.03-2.77h2.29v2.79h3.67v2.68h-3.67v6.32c0,.51.14.88.43,1.12s.66.36,1.13.36Z"/><path d="m201.04,313.16h-9.87v-17.13h9.87v2.98h-6.23v3.76h5.8v2.98h-5.8v4.42h6.23v3Z"/><path d="m216.42,313.16h-3.57v-7.65c0-.95-.17-1.65-.5-2.13s-.87-.71-1.61-.71c-1,0-1.72.33-2.17,1s-.67,1.78-.67,3.32v6.16h-3.57v-13.1h2.73l.48,1.68h.2c.4-.63.95-1.11,1.65-1.44s1.49-.49,2.38-.49c1.52,0,2.68.41,3.47,1.24s1.18,2.01,1.18,3.57v8.54Z"/><path d="m231.5,300.05v1.82l-2.05.53c.38.59.56,1.24.56,1.97,0,1.41-.49,2.5-1.47,3.29s-2.34,1.18-4.08,1.18l-.64-.04-.53-.06c-.37.28-.55.59-.55.94,0,.52.66.77,1.97.77h2.23c1.44,0,2.53.31,3.29.93s1.13,1.52,1.13,2.72c0,1.53-.64,2.72-1.92,3.56s-3.11,1.27-5.5,1.27c-1.83,0-3.22-.32-4.19-.96s-1.45-1.53-1.45-2.68c0-.79.25-1.45.74-1.98s1.21-.91,2.17-1.14c-.37-.16-.69-.41-.96-.77s-.41-.73-.41-1.13c0-.5.14-.92.43-1.25s.71-.66,1.25-.98c-.69-.3-1.23-.77-1.63-1.43s-.6-1.43-.6-2.32c0-1.43.46-2.54,1.39-3.32s2.26-1.17,3.98-1.17c.37,0,.8.03,1.31.1s.83.12.97.15h4.57Zm-10.11,14.95c0,.49.24.88.71,1.16s1.13.42,1.99.42c1.28,0,2.29-.18,3.01-.53s1.09-.83,1.09-1.44c0-.49-.21-.83-.64-1.02s-1.09-.28-1.99-.28h-1.85c-.66,0-1.21.15-1.65.46s-.66.72-.66,1.22Zm1.3-10.66c0,.71.16,1.27.49,1.69s.82.62,1.48.62,1.16-.21,1.48-.62.47-.98.47-1.69c0-1.58-.65-2.37-1.95-2.37s-1.97.79-1.97,2.37Z"/><path d="m233.51,296.67c0-1.16.65-1.75,1.95-1.75s1.95.58,1.95,1.75c0,.55-.16.99-.49,1.29s-.81.46-1.46.46c-1.3,0-1.95-.59-1.95-1.76Zm3.73,16.49h-3.57v-13.1h3.57v13.1Z"/><path d="m253.08,313.16h-3.57v-7.65c0-.95-.17-1.65-.5-2.13s-.87-.71-1.61-.71c-1,0-1.72.33-2.17,1s-.67,1.78-.67,3.32v6.16h-3.57v-13.1h2.73l.48,1.68h.2c.4-.63.95-1.11,1.65-1.44s1.49-.49,2.38-.49c1.52,0,2.68.41,3.47,1.24s1.18,2.01,1.18,3.57v8.54Z"/><path d="m262.69,313.39c-2.11,0-3.76-.58-4.95-1.75s-1.78-2.81-1.78-4.95.55-3.89,1.65-5.09,2.62-1.8,4.55-1.8,3.29.53,4.32,1.58,1.55,2.51,1.55,4.37v1.73h-8.45c.04,1.02.34,1.81.9,2.38s1.35.86,2.37.86c.79,0,1.54-.08,2.24-.25s1.44-.43,2.2-.79v2.77c-.62.31-1.29.54-2,.7s-1.58.23-2.6.23Zm-.5-11.04c-.76,0-1.35.24-1.78.72s-.68,1.16-.74,2.04h5.02c-.02-.88-.25-1.56-.69-2.04s-1.05-.72-1.8-.72Z"/><path d="m276.87,313.39c-2.11,0-3.76-.58-4.95-1.75s-1.78-2.81-1.78-4.95.55-3.89,1.65-5.09,2.62-1.8,4.55-1.8,3.29.53,4.32,1.58,1.55,2.51,1.55,4.37v1.73h-8.45c.04,1.02.34,1.81.9,2.38s1.35.86,2.37.86c.79,0,1.54-.08,2.24-.25s1.44-.43,2.2-.79v2.77c-.62.31-1.29.54-2,.7s-1.58.23-2.6.23Zm-.5-11.04c-.76,0-1.35.24-1.78.72s-.68,1.16-.74,2.04h5.02c-.02-.88-.25-1.56-.69-2.04s-1.05-.72-1.8-.72Z"/><path d="m292.43,299.81c.48,0,.89.04,1.21.11l-.27,3.35c-.29-.08-.64-.12-1.05-.12-1.14,0-2.03.29-2.67.88s-.96,1.41-.96,2.46v6.67h-3.57v-13.1h2.71l.53,2.2h.18c.41-.73.96-1.33,1.65-1.78s1.44-.67,2.26-.67Z"/><path d="m295.86,296.67c0-1.16.65-1.75,1.95-1.75s1.95.58,1.95,1.75c0,.55-.16.99-.49,1.29s-.81.46-1.46.46c-1.3,0-1.95-.59-1.95-1.76Zm3.73,16.49h-3.57v-13.1h3.57v13.1Z"/><path d="m315.43,313.16h-3.57v-7.65c0-.95-.17-1.65-.5-2.13s-.87-.71-1.61-.71c-1,0-1.72.33-2.17,1s-.67,1.78-.67,3.32v6.16h-3.57v-13.1h2.73l.48,1.68h.2c.4-.63.95-1.11,1.65-1.44s1.49-.49,2.38-.49c1.52,0,2.68.41,3.47,1.24s1.18,2.01,1.18,3.57v8.54Z"/><path d="m330.52,300.05v1.82l-2.05.53c.38.59.56,1.24.56,1.97,0,1.41-.49,2.5-1.47,3.29s-2.34,1.18-4.08,1.18l-.64-.04-.53-.06c-.37.28-.55.59-.55.94,0,.52.66.77,1.97.77h2.23c1.44,0,2.53.31,3.29.93s1.13,1.52,1.13,2.72c0,1.53-.64,2.72-1.92,3.56s-3.11,1.27-5.5,1.27c-1.83,0-3.22-.32-4.19-.96s-1.45-1.53-1.45-2.68c0-.79.25-1.45.74-1.98s1.21-.91,2.17-1.14c-.37-.16-.69-.41-.96-.77s-.41-.73-.41-1.13c0-.5.14-.92.43-1.25s.71-.66,1.25-.98c-.69-.3-1.23-.77-1.63-1.43s-.6-1.43-.6-2.32c0-1.43.46-2.54,1.39-3.32s2.26-1.17,3.98-1.17c.37,0,.8.03,1.31.1s.83.12.97.15h4.57Zm-10.11,14.95c0,.49.24.88.71,1.16s1.13.42,1.99.42c1.28,0,2.29-.18,3.01-.53s1.09-.83,1.09-1.44c0-.49-.21-.83-.64-1.02s-1.09-.28-1.99-.28h-1.85c-.66,0-1.21.15-1.65.46s-.66.72-.66,1.22Zm1.3-10.66c0,.71.16,1.27.49,1.69s.82.62,1.48.62,1.16-.21,1.48-.62.47-.98.47-1.69c0-1.58-.65-2.37-1.95-2.37s-1.97.79-1.97,2.37Z"/><path d="m347.23,313.16l-.69-1.78h-.09c-.6.76-1.22,1.28-1.86,1.58s-1.47.44-2.49.44c-1.26,0-2.25-.36-2.97-1.08s-1.08-1.74-1.08-3.07.49-2.42,1.46-3.08,2.44-1.03,4.4-1.1l2.27-.07v-.57c0-1.33-.68-1.99-2.04-1.99-1.05,0-2.28.32-3.69.95l-1.18-2.41c1.51-.79,3.18-1.18,5.02-1.18s3.11.38,4.04,1.15,1.41,1.93,1.41,3.49v8.73h-2.5Zm-1.05-6.07l-1.38.05c-1.04.03-1.81.22-2.32.56s-.76.87-.76,1.57c0,1.01.58,1.51,1.73,1.51.83,0,1.49-.24,1.99-.71s.74-1.11.74-1.9v-1.08Z"/><path d="m362.54,309.26c0,1.34-.47,2.37-1.4,3.07s-2.33,1.05-4.19,1.05c-.95,0-1.77-.06-2.44-.19s-1.3-.32-1.89-.57v-2.95c.66.31,1.41.57,2.24.79s1.56.32,2.2.32c1.3,0,1.95-.38,1.95-1.12,0-.28-.09-.51-.26-.69s-.47-.38-.89-.6-.98-.48-1.69-.78c-1.01-.42-1.75-.81-2.22-1.17s-.82-.77-1.03-1.24-.32-1.04-.32-1.72c0-1.16.45-2.06,1.35-2.7s2.18-.96,3.84-.96,3.11.34,4.61,1.03l-1.08,2.58c-.66-.28-1.27-.51-1.84-.69s-1.15-.27-1.75-.27c-1.05,0-1.58.29-1.58.86,0,.32.17.6.51.83s1.08.58,2.23,1.04c1.02.41,1.77.8,2.25,1.16s.83.77,1.05,1.24.34,1.03.34,1.68Z"/><path d="m379.89,313.16l-.69-1.78h-.09c-.6.76-1.22,1.28-1.86,1.58s-1.47.44-2.49.44c-1.26,0-2.25-.36-2.97-1.08s-1.08-1.74-1.08-3.07.49-2.42,1.46-3.08,2.44-1.03,4.4-1.1l2.27-.07v-.57c0-1.33-.68-1.99-2.04-1.99-1.05,0-2.28.32-3.69.95l-1.18-2.41c1.51-.79,3.18-1.18,5.02-1.18s3.11.38,4.04,1.15,1.41,1.93,1.41,3.49v8.73h-2.5Zm-1.05-6.07l-1.38.05c-1.04.03-1.81.22-2.32.56s-.76.87-.76,1.57c0,1.01.58,1.51,1.73,1.51.83,0,1.49-.24,1.99-.71s.74-1.11.74-1.9v-1.08Z"/><path d="m396.45,313.39c-1.54,0-2.75-.6-3.63-1.79s-1.32-2.85-1.32-4.97.45-3.82,1.34-5.02,2.13-1.8,3.7-1.8c1.65,0,2.91.64,3.77,1.92h.12c-.18-.98-.27-1.85-.27-2.61v-4.19h3.59v18.23h-2.74l-.69-1.7h-.15c-.81,1.29-2.05,1.93-3.71,1.93Zm1.25-2.85c.91,0,1.58-.27,2.01-.8s.66-1.43.7-2.71v-.39c0-1.41-.22-2.41-.65-3.02s-1.14-.91-2.12-.91c-.8,0-1.42.34-1.86,1.01s-.66,1.66-.66,2.95.22,2.26.67,2.9,1.08.97,1.91.97Z"/><path d="m407.33,296.67c0-1.16.65-1.75,1.95-1.75s1.95.58,1.95,1.75c0,.55-.16.99-.49,1.29s-.81.46-1.46.46c-1.3,0-1.95-.59-1.95-1.76Zm3.73,16.49h-3.57v-13.1h3.57v13.1Z"/><path d="m423.95,309.26c0,1.34-.47,2.37-1.4,3.07s-2.33,1.05-4.19,1.05c-.95,0-1.77-.06-2.44-.19s-1.3-.32-1.89-.57v-2.95c.66.31,1.41.57,2.24.79s1.56.32,2.2.32c1.3,0,1.95-.38,1.95-1.12,0-.28-.09-.51-.26-.69s-.47-.38-.89-.6-.98-.48-1.69-.78c-1.01-.42-1.75-.81-2.22-1.17s-.82-.77-1.03-1.24-.32-1.04-.32-1.72c0-1.16.45-2.06,1.35-2.7s2.18-.96,3.84-.96,3.11.34,4.61,1.03l-1.08,2.58c-.66-.28-1.27-.51-1.84-.69s-1.15-.27-1.75-.27c-1.05,0-1.58.29-1.58.86,0,.32.17.6.51.83s1.08.58,2.23,1.04c1.02.41,1.77.8,2.25,1.16s.83.77,1.05,1.24.34,1.03.34,1.68Z"/><path d="m432.06,313.39c-4.08,0-6.12-2.24-6.12-6.71,0-2.23.55-3.93,1.66-5.1s2.7-1.76,4.77-1.76c1.52,0,2.88.3,4.08.89l-1.05,2.77c-.56-.23-1.09-.41-1.57-.56s-.97-.22-1.45-.22c-1.86,0-2.79,1.32-2.79,3.96s.93,3.84,2.79,3.84c.69,0,1.32-.09,1.91-.28s1.17-.47,1.76-.86v3.06c-.58.37-1.16.62-1.75.76s-1.33.21-2.23.21Z"/><path d="m438.93,296.67c0-1.16.65-1.75,1.95-1.75s1.95.58,1.95,1.75c0,.55-.16.99-.49,1.29s-.81.46-1.46.46c-1.3,0-1.95-.59-1.95-1.76Zm3.73,16.49h-3.57v-13.1h3.57v13.1Z"/><path d="m453.6,313.39c-1.54,0-2.75-.56-3.62-1.68h-.19c.12,1.09.19,1.73.19,1.9v5.31h-3.57v-18.87h2.91l.5,1.7h.16c.84-1.3,2.07-1.95,3.71-1.95,1.55,0,2.76.6,3.63,1.79s1.31,2.86,1.31,4.98c0,1.4-.21,2.61-.62,3.64s-.99,1.82-1.75,2.36-1.65.81-2.67.81Zm-1.05-10.72c-.88,0-1.53.27-1.93.81s-.62,1.44-.63,2.69v.39c0,1.41.21,2.41.63,3.02s1.08.91,1.99.91c1.6,0,2.4-1.32,2.4-3.96,0-1.29-.2-2.26-.59-2.9s-1.01-.97-1.86-.97Z"/><path d="m465.16,313.16h-3.57v-18.23h3.57v18.23Z"/><path d="m468.76,296.67c0-1.16.65-1.75,1.95-1.75s1.95.58,1.95,1.75c0,.55-.16.99-.49,1.29s-.81.46-1.46.46c-1.3,0-1.95-.59-1.95-1.76Zm3.73,16.49h-3.57v-13.1h3.57v13.1Z"/><path d="m488.33,313.16h-3.57v-7.65c0-.95-.17-1.65-.5-2.13s-.87-.71-1.61-.71c-1,0-1.72.33-2.17,1s-.67,1.78-.67,3.32v6.16h-3.57v-13.1h2.73l.48,1.68h.2c.4-.63.95-1.11,1.65-1.44s1.49-.49,2.38-.49c1.52,0,2.68.41,3.47,1.24s1.18,2.01,1.18,3.57v8.54Z"/><path d="m497.94,313.39c-2.11,0-3.76-.58-4.95-1.75s-1.78-2.81-1.78-4.95.55-3.89,1.65-5.09,2.62-1.8,4.55-1.8,3.29.53,4.32,1.58,1.55,2.51,1.55,4.37v1.73h-8.45c.04,1.02.34,1.81.9,2.38s1.35.86,2.37.86c.79,0,1.54-.08,2.24-.25s1.44-.43,2.2-.79v2.77c-.62.31-1.29.54-2,.7s-1.58.23-2.6.23Zm-.5-11.04c-.76,0-1.35.24-1.78.72s-.68,1.16-.74,2.04h5.02c-.02-.88-.25-1.56-.69-2.04s-1.05-.72-1.8-.72Z"/><path class="d" d="m66,570.03c0,.87-.3,1.53-.89,2s-1.44.7-2.54.7h-1.01v3.37h-1v-8.57h2.22c2.14,0,3.21.83,3.21,2.5Zm-4.44,1.85h.9c.88,0,1.52-.14,1.92-.43s.59-.74.59-1.37c0-.57-.19-.99-.56-1.27s-.95-.42-1.73-.42h-1.11v3.48Z"/><path class="d" d="m74.48,576.1h-1.14l-4.68-7.19h-.05c.06.84.09,1.62.09,2.32v4.87h-.92v-8.57h1.12l4.67,7.16h.05c0-.11-.03-.44-.05-1.02s-.04-.98-.03-1.23v-4.92h.93v8.57Z"/><path class="d" d="m80.61,571.61h2.91v4.17c-.45.14-.91.25-1.38.33s-1.01.11-1.63.11c-1.3,0-2.31-.39-3.03-1.16s-1.08-1.85-1.08-3.24c0-.89.18-1.67.54-2.34s.87-1.18,1.54-1.54,1.46-.53,2.36-.53,1.77.17,2.55.5l-.39.88c-.77-.33-1.52-.49-2.23-.49-1.04,0-1.86.31-2.44.93s-.88,1.48-.88,2.58c0,1.16.28,2.03.85,2.63s1.39.9,2.49.9c.59,0,1.17-.07,1.74-.21v-2.64h-1.92v-.89Z"/><path class="d" d="m86.45,574.71l.09.13c-.1.39-.25.84-.44,1.36s-.39,1-.6,1.44h-.73c.11-.41.22-.91.35-1.51s.22-1.08.27-1.44h1.07Z"/><path class="d" d="m96.47,573.82c0,.75-.27,1.34-.82,1.76s-1.29.63-2.23.63c-1.02,0-1.8-.13-2.34-.39v-.96c.35.15.73.27,1.15.35s.82.13,1.23.13c.66,0,1.16-.13,1.5-.38s.5-.6.5-1.05c0-.3-.06-.54-.18-.73s-.32-.36-.6-.52-.7-.34-1.27-.54c-.8-.29-1.37-.62-1.71-1.01s-.51-.9-.51-1.53c0-.66.25-1.19.74-1.58s1.15-.59,1.97-.59,1.63.16,2.35.47l-.31.87c-.71-.3-1.39-.45-2.06-.45-.53,0-.94.11-1.24.34s-.45.54-.45.94c0,.3.05.54.16.73s.29.36.55.52.66.33,1.19.52c.9.32,1.52.66,1.85,1.03s.51.84.51,1.43Z"/><path class="d" d="m103.11,567.53h1.07l-3.09,8.57h-.98l-3.07-8.57h1.05l1.97,5.54c.23.64.41,1.26.54,1.86.14-.63.32-1.26.55-1.89l1.96-5.51Z"/><path class="d" d="m109.13,571.61h2.91v4.17c-.45.14-.91.25-1.38.33s-1.01.11-1.63.11c-1.3,0-2.31-.39-3.03-1.16s-1.08-1.85-1.08-3.24c0-.89.18-1.67.54-2.34s.87-1.18,1.54-1.54,1.46-.53,2.36-.53,1.77.17,2.55.5l-.39.88c-.77-.33-1.52-.49-2.23-.49-1.04,0-1.86.31-2.44.93s-.88,1.48-.88,2.58c0,1.16.28,2.03.85,2.63s1.39.9,2.49.9c.59,0,1.17-.07,1.74-.21v-2.64h-1.92v-.89Z"/><path class="d" d="m114.97,574.71l.09.13c-.1.39-.25.84-.44,1.36s-.39,1-.6,1.44h-.73c.11-.41.22-.91.35-1.51s.22-1.08.27-1.44h1.07Z"/><path class="d" d="m125.54,576.1l-1.07-2.72h-3.43l-1.05,2.72h-1.01l3.39-8.6h.84l3.37,8.6h-1.03Zm-1.38-3.62l-1-2.65c-.13-.34-.26-.75-.4-1.24-.09.38-.21.79-.37,1.24l-1.01,2.65h2.77Z"/><path class="d" d="m127.75,576.1v-8.57h1v8.57h-1Z"/><path class="d" d="m131.97,574.71l.09.13c-.1.39-.25.84-.44,1.36s-.39,1-.6,1.44h-.73c.11-.41.22-.91.35-1.51s.22-1.08.27-1.44h1.07Z"/><path class="d" d="m142.59,570.03c0,.87-.3,1.53-.89,2s-1.44.7-2.54.7h-1.01v3.37h-1v-8.57h2.22c2.14,0,3.21.83,3.21,2.5Zm-4.44,1.85h.9c.88,0,1.52-.14,1.92-.43s.59-.74.59-1.37c0-.57-.19-.99-.56-1.27s-.95-.42-1.73-.42h-1.11v3.48Z"/><path class="d" d="m151.22,571.73c0,1.41-.38,2.5-1.15,3.24s-1.87,1.12-3.31,1.12h-2.37v-8.57h2.62c1.33,0,2.37.37,3.11,1.11s1.11,1.77,1.11,3.09Zm-1.05.04c0-1.12-.28-1.96-.84-2.53s-1.39-.85-2.5-.85h-1.45v6.84h1.21c1.19,0,2.08-.29,2.68-.88s.9-1.45.9-2.59Z"/><path class="d" d="m154.12,576.1h-1v-8.57h4.78v.88h-3.78v3.13h3.55v.88h-3.55v3.66Z"/><path class="d" d="m165.22,569.56c.29,0,.54.02.77.07l-.13.9c-.27-.06-.5-.09-.7-.09-.52,0-.96.21-1.33.63s-.55.95-.55,1.58v3.45h-.97v-6.42h.8l.11,1.19h.05c.24-.42.53-.74.86-.97s.71-.34,1.11-.34Z"/><path class="d" d="m169.9,576.22c-.95,0-1.7-.29-2.25-.87s-.82-1.38-.82-2.41.25-1.86.76-2.47,1.19-.91,2.05-.91c.8,0,1.44.26,1.91.79s.7,1.23.7,2.09v.62h-4.42c.02.75.21,1.33.57,1.72s.87.59,1.53.59c.69,0,1.38-.14,2.05-.43v.87c-.34.15-.67.25-.98.32s-.68.1-1.11.1Zm-.26-5.84c-.52,0-.93.17-1.23.5s-.49.8-.54,1.39h3.36c0-.61-.14-1.08-.41-1.41s-.66-.49-1.17-.49Z"/><path class="d" d="m178.07,574.35c0,.6-.22,1.06-.67,1.38s-1.07.49-1.88.49c-.85,0-1.52-.13-1.99-.4v-.9c.31.16.64.28.99.37s.69.13,1.02.13c.51,0,.9-.08,1.17-.24s.41-.41.41-.74c0-.25-.11-.46-.33-.64s-.64-.39-1.27-.63c-.6-.22-1.02-.42-1.27-.58s-.44-.35-.56-.57-.18-.46-.18-.76c0-.52.21-.94.64-1.24s1.01-.45,1.75-.45c.69,0,1.37.14,2.03.42l-.35.79c-.64-.27-1.23-.4-1.75-.4-.46,0-.81.07-1.04.22s-.35.34-.35.6c0,.17.04.32.13.44s.23.24.42.35.57.27,1.12.47c.76.28,1.28.56,1.54.84s.4.63.4,1.06Z"/><path class="d" d="m185.19,572.88c0,1.05-.26,1.86-.79,2.45s-1.26.88-2.19.88c-.57,0-1.08-.13-1.53-.4s-.79-.66-1.03-1.16-.36-1.09-.36-1.77c0-1.05.26-1.86.79-2.45s1.25-.88,2.18-.88,1.61.3,2.14.9.79,1.41.79,2.43Zm-4.89,0c0,.82.16,1.45.49,1.88s.81.64,1.45.64,1.12-.21,1.45-.64.5-1.05.5-1.88-.17-1.44-.5-1.86-.82-.64-1.46-.64-1.12.21-1.44.63-.49,1.04-.49,1.87Z"/><path class="d" d="m187.81,569.68v4.17c0,.52.12.91.36,1.17s.61.39,1.12.39c.67,0,1.16-.18,1.47-.55s.47-.97.47-1.8v-3.38h.97v6.42h-.8l-.14-.86h-.05c-.2.32-.48.56-.83.73s-.76.25-1.21.25c-.78,0-1.37-.19-1.75-.56s-.58-.96-.58-1.78v-4.2h.98Z"/><path class="d" d="m197.19,569.56c.29,0,.54.02.77.07l-.13.9c-.27-.06-.5-.09-.7-.09-.52,0-.96.21-1.33.63s-.55.95-.55,1.58v3.45h-.97v-6.42h.8l.11,1.19h.05c.24-.42.53-.74.86-.97s.71-.34,1.11-.34Z"/><path class="d" d="m201.73,576.22c-.93,0-1.65-.29-2.16-.86s-.76-1.38-.76-2.43.26-1.9.78-2.49,1.25-.88,2.21-.88c.31,0,.62.03.93.1s.55.14.73.23l-.3.83c-.21-.09-.45-.16-.7-.21s-.48-.08-.67-.08c-1.3,0-1.96.83-1.96,2.5,0,.79.16,1.39.48,1.82s.79.63,1.42.63c.54,0,1.08-.12,1.65-.35v.86c-.43.22-.97.33-1.62.33Z"/><path class="d" d="m207.58,576.22c-.95,0-1.7-.29-2.25-.87s-.82-1.38-.82-2.41.25-1.86.76-2.47,1.19-.91,2.05-.91c.8,0,1.44.26,1.91.79s.7,1.23.7,2.09v.62h-4.42c.02.75.21,1.33.57,1.72s.87.59,1.53.59c.69,0,1.38-.14,2.05-.43v.87c-.34.15-.67.25-.98.32s-.68.1-1.11.1Zm-.26-5.84c-.52,0-.93.17-1.23.5s-.49.8-.54,1.39h3.36c0-.61-.14-1.08-.41-1.41s-.66-.49-1.17-.49Z"/><path class="d" d="m215.75,574.35c0,.6-.22,1.06-.67,1.38s-1.07.49-1.88.49c-.85,0-1.52-.13-1.99-.4v-.9c.31.16.64.28.99.37s.69.13,1.02.13c.51,0,.9-.08,1.17-.24s.41-.41.41-.74c0-.25-.11-.46-.33-.64s-.64-.39-1.27-.63c-.6-.22-1.02-.42-1.27-.58s-.44-.35-.56-.57-.18-.46-.18-.76c0-.52.21-.94.64-1.24s1.01-.45,1.75-.45c.69,0,1.37.14,2.03.42l-.35.79c-.64-.27-1.23-.4-1.75-.4-.46,0-.81.07-1.04.22s-.35.34-.35.6c0,.17.04.32.13.44s.23.24.42.35.57.27,1.12.47c.76.28,1.28.56,1.54.84s.4.63.4,1.06Z"/><path class="d" d="m217.19,570.3c0-.53.23-.79.69-.79s.72.26.72.79c0,.25-.06.45-.19.59s-.3.21-.53.21c-.2,0-.36-.06-.5-.18s-.2-.33-.2-.61Zm0,5.17c0-.26.06-.46.18-.59s.29-.2.51-.2.4.07.53.2.19.33.19.59-.06.45-.19.59-.3.21-.53.21c-.2,0-.36-.06-.5-.18s-.2-.33-.2-.61Z"/><path class="d" d="m228.03,576.1v-4.15c0-.52-.12-.91-.36-1.17s-.61-.39-1.12-.39c-.68,0-1.17.18-1.48.55s-.47.97-.47,1.8v3.36h-.97v-9.12h.97v2.76c0,.33-.02.61-.05.83h.06c.19-.31.46-.55.82-.73s.76-.27,1.21-.27c.79,0,1.37.19,1.77.56s.59.97.59,1.78v4.19h-.97Z"/><path class="d" d="m233.08,575.41c.17,0,.34-.01.5-.04s.29-.05.38-.08v.74c-.11.05-.26.09-.47.13s-.39.05-.55.05c-1.24,0-1.86-.65-1.86-1.96v-3.82h-.92v-.47l.92-.4.41-1.37h.56v1.49h1.86v.76h-1.86v3.78c0,.39.09.68.28.89s.44.31.76.31Z"/><path class="d" d="m237.32,575.41c.17,0,.34-.01.5-.04s.29-.05.38-.08v.74c-.11.05-.26.09-.47.13s-.39.05-.55.05c-1.24,0-1.86-.65-1.86-1.96v-3.82h-.92v-.47l.92-.4.41-1.37h.56v1.49h1.86v.76h-1.86v3.78c0,.39.09.68.28.89s.44.31.76.31Z"/><path class="d" d="m242.47,576.22c-.42,0-.8-.08-1.15-.23s-.64-.39-.87-.71h-.07c.05.38.07.73.07,1.07v2.64h-.97v-9.3h.79l.13.88h.05c.25-.35.54-.61.87-.76s.71-.23,1.14-.23c.85,0,1.51.29,1.97.87s.69,1.4.69,2.45-.24,1.87-.71,2.46-1.12.88-1.96.88Zm-.14-5.83c-.66,0-1.13.18-1.42.54s-.44.94-.45,1.73v.22c0,.9.15,1.55.45,1.94s.78.58,1.45.58c.55,0,.99-.22,1.3-.67s.47-1.07.47-1.86-.16-1.42-.47-1.84-.76-.64-1.33-.64Z"/><path class="d" d="m250.97,574.35c0,.6-.22,1.06-.67,1.38s-1.07.49-1.88.49c-.85,0-1.52-.13-1.99-.4v-.9c.31.16.64.28.99.37s.69.13,1.02.13c.51,0,.9-.08,1.17-.24s.41-.41.41-.74c0-.25-.11-.46-.33-.64s-.64-.39-1.27-.63c-.6-.22-1.02-.42-1.27-.58s-.44-.35-.56-.57-.18-.46-.18-.76c0-.52.21-.94.64-1.24s1.01-.45,1.75-.45c.69,0,1.37.14,2.03.42l-.35.79c-.64-.27-1.23-.4-1.75-.4-.46,0-.81.07-1.04.22s-.35.34-.35.6c0,.17.04.32.13.44s.23.24.42.35.57.27,1.12.47c.76.28,1.28.56,1.54.84s.4.63.4,1.06Z"/><path class="d" d="m252.42,570.3c0-.53.23-.79.69-.79s.72.26.72.79c0,.25-.06.45-.19.59s-.3.21-.53.21c-.2,0-.36-.06-.5-.18s-.2-.33-.2-.61Zm0,5.17c0-.26.06-.46.18-.59s.29-.2.51-.2.4.07.53.2.19.33.19.59-.06.45-.19.59-.3.21-.53.21c-.2,0-.36-.06-.5-.18s-.2-.33-.2-.61Z"/><path class="d" d="m259,567.53l-3.19,8.57h-.97l3.19-8.57h.97Z"/><path class="d" d="m263.41,567.53l-3.19,8.57h-.97l3.19-8.57h.97Z"/><path class="d" d="m269.82,569.68v.62l-1.19.14c.11.14.21.32.29.54s.13.47.13.75c0,.63-.21,1.13-.64,1.51s-1.02.56-1.77.56c-.19,0-.37-.02-.54-.05-.41.22-.62.49-.62.83,0,.18.07.31.22.39s.39.13.74.13h1.14c.7,0,1.23.15,1.6.44s.56.72.56,1.28c0,.71-.29,1.25-.86,1.63s-1.4.56-2.5.56c-.84,0-1.49-.16-1.94-.47s-.68-.75-.68-1.32c0-.39.12-.73.38-1.01s.6-.48,1.05-.58c-.16-.07-.3-.19-.41-.35s-.17-.34-.17-.54c0-.23.06-.44.19-.62s.32-.35.59-.51c-.33-.14-.6-.37-.81-.7s-.31-.7-.31-1.12c0-.7.21-1.25.63-1.63s1.02-.57,1.79-.57c.34,0,.64.04.91.12h2.22Zm-5.12,7.5c0,.35.15.61.44.79s.71.27,1.26.27c.82,0,1.42-.12,1.81-.37s.59-.58.59-.99c0-.35-.11-.59-.32-.72s-.62-.2-1.21-.2h-1.17c-.44,0-.79.11-1.03.32s-.37.51-.37.91Zm.53-5.44c0,.45.13.79.38,1.02s.61.35,1.06.35c.95,0,1.42-.46,1.42-1.38s-.48-1.45-1.44-1.45c-.46,0-.81.12-1.05.37s-.37.61-.37,1.1Z"/><path class="d" d="m271.05,567.94c0-.22.05-.39.16-.49s.25-.16.41-.16.29.05.4.16.17.27.17.49-.06.38-.17.49-.25.16-.4.16c-.16,0-.3-.05-.41-.16s-.16-.27-.16-.49Zm1.05,8.16h-.97v-6.42h.97v6.42Z"/><path class="d" d="m276.25,575.41c.17,0,.34-.01.5-.04s.29-.05.38-.08v.74c-.11.05-.26.09-.47.13s-.39.05-.55.05c-1.24,0-1.86-.65-1.86-1.96v-3.82h-.92v-.47l.92-.4.41-1.37h.56v1.49h1.86v.76h-1.86v3.78c0,.39.09.68.28.89s.44.31.76.31Z"/><path class="d" d="m282.8,576.1v-4.15c0-.52-.12-.91-.36-1.17s-.61-.39-1.12-.39c-.68,0-1.17.18-1.48.55s-.47.97-.47,1.8v3.36h-.97v-9.12h.97v2.76c0,.33-.02.61-.05.83h.06c.19-.31.46-.55.82-.73s.76-.27,1.21-.27c.79,0,1.37.19,1.77.56s.59.97.59,1.78v4.19h-.97Z"/><path class="d" d="m286.69,569.68v4.17c0,.52.12.91.36,1.17s.61.39,1.12.39c.67,0,1.16-.18,1.47-.55s.47-.97.47-1.8v-3.38h.97v6.42h-.8l-.14-.86h-.05c-.2.32-.48.56-.83.73s-.76.25-1.21.25c-.78,0-1.37-.19-1.75-.56s-.58-.96-.58-1.78v-4.2h.98Z"/><path class="d" d="m296.13,569.57c.84,0,1.5.29,1.97.86s.7,1.39.7,2.45-.24,1.87-.71,2.46-1.12.88-1.96.88c-.42,0-.8-.08-1.15-.23s-.64-.39-.87-.71h-.07l-.21.83h-.7v-9.12h.97v2.21c0,.5-.02.94-.05,1.34h.05c.45-.64,1.12-.96,2.02-.96Zm-.14.81c-.66,0-1.14.19-1.44.57s-.44,1.02-.44,1.92.15,1.55.45,1.94.78.58,1.45.58c.6,0,1.04-.22,1.34-.65s.44-1.06.44-1.88-.15-1.46-.44-1.87-.75-.62-1.36-.62Z"/><path class="d" d="m300.35,575.48c0-.26.06-.46.18-.59s.29-.2.51-.2.4.07.53.2.19.33.19.59-.06.45-.19.59-.3.21-.53.21c-.2,0-.36-.06-.5-.18s-.2-.33-.2-.61Z"/><path class="d" d="m306.25,576.22c-.93,0-1.65-.29-2.16-.86s-.76-1.38-.76-2.43.26-1.9.78-2.49,1.25-.88,2.21-.88c.31,0,.62.03.93.1s.55.14.73.23l-.3.83c-.21-.09-.45-.16-.7-.21s-.48-.08-.67-.08c-1.3,0-1.96.83-1.96,2.5,0,.79.16,1.39.48,1.82s.79.63,1.42.63c.54,0,1.08-.12,1.65-.35v.86c-.43.22-.97.33-1.62.33Z"/><path class="d" d="m314.94,572.88c0,1.05-.26,1.86-.79,2.45s-1.26.88-2.19.88c-.57,0-1.08-.13-1.53-.4s-.79-.66-1.03-1.16-.36-1.09-.36-1.77c0-1.05.26-1.86.79-2.45s1.25-.88,2.18-.88,1.61.3,2.14.9.79,1.41.79,2.43Zm-4.89,0c0,.82.16,1.45.49,1.88s.81.64,1.45.64,1.12-.21,1.45-.64.5-1.05.5-1.88-.17-1.44-.5-1.86-.82-.64-1.46-.64-1.12.21-1.44.63-.49,1.04-.49,1.87Z"/><path class="d" d="m324.83,576.1v-4.18c0-.51-.11-.9-.33-1.15s-.56-.38-1.02-.38c-.61,0-1.05.17-1.34.52s-.43.88-.43,1.61v3.59h-.97v-4.18c0-.51-.11-.9-.33-1.15s-.56-.38-1.03-.38c-.61,0-1.06.18-1.34.55s-.42.96-.42,1.8v3.37h-.97v-6.42h.79l.16.88h.05c.18-.31.44-.56.78-.73s.71-.26,1.12-.26c1,0,1.66.36,1.97,1.09h.05c.19-.34.47-.6.83-.8s.78-.29,1.24-.29c.73,0,1.27.19,1.63.56s.54.97.54,1.79v4.19h-.97Z"/><path class="d" d="m331.06,567.53l-3.19,8.57h-.97l3.19-8.57h.97Z"/><path class="d" d="m337.46,576.1l-1.18-3.77c-.07-.23-.21-.75-.42-1.57h-.05c-.16.68-.29,1.21-.41,1.58l-1.21,3.76h-1.12l-1.75-6.42h1.02c.41,1.61.73,2.84.95,3.69s.34,1.41.37,1.71h.05c.04-.22.11-.51.21-.86s.18-.63.25-.84l1.18-3.69h1.05l1.15,3.69c.22.67.37,1.24.45,1.69h.05c.02-.14.06-.36.13-.65s.48-1.87,1.22-4.73h1.01l-1.78,6.42h-1.15Z"/><path class="d" d="m344.26,576.22c-.95,0-1.7-.29-2.25-.87s-.82-1.38-.82-2.41.25-1.86.76-2.47,1.19-.91,2.05-.91c.8,0,1.44.26,1.91.79s.7,1.23.7,2.09v.62h-4.42c.02.75.21,1.33.57,1.72s.87.59,1.53.59c.69,0,1.38-.14,2.05-.43v.87c-.34.15-.67.25-.98.32s-.68.1-1.11.1Zm-.26-5.84c-.52,0-.93.17-1.23.5s-.49.8-.54,1.39h3.36c0-.61-.14-1.08-.41-1.41s-.66-.49-1.17-.49Z"/><path class="d" d="m351.27,569.57c.84,0,1.5.29,1.97.86s.7,1.39.7,2.45-.24,1.87-.71,2.46-1.12.88-1.96.88c-.42,0-.8-.08-1.15-.23s-.64-.39-.87-.71h-.07l-.21.83h-.7v-9.12h.97v2.21c0,.5-.02.94-.05,1.34h.05c.45-.64,1.12-.96,2.02-.96Zm-.14.81c-.66,0-1.14.19-1.44.57s-.44,1.02-.44,1.92.15,1.55.45,1.94.78.58,1.45.58c.6,0,1.04-.22,1.34-.65s.44-1.06.44-1.88-.15-1.46-.44-1.87-.75-.62-1.36-.62Z"/><path class="d" d="m363.82,576.1v-4.18c0-.51-.11-.9-.33-1.15s-.56-.38-1.02-.38c-.61,0-1.05.17-1.34.52s-.43.88-.43,1.61v3.59h-.97v-4.18c0-.51-.11-.9-.33-1.15s-.56-.38-1.03-.38c-.61,0-1.06.18-1.34.55s-.42.96-.42,1.8v3.37h-.97v-6.42h.79l.16.88h.05c.18-.31.44-.56.78-.73s.71-.26,1.12-.26c1,0,1.66.36,1.97,1.09h.05c.19-.34.47-.6.83-.8s.78-.29,1.24-.29c.73,0,1.27.19,1.63.56s.54.97.54,1.79v4.19h-.97Z"/><path class="d" d="m370.75,576.1l-.19-.91h-.05c-.32.4-.64.67-.96.82s-.72.21-1.19.21c-.64,0-1.14-.16-1.5-.49s-.54-.79-.54-1.4c0-1.3,1.04-1.98,3.11-2.04l1.09-.04v-.4c0-.5-.11-.88-.33-1.12s-.56-.36-1.04-.36c-.54,0-1.14.16-1.82.49l-.3-.74c.32-.17.66-.31,1.04-.4s.75-.15,1.13-.15c.77,0,1.33.17,1.7.51s.55.88.55,1.63v4.38h-.72Zm-2.2-.69c.61,0,1.08-.17,1.43-.5s.52-.8.52-1.39v-.58l-.97.04c-.77.03-1.33.15-1.67.36s-.51.54-.51.99c0,.35.11.62.32.8s.51.28.89.28Z"/><path class="d" d="m375.02,572.81l-2.23-3.13h1.11l1.69,2.46,1.69-2.46h1.1l-2.23,3.13,2.35,3.29h-1.1l-1.8-2.6-1.82,2.6h-1.1l2.35-3.29Z"/><path class="d" d="m382.69,569.56c.29,0,.54.02.77.07l-.13.9c-.27-.06-.5-.09-.7-.09-.52,0-.96.21-1.33.63s-.55.95-.55,1.58v3.45h-.97v-6.42h.8l.11,1.19h.05c.24-.42.53-.74.86-.97s.71-.34,1.11-.34Z"/><path class="d" d="m385.57,569.68v4.17c0,.52.12.91.36,1.17s.61.39,1.12.39c.67,0,1.16-.18,1.47-.55s.47-.97.47-1.8v-3.38h.97v6.42h-.8l-.14-.86h-.05c-.2.32-.48.56-.83.73s-.76.25-1.21.25c-.78,0-1.37-.19-1.75-.56s-.58-.96-.58-1.78v-4.2h.98Z"/><path class="d" d="m395.27,567.53l-3.19,8.57h-.97l3.19-8.57h.97Z"/><path class="d" d="m399.42,576.22c-.42,0-.8-.08-1.15-.23s-.64-.39-.87-.71h-.07c.05.38.07.73.07,1.07v2.64h-.97v-9.3h.79l.13.88h.05c.25-.35.54-.61.87-.76s.71-.23,1.14-.23c.85,0,1.51.29,1.97.87s.69,1.4.69,2.45-.24,1.87-.71,2.46-1.12.88-1.96.88Zm-.14-5.83c-.66,0-1.13.18-1.42.54s-.44.94-.45,1.73v.22c0,.9.15,1.55.45,1.94s.78.58,1.45.58c.55,0,.99-.22,1.3-.67s.47-1.07.47-1.86-.16-1.42-.47-1.84-.76-.64-1.33-.64Z"/><path class="d" d="m406.71,569.56c.29,0,.54.02.77.07l-.13.9c-.27-.06-.5-.09-.7-.09-.52,0-.96.21-1.33.63s-.55.95-.55,1.58v3.45h-.97v-6.42h.8l.11,1.19h.05c.24-.42.53-.74.86-.97s.71-.34,1.11-.34Z"/><path class="d" d="m414.22,572.88c0,1.05-.26,1.86-.79,2.45s-1.26.88-2.19.88c-.57,0-1.08-.13-1.53-.4s-.79-.66-1.03-1.16-.36-1.09-.36-1.77c0-1.05.26-1.86.79-2.45s1.25-.88,2.18-.88,1.61.3,2.14.9.79,1.41.79,2.43Zm-4.89,0c0,.82.16,1.45.49,1.88s.81.64,1.45.64,1.12-.21,1.45-.64.5-1.05.5-1.88-.17-1.44-.5-1.86-.82-.64-1.46-.64-1.12.21-1.44.63-.49,1.04-.49,1.87Z"/><path class="d" d="m424.11,576.1v-4.18c0-.51-.11-.9-.33-1.15s-.56-.38-1.02-.38c-.61,0-1.05.17-1.34.52s-.43.88-.43,1.61v3.59h-.97v-4.18c0-.51-.11-.9-.33-1.15s-.56-.38-1.03-.38c-.61,0-1.06.18-1.34.55s-.42.96-.42,1.8v3.37h-.97v-6.42h.79l.16.88h.05c.18-.31.44-.56.78-.73s.71-.26,1.12-.26c1,0,1.66.36,1.97,1.09h.05c.19-.34.47-.6.83-.8s.78-.29,1.24-.29c.73,0,1.27.19,1.63.56s.54.97.54,1.79v4.19h-.97Z"/><path class="d" d="m430.08,576.22c-.42,0-.8-.08-1.15-.23s-.64-.39-.87-.71h-.07c.05.38.07.73.07,1.07v2.64h-.97v-9.3h.79l.13.88h.05c.25-.35.54-.61.87-.76s.71-.23,1.14-.23c.85,0,1.51.29,1.97.87s.69,1.4.69,2.45-.24,1.87-.71,2.46-1.12.88-1.96.88Zm-.14-5.83c-.66,0-1.13.18-1.42.54s-.44.94-.45,1.73v.22c0,.9.15,1.55.45,1.94s.78.58,1.45.58c.55,0,.99-.22,1.3-.67s.47-1.07.47-1.86-.16-1.42-.47-1.84-.76-.64-1.33-.64Z"/><path class="d" d="m436.52,575.41c.17,0,.34-.01.5-.04s.29-.05.38-.08v.74c-.11.05-.26.09-.47.13s-.39.05-.55.05c-1.24,0-1.86-.65-1.86-1.96v-3.82h-.92v-.47l.92-.4.41-1.37h.56v1.49h1.86v.76h-1.86v3.78c0,.39.09.68.28.89s.44.31.76.31Z"/><path class="d" d="m438.14,573.33v-.89h2.88v.89h-2.88Z"/><path class="d" d="m445.25,576.22c-.95,0-1.7-.29-2.25-.87s-.82-1.38-.82-2.41.25-1.86.76-2.47,1.19-.91,2.05-.91c.8,0,1.44.26,1.91.79s.7,1.23.7,2.09v.62h-4.42c.02.75.21,1.33.57,1.72s.87.59,1.53.59c.69,0,1.38-.14,2.05-.43v.87c-.34.15-.67.25-.98.32s-.68.1-1.11.1Zm-.26-5.84c-.52,0-.93.17-1.23.5s-.49.8-.54,1.39h3.36c0-.61-.14-1.08-.41-1.41s-.66-.49-1.17-.49Z"/><path class="d" d="m453.67,576.1v-4.15c0-.52-.12-.91-.36-1.17s-.61-.39-1.12-.39c-.67,0-1.16.18-1.48.54s-.47.96-.47,1.8v3.37h-.97v-6.42h.79l.16.88h.05c.2-.32.48-.56.84-.74s.76-.26,1.2-.26c.77,0,1.36.19,1.75.56s.59.97.59,1.79v4.19h-.97Z"/><path class="d" d="m461.89,569.68v.62l-1.19.14c.11.14.21.32.29.54s.13.47.13.75c0,.63-.21,1.13-.64,1.51s-1.02.56-1.77.56c-.19,0-.37-.02-.54-.05-.41.22-.62.49-.62.83,0,.18.07.31.22.39s.39.13.74.13h1.14c.7,0,1.23.15,1.6.44s.56.72.56,1.28c0,.71-.29,1.25-.86,1.63s-1.4.56-2.5.56c-.84,0-1.49-.16-1.94-.47s-.68-.75-.68-1.32c0-.39.12-.73.38-1.01s.6-.48,1.05-.58c-.16-.07-.3-.19-.41-.35s-.17-.34-.17-.54c0-.23.06-.44.19-.62s.32-.35.59-.51c-.33-.14-.6-.37-.81-.7s-.31-.7-.31-1.12c0-.7.21-1.25.63-1.63s1.02-.57,1.79-.57c.34,0,.64.04.91.12h2.22Zm-5.12,7.5c0,.35.15.61.44.79s.71.27,1.26.27c.82,0,1.42-.12,1.81-.37s.59-.58.59-.99c0-.35-.11-.59-.32-.72s-.62-.2-1.21-.2h-1.17c-.44,0-.79.11-1.03.32s-.37.51-.37.91Zm.53-5.44c0,.45.13.79.38,1.02s.61.35,1.06.35c.95,0,1.42-.46,1.42-1.38s-.48-1.45-1.44-1.45c-.46,0-.81.12-1.05.37s-.37.61-.37,1.1Z"/><path class="d" d="m463.13,567.94c0-.22.05-.39.16-.49s.25-.16.41-.16.29.05.4.16.17.27.17.49-.06.38-.17.49-.25.16-.4.16c-.16,0-.3-.05-.41-.16s-.16-.27-.16-.49Zm1.05,8.16h-.97v-6.42h.97v6.42Z"/><path class="d" d="m470.64,576.1v-4.15c0-.52-.12-.91-.36-1.17s-.61-.39-1.12-.39c-.67,0-1.16.18-1.48.54s-.47.96-.47,1.8v3.37h-.97v-6.42h.79l.16.88h.05c.2-.32.48-.56.84-.74s.76-.26,1.2-.26c.77,0,1.36.19,1.75.56s.59.97.59,1.79v4.19h-.97Z"/><path class="d" d="m476.33,576.22c-.95,0-1.7-.29-2.25-.87s-.82-1.38-.82-2.41.25-1.86.76-2.47,1.19-.91,2.05-.91c.8,0,1.44.26,1.91.79s.7,1.23.7,2.09v.62h-4.42c.02.75.21,1.33.57,1.72s.87.59,1.53.59c.69,0,1.38-.14,2.05-.43v.87c-.34.15-.67.25-.98.32s-.68.1-1.11.1Zm-.26-5.84c-.52,0-.93.17-1.23.5s-.49.8-.54,1.39h3.36c0-.61-.14-1.08-.41-1.41s-.66-.49-1.17-.49Z"/><path class="d" d="m483.06,576.22c-.95,0-1.7-.29-2.25-.87s-.82-1.38-.82-2.41.25-1.86.76-2.47,1.19-.91,2.05-.91c.8,0,1.44.26,1.91.79s.7,1.23.7,2.09v.62h-4.42c.02.75.21,1.33.57,1.72s.87.59,1.53.59c.69,0,1.38-.14,2.05-.43v.87c-.34.15-.67.25-.98.32s-.68.1-1.11.1Zm-.26-5.84c-.52,0-.93.17-1.23.5s-.49.8-.54,1.39h3.36c0-.61-.14-1.08-.41-1.41s-.66-.49-1.17-.49Z"/><path class="d" d="m490.01,569.56c.29,0,.54.02.77.07l-.13.9c-.27-.06-.5-.09-.7-.09-.52,0-.96.21-1.33.63s-.55.95-.55,1.58v3.45h-.97v-6.42h.8l.11,1.19h.05c.24-.42.53-.74.86-.97s.71-.34,1.11-.34Z"/><path class="d" d="m491.89,567.94c0-.22.05-.39.16-.49s.25-.16.41-.16.29.05.4.16.17.27.17.49-.06.38-.17.49-.25.16-.4.16c-.16,0-.3-.05-.41-.16s-.16-.27-.16-.49Zm1.05,8.16h-.97v-6.42h.97v6.42Z"/><path class="d" d="m499.41,576.1v-4.15c0-.52-.12-.91-.36-1.17s-.61-.39-1.12-.39c-.67,0-1.16.18-1.48.54s-.47.96-.47,1.8v3.37h-.97v-6.42h.79l.16.88h.05c.2-.32.48-.56.84-.74s.76-.26,1.2-.26c.77,0,1.36.19,1.75.56s.59.97.59,1.79v4.19h-.97Z"/><path class="d" d="m507.63,569.68v.62l-1.19.14c.11.14.21.32.29.54s.13.47.13.75c0,.63-.21,1.13-.64,1.51s-1.02.56-1.77.56c-.19,0-.37-.02-.54-.05-.41.22-.62.49-.62.83,0,.18.07.31.22.39s.39.13.74.13h1.14c.7,0,1.23.15,1.6.44s.56.72.56,1.28c0,.71-.29,1.25-.86,1.63s-1.4.56-2.5.56c-.84,0-1.49-.16-1.94-.47s-.68-.75-.68-1.32c0-.39.12-.73.38-1.01s.6-.48,1.05-.58c-.16-.07-.3-.19-.41-.35s-.17-.34-.17-.54c0-.23.06-.44.19-.62s.32-.35.59-.51c-.33-.14-.6-.37-.81-.7s-.31-.7-.31-1.12c0-.7.21-1.25.63-1.63s1.02-.57,1.79-.57c.34,0,.64.04.91.12h2.22Zm-5.12,7.5c0,.35.15.61.44.79s.71.27,1.26.27c.82,0,1.42-.12,1.81-.37s.59-.58.59-.99c0-.35-.11-.59-.32-.72s-.62-.2-1.21-.2h-1.17c-.44,0-.79.11-1.03.32s-.37.51-.37.91Zm.53-5.44c0,.45.13.79.38,1.02s.61.35,1.06.35c.95,0,1.42-.46,1.42-1.38s-.48-1.45-1.44-1.45c-.46,0-.81.12-1.05.37s-.37.61-.37,1.1Z"/><path class="d" d="m508.41,573.33v-.89h2.88v.89h-2.88Z"/><path class="d" d="m513.78,576.1h-.97v-9.12h.97v9.12Z"/><path class="d" d="m521.39,572.88c0,1.05-.26,1.86-.79,2.45s-1.26.88-2.19.88c-.57,0-1.08-.13-1.53-.4s-.79-.66-1.03-1.16-.36-1.09-.36-1.77c0-1.05.26-1.86.79-2.45s1.25-.88,2.18-.88,1.61.3,2.14.9.79,1.41.79,2.43Zm-4.89,0c0,.82.16,1.45.49,1.88s.81.64,1.45.64,1.12-.21,1.45-.64.5-1.05.5-1.88-.17-1.44-.5-1.86-.82-.64-1.46-.64-1.12.21-1.44.63-.49,1.04-.49,1.87Z"/><path class="d" d="m528.35,569.68v.62l-1.19.14c.11.14.21.32.29.54s.13.47.13.75c0,.63-.21,1.13-.64,1.51s-1.02.56-1.77.56c-.19,0-.37-.02-.54-.05-.41.22-.62.49-.62.83,0,.18.07.31.22.39s.39.13.74.13h1.14c.7,0,1.23.15,1.6.44s.56.72.56,1.28c0,.71-.29,1.25-.86,1.63s-1.4.56-2.5.56c-.84,0-1.49-.16-1.94-.47s-.68-.75-.68-1.32c0-.39.12-.73.38-1.01s.6-.48,1.05-.58c-.16-.07-.3-.19-.41-.35s-.17-.34-.17-.54c0-.23.06-.44.19-.62s.32-.35.59-.51c-.33-.14-.6-.37-.81-.7s-.31-.7-.31-1.12c0-.7.21-1.25.63-1.63s1.02-.57,1.79-.57c.34,0,.64.04.91.12h2.22Zm-5.12,7.5c0,.35.15.61.44.79s.71.27,1.26.27c.82,0,1.42-.12,1.81-.37s.59-.58.59-.99c0-.35-.11-.59-.32-.72s-.62-.2-1.21-.2h-1.17c-.44,0-.79.11-1.03.32s-.37.51-.37.91Zm.53-5.44c0,.45.13.79.38,1.02s.61.35,1.06.35c.95,0,1.42-.46,1.42-1.38s-.48-1.45-1.44-1.45c-.46,0-.81.12-1.05.37s-.37.61-.37,1.1Z"/><path class="d" d="m535.21,572.88c0,1.05-.26,1.86-.79,2.45s-1.26.88-2.19.88c-.57,0-1.08-.13-1.53-.4s-.79-.66-1.03-1.16-.36-1.09-.36-1.77c0-1.05.26-1.86.79-2.45s1.25-.88,2.18-.88,1.61.3,2.14.9.79,1.41.79,2.43Zm-4.89,0c0,.82.16,1.45.49,1.88s.81.64,1.45.64,1.12-.21,1.45-.64.5-1.05.5-1.88-.17-1.44-.5-1.86-.82-.64-1.46-.64-1.12.21-1.44.63-.49,1.04-.49,1.87Z"/></svg>