<?xml version="1.0" encoding="UTF-8"?><svg id="a" xmlns="http://www.w3.org/2000/svg" viewBox="0 0 595.28 297.64"><defs><style>.b{fill:#f4ac36;}.c{fill:#6b40d8;}.d{fill:#ef4146;}.e{fill:#27b5ea;}.f{fill:#68de7a;}</style></defs><path class="c" d="m344.52,73.72l4.56,7.8s.02.04.03.06c1.78,3.08,2.54,6.51,2.19,9.93-.27,2.74-1.26,5.3-2.9,7.54h42.22v-27.62h-47.71c.59.71,1.12,1.48,1.6,2.29Z"/><path class="b" d="m363.09,28.59h-82.65c-15.21,0-27.54,12.33-27.54,27.54v3.62h25.19c.88-2.5,2.31-4.73,4.26-6.57,3.02-2.84,6.98-4.41,11.17-4.41h9.78c4.23,0,8.21,1.59,11.22,4.48,1.89,1.82,3.3,4.02,4.16,6.49h71.95v-3.62c0-15.21-12.33-27.54-27.54-27.54Z"/><path class="f" d="m345.73,110.99c3.15,2.8,5.03,6.38,5.43,10.33.34,3.44-.42,6.88-2.2,9.97-.01.02-.02.04-.03.06l-.8,1.36,20.13,16.11c9.02,7.22,22.38.79,22.38-10.75v-27.35h-45.21c.1.09.21.17.31.26Z"/><path class="e" d="m344.49,139.41c-1.87,3.23-4.66,5.66-8.08,7.03-1.14.46-2.31.78-3.49.96v7.36c0,8.73-7.08,15.81-15.81,15.81h-66.53c-2.66,0-5.25.91-7.32,2.57l-21.37,17.08c-.41.33-.78.47-1.21.47-.02,0-2.11-.09-2.11-2.06v-81.92c0-8.73,7.08-15.81,15.81-15.81h10.14c-.2-3.22.57-6.43,2.24-9.33.01-.02.02-.04.03-.06l1.35-2.3h-13.71c-15.21,0-27.54,12.33-27.54,27.54v82.19c0,8.19,6.72,13.81,13.85,13.81,2.93,0,5.92-.95,8.55-3.05l21.37-17.1h66.42c15.21,0,27.54-12.33,27.54-27.54v-15.86l-.12.2Z"/><circle class="e" cx="241.5" cy="153.56" r="7.71"/><circle class="e" cx="265.12" cy="153.56" r="7.71"/><path class="d" d="m338.62,119.38l-7.49-4.88c.62-2.57.95-5.25.95-8.01s-.33-5.44-.95-8.01l7.49-4.88c2.04-1.33,2.68-4.01,1.46-6.12l-4.63-8.01c-1.21-2.1-3.86-2.89-6.03-1.79l-7.98,4.05c-3.87-3.68-8.61-6.46-13.87-8.01l-.48-8.93c-.13-2.43-2.14-4.33-4.57-4.33h-9.25c-2.43,0-4.43,1.9-4.57,4.33l-.48,8.93c-5.26,1.55-10,4.33-13.87,8.01l-7.98-4.05c-2.17-1.1-4.81-.31-6.03,1.79l-4.63,8.01c-1.21,2.1-.57,4.79,1.46,6.12l7.49,4.88c-.62,2.57-.95,5.25-.95,8.01s.33,5.44.95,8.01l-7.49,4.88c-2.04,1.33-2.68,4.01-1.46,6.12l4.63,8.01c1.21,2.1,3.86,2.89,6.03,1.79l7.98-4.05c3.87,3.68,8.61,6.46,13.87,8.01l.48,8.93c.13,2.43,2.14,4.33,4.57,4.33h9.25c2.43,0,4.43-1.9,4.57-4.33l.48-8.93c5.26-1.55,10-4.33,13.87-8.01l7.98,4.05c2.17,1.1,4.81.31,6.03-1.79l4.63-8.01c1.21-2.1.57-4.79-1.46-6.12Zm-40.71,9.5c-12.4,0-22.45-10.05-22.45-22.45s10.05-22.45,22.45-22.45,22.45,10.05,22.45,22.45-10.05,22.45-22.45,22.45Z"/><path d="m109.88,241.57v-17.13h3.63v14.13h6.95v3h-10.58Z"/><path d="m135.06,234.99c0,2.13-.56,3.8-1.69,5s-2.69,1.8-4.7,1.8c-1.26,0-2.37-.28-3.33-.83s-1.7-1.34-2.21-2.37-.77-2.23-.77-3.61c0-2.14.56-3.8,1.68-4.99s2.69-1.78,4.71-1.78c1.26,0,2.37.27,3.33.82s1.7,1.33,2.21,2.36.77,2.22.77,3.6Zm-9.06,0c0,1.3.21,2.28.64,2.94s1.12,1,2.08,1,1.64-.33,2.06-.99.63-1.64.63-2.95-.21-2.27-.63-2.92-1.11-.97-2.07-.97-1.64.32-2.06.97-.63,1.62-.63,2.92Z"/><path d="m149.41,228.46v1.82l-2.05.53c.38.59.56,1.24.56,1.97,0,1.41-.49,2.5-1.47,3.29s-2.34,1.18-4.08,1.18l-.64-.04-.53-.06c-.37.28-.55.59-.55.94,0,.52.66.77,1.97.77h2.23c1.44,0,2.53.31,3.29.93s1.13,1.52,1.13,2.72c0,1.53-.64,2.72-1.92,3.56s-3.11,1.27-5.5,1.27c-1.83,0-3.22-.32-4.19-.96s-1.45-1.53-1.45-2.68c0-.79.25-1.45.74-1.98s1.21-.91,2.17-1.14c-.37-.16-.69-.41-.96-.77s-.41-.73-.41-1.13c0-.5.14-.92.43-1.25s.71-.66,1.25-.98c-.69-.3-1.23-.77-1.63-1.43s-.6-1.43-.6-2.32c0-1.43.46-2.54,1.39-3.32s2.26-1.17,3.98-1.17c.37,0,.8.03,1.31.1s.83.12.97.15h4.57Zm-10.11,14.95c0,.49.24.88.71,1.16s1.13.42,1.99.42c1.28,0,2.29-.18,3.01-.53s1.09-.83,1.09-1.44c0-.49-.21-.83-.64-1.02s-1.09-.28-1.99-.28h-1.85c-.66,0-1.21.15-1.65.46s-.66.72-.66,1.22Zm1.3-10.66c0,.71.16,1.27.49,1.69s.82.62,1.48.62,1.16-.21,1.48-.62.47-.98.47-1.69c0-1.58-.65-2.37-1.95-2.37s-1.97.79-1.97,2.37Z"/><path d="m163.48,234.99c0,2.13-.56,3.8-1.69,5s-2.69,1.8-4.7,1.8c-1.26,0-2.37-.28-3.33-.83s-1.7-1.34-2.21-2.37-.77-2.23-.77-3.61c0-2.14.56-3.8,1.68-4.99s2.69-1.78,4.71-1.78c1.26,0,2.37.27,3.33.82s1.7,1.33,2.21,2.36.77,2.22.77,3.6Zm-9.06,0c0,1.3.21,2.28.64,2.94s1.12,1,2.08,1,1.64-.33,2.06-.99.63-1.64.63-2.95-.21-2.27-.63-2.92-1.11-.97-2.07-.97-1.64.32-2.06.97-.63,1.62-.63,2.92Z"/><path d="m171.95,238.95c.62,0,1.38-.14,2.25-.41v2.66c-.89.4-1.98.6-3.28.6-1.43,0-2.47-.36-3.12-1.08s-.98-1.81-.98-3.25v-6.32h-1.71v-1.51l1.97-1.2,1.03-2.77h2.29v2.79h3.67v2.68h-3.67v6.32c0,.51.14.88.43,1.12s.66.36,1.13.36Z"/><path d="m174.97,228.46h3.91l2.47,7.37c.21.64.36,1.4.43,2.27h.07c.09-.8.25-1.56.5-2.27l2.43-7.37h3.83l-5.54,14.78c-.51,1.37-1.23,2.39-2.17,3.07s-2.04,1.02-3.3,1.02c-.62,0-1.22-.07-1.82-.2v-2.84c.43.1.9.15,1.41.15.63,0,1.19-.19,1.66-.58s.84-.97,1.11-1.75l.21-.64-5.2-13.01Z"/><path d="m197.7,241.8c-1.54,0-2.75-.56-3.62-1.68h-.19c.12,1.09.19,1.73.19,1.9v5.31h-3.57v-18.87h2.91l.5,1.7h.16c.84-1.3,2.07-1.95,3.71-1.95,1.55,0,2.76.6,3.63,1.79s1.31,2.86,1.31,4.98c0,1.4-.21,2.61-.62,3.64s-.99,1.82-1.75,2.36-1.65.81-2.67.81Zm-1.05-10.72c-.88,0-1.53.27-1.93.81s-.62,1.44-.63,2.69v.39c0,1.41.21,2.41.63,3.02s1.08.91,1.99.91c1.6,0,2.4-1.32,2.4-3.96,0-1.29-.2-2.26-.59-2.9s-1.01-.97-1.86-.97Z"/><path d="m211.62,241.8c-2.11,0-3.76-.58-4.95-1.75s-1.78-2.81-1.78-4.95.55-3.89,1.65-5.09,2.62-1.8,4.55-1.8,3.29.53,4.32,1.58,1.55,2.51,1.55,4.37v1.73h-8.45c.04,1.02.34,1.81.9,2.38s1.35.86,2.37.86c.79,0,1.54-.08,2.24-.25s1.44-.43,2.2-.79v2.77c-.62.31-1.29.54-2,.7s-1.58.23-2.6.23Zm-.5-11.04c-.76,0-1.35.24-1.78.72s-.68,1.16-.74,2.04h5.02c-.02-.88-.25-1.56-.69-2.04s-1.05-.72-1.8-.72Z"/><path d="m234.02,224.43l-6.39,17.13h-3.25l6.39-17.13h3.25Z"/><path d="m252.64,236.81c0,1.55-.56,2.77-1.67,3.66s-2.66,1.34-4.65,1.34c-1.83,0-3.45-.34-4.85-1.03v-3.38c1.16.52,2.13.88,2.94,1.09s1.53.32,2.2.32c.8,0,1.41-.15,1.83-.46s.64-.76.64-1.36c0-.34-.09-.63-.28-.9s-.46-.51-.83-.76-1.1-.63-2.22-1.16c-1.05-.49-1.83-.96-2.36-1.42s-.94-.98-1.25-1.58-.47-1.3-.47-2.11c0-1.52.51-2.71,1.54-3.57s2.45-1.3,4.26-1.3c.89,0,1.74.11,2.55.32s1.65.51,2.54.89l-1.17,2.82c-.91-.38-1.67-.64-2.27-.79s-1.19-.22-1.76-.22c-.69,0-1.21.16-1.58.48s-.55.74-.55,1.25c0,.32.07.6.22.84s.38.47.71.69,1.09.62,2.3,1.2c1.6.77,2.7,1.53,3.29,2.3s.89,1.71.89,2.83Z"/><path d="m253.59,228.46h3.91l2.47,7.37c.21.64.36,1.4.43,2.27h.07c.09-.8.25-1.56.5-2.27l2.43-7.37h3.83l-5.54,14.78c-.51,1.37-1.23,2.39-2.17,3.07s-2.04,1.02-3.3,1.02c-.62,0-1.22-.07-1.82-.2v-2.84c.43.1.9.15,1.41.15.63,0,1.19-.19,1.66-.58s.84-.97,1.11-1.75l.21-.64-5.2-13.01Z"/><path d="m280.85,241.57h-3.57v-7.65c0-.95-.16-1.65-.47-2.13s-.81-.71-1.49-.71c-.91,0-1.58.34-1.99,1.01s-.62,1.78-.62,3.32v6.16h-3.57v-13.1h2.73l.48,1.68h.2c.35-.6.86-1.07,1.52-1.41s1.43-.51,2.29-.51c1.96,0,3.29.64,3.98,1.92h.32c.35-.61.87-1.08,1.55-1.42s1.46-.5,2.31-.5c1.48,0,2.61.38,3.37,1.14s1.14,1.98,1.14,3.66v8.54h-3.59v-7.65c0-.95-.16-1.65-.47-2.13s-.81-.71-1.49-.71c-.88,0-1.53.31-1.96.94s-.65,1.62-.65,2.98v6.57Z"/><path d="m299.98,228.22c1.55,0,2.76.6,3.63,1.81s1.31,2.86,1.31,4.96-.45,3.84-1.35,5.03-2.13,1.78-3.69,1.78-2.75-.56-3.62-1.68h-.25l-.6,1.44h-2.73v-18.23h3.57v4.24c0,.54-.05,1.4-.14,2.59h.14c.84-1.3,2.07-1.95,3.71-1.95Zm-1.15,2.86c-.88,0-1.53.27-1.93.81s-.62,1.44-.63,2.69v.39c0,1.41.21,2.41.63,3.02s1.08.91,1.99.91c.73,0,1.32-.34,1.75-1.01s.65-1.66.65-2.95-.22-2.26-.66-2.9-1.04-.97-1.79-.97Z"/><path d="m319.78,234.99c0,2.13-.56,3.8-1.69,5s-2.69,1.8-4.7,1.8c-1.26,0-2.37-.28-3.33-.83s-1.7-1.34-2.21-2.37-.77-2.23-.77-3.61c0-2.14.56-3.8,1.68-4.99s2.69-1.78,4.71-1.78c1.26,0,2.37.27,3.33.82s1.7,1.33,2.21,2.36.77,2.22.77,3.6Zm-9.06,0c0,1.3.21,2.28.64,2.94s1.12,1,2.08,1,1.64-.33,2.06-.99.63-1.64.63-2.95-.21-2.27-.63-2.92-1.11-.97-2.07-.97-1.64.32-2.06.97-.63,1.62-.63,2.92Z"/><path d="m326.31,241.57h-3.57v-18.23h3.57v18.23Z"/><path d="m344.21,224.43l-6.39,17.13h-3.25l6.39-17.13h3.25Z"/><path d="m352.72,241.57v-17.13h3.63v17.13h-3.63Z"/><path d="m365.71,241.8c-4.08,0-6.12-2.24-6.12-6.71,0-2.23.55-3.93,1.66-5.1s2.7-1.76,4.77-1.76c1.52,0,2.88.3,4.08.89l-1.05,2.77c-.56-.23-1.09-.41-1.57-.56s-.97-.22-1.45-.22c-1.86,0-2.79,1.32-2.79,3.96s.93,3.84,2.79,3.84c.69,0,1.32-.09,1.91-.28s1.17-.47,1.76-.86v3.06c-.58.37-1.16.62-1.75.76s-1.33.21-2.23.21Z"/><path d="m384.63,234.99c0,2.13-.56,3.8-1.69,5s-2.69,1.8-4.7,1.8c-1.26,0-2.37-.28-3.33-.83s-1.7-1.34-2.21-2.37-.77-2.23-.77-3.61c0-2.14.56-3.8,1.68-4.99s2.69-1.78,4.71-1.78c1.26,0,2.37.27,3.33.82s1.7,1.33,2.21,2.36.77,2.22.77,3.6Zm-9.06,0c0,1.3.21,2.28.64,2.94s1.12,1,2.08,1,1.64-.33,2.06-.99.63-1.64.63-2.95-.21-2.27-.63-2.92-1.11-.97-2.07-.97-1.64.32-2.06.97-.63,1.62-.63,2.92Z"/><path d="m399.68,241.57h-3.57v-7.65c0-.95-.17-1.65-.5-2.13s-.87-.71-1.61-.71c-1,0-1.72.33-2.17,1s-.67,1.78-.67,3.32v6.16h-3.57v-13.1h2.73l.48,1.68h.2c.4-.63.95-1.11,1.65-1.44s1.49-.49,2.38-.49c1.52,0,2.68.41,3.47,1.24s1.18,2.01,1.18,3.57v8.54Z"/><path d="m416.84,231.15h-3.09v10.42h-3.57v-10.42h-1.97v-1.72l1.97-.96v-.96c0-1.49.37-2.58,1.1-3.27s1.91-1.03,3.53-1.03c1.23,0,2.33.18,3.29.55l-.91,2.62c-.72-.23-1.38-.34-1.99-.34-.51,0-.88.15-1.1.45s-.34.69-.34,1.15v.82h3.09v2.68Z"/><path d="m430.79,234.99c0,2.13-.56,3.8-1.69,5s-2.69,1.8-4.7,1.8c-1.26,0-2.37-.28-3.33-.83s-1.7-1.34-2.21-2.37-.77-2.23-.77-3.61c0-2.14.56-3.8,1.68-4.99s2.69-1.78,4.71-1.78c1.26,0,2.37.27,3.33.82s1.7,1.33,2.21,2.36.77,2.22.77,3.6Zm-9.06,0c0,1.3.21,2.28.64,2.94s1.12,1,2.08,1,1.64-.33,2.06-.99.63-1.64.63-2.95-.21-2.27-.63-2.92-1.11-.97-2.07-.97-1.64.32-2.06.97-.63,1.62-.63,2.92Z"/><path d="m441.06,228.22c.48,0,.89.04,1.21.11l-.27,3.35c-.29-.08-.64-.12-1.05-.12-1.14,0-2.03.29-2.67.88s-.96,1.41-.96,2.46v6.67h-3.57v-13.1h2.71l.53,2.2h.18c.41-.73.96-1.33,1.65-1.78s1.44-.67,2.26-.67Z"/><path d="m456.4,238.95c.62,0,1.38-.14,2.25-.41v2.66c-.89.4-1.98.6-3.28.6-1.43,0-2.47-.36-3.12-1.08s-.98-1.81-.98-3.25v-6.32h-1.71v-1.51l1.97-1.2,1.03-2.77h2.29v2.79h3.67v2.68h-3.67v6.32c0,.51.14.88.43,1.12s.66.36,1.13.36Z"/><path d="m473.39,241.57h-3.57v-7.65c0-1.89-.7-2.84-2.11-2.84-1,0-1.72.34-2.17,1.02s-.67,1.78-.67,3.3v6.16h-3.57v-18.23h3.57v3.71c0,.29-.03.97-.08,2.04l-.08,1.05h.19c.8-1.28,2.06-1.92,3.8-1.92,1.54,0,2.71.41,3.5,1.24s1.2,2.02,1.2,3.56v8.54Z"/><path d="m483,241.8c-2.11,0-3.76-.58-4.95-1.75s-1.78-2.81-1.78-4.95.55-3.89,1.65-5.09,2.62-1.8,4.55-1.8,3.29.53,4.32,1.58,1.55,2.51,1.55,4.37v1.73h-8.45c.04,1.02.34,1.81.9,2.38s1.35.86,2.37.86c.79,0,1.54-.08,2.24-.25s1.44-.43,2.2-.79v2.77c-.62.31-1.29.54-2,.7s-1.58.23-2.6.23Zm-.5-11.04c-.76,0-1.35.24-1.78.72s-.68,1.16-.74,2.04h5.02c-.02-.88-.25-1.56-.69-2.04s-1.05-.72-1.8-.72Z"/><path d="m106.77,258.58c0,1.84-.58,3.25-1.73,4.23s-2.79,1.46-4.92,1.46h-1.56v6.09h-3.63v-17.13h5.47c2.08,0,3.66.45,4.74,1.34s1.62,2.23,1.62,4Zm-8.2,2.72h1.2c1.12,0,1.95-.22,2.51-.66s.83-1.08.83-1.93-.23-1.48-.7-1.89-1.19-.61-2.19-.61h-1.65v5.09Z"/><path d="m117.04,257.02c.48,0,.89.04,1.21.11l-.27,3.35c-.29-.08-.64-.12-1.05-.12-1.14,0-2.03.29-2.67.88s-.96,1.41-.96,2.46v6.67h-3.57v-13.1h2.71l.53,2.2h.18c.41-.73.96-1.33,1.65-1.78s1.44-.67,2.26-.67Z"/><path d="m132.53,263.79c0,2.13-.56,3.8-1.69,5s-2.69,1.8-4.7,1.8c-1.26,0-2.37-.28-3.33-.83s-1.7-1.34-2.21-2.37-.77-2.23-.77-3.61c0-2.14.56-3.8,1.68-4.99s2.69-1.78,4.71-1.78c1.26,0,2.37.27,3.33.82s1.7,1.33,2.21,2.36.77,2.22.77,3.6Zm-9.06,0c0,1.3.21,2.28.64,2.94s1.12,1,2.08,1,1.64-.33,2.06-.99.63-1.64.63-2.95-.21-2.27-.63-2.92-1.11-.97-2.07-.97-1.64.32-2.06.97-.63,1.62-.63,2.92Z"/><path d="m147.21,270.37h-3.57v-7.65c0-.95-.16-1.65-.47-2.13s-.81-.71-1.49-.71c-.91,0-1.58.34-1.99,1.01s-.62,1.78-.62,3.32v6.16h-3.57v-13.1h2.73l.48,1.68h.2c.35-.6.86-1.07,1.52-1.41s1.43-.51,2.29-.51c1.96,0,3.29.64,3.98,1.92h.32c.35-.61.87-1.08,1.55-1.42s1.46-.5,2.31-.5c1.48,0,2.61.38,3.37,1.14s1.14,1.98,1.14,3.66v8.54h-3.59v-7.65c0-.95-.16-1.65-.47-2.13s-.81-.71-1.49-.71c-.88,0-1.53.31-1.96.94s-.65,1.62-.65,2.98v6.57Z"/><path d="m166.24,270.6c-1.54,0-2.75-.56-3.62-1.68h-.19c.12,1.09.19,1.73.19,1.9v5.31h-3.57v-18.87h2.91l.5,1.7h.16c.84-1.3,2.07-1.95,3.71-1.95,1.55,0,2.76.6,3.63,1.79s1.31,2.86,1.31,4.98c0,1.4-.21,2.61-.62,3.64s-.99,1.82-1.75,2.36-1.65.81-2.67.81Zm-1.05-10.72c-.88,0-1.53.27-1.93.81s-.62,1.44-.63,2.69v.39c0,1.41.21,2.41.63,3.02s1.08.91,1.99.91c1.6,0,2.4-1.32,2.4-3.96,0-1.29-.2-2.26-.59-2.9s-1.01-.97-1.86-.97Z"/><path d="m179.75,267.75c.62,0,1.38-.14,2.25-.41v2.66c-.89.4-1.98.6-3.28.6-1.43,0-2.47-.36-3.12-1.08s-.98-1.81-.98-3.25v-6.32h-1.71v-1.51l1.97-1.2,1.03-2.77h2.29v2.79h3.67v2.68h-3.67v6.32c0,.51.14.88.43,1.12s.66.36,1.13.36Z"/><path d="m201.04,270.37h-9.87v-17.13h9.87v2.98h-6.23v3.76h5.8v2.98h-5.8v4.42h6.23v3Z"/><path d="m216.42,270.37h-3.57v-7.65c0-.95-.17-1.65-.5-2.13s-.87-.71-1.61-.71c-1,0-1.72.33-2.17,1s-.67,1.78-.67,3.32v6.16h-3.57v-13.1h2.73l.48,1.68h.2c.4-.63.95-1.11,1.65-1.44s1.49-.49,2.38-.49c1.52,0,2.68.41,3.47,1.24s1.18,2.01,1.18,3.57v8.54Z"/><path d="m231.5,257.27v1.82l-2.05.53c.38.59.56,1.24.56,1.97,0,1.41-.49,2.5-1.47,3.29s-2.34,1.18-4.08,1.18l-.64-.04-.53-.06c-.37.28-.55.59-.55.94,0,.52.66.77,1.97.77h2.23c1.44,0,2.53.31,3.29.93s1.13,1.52,1.13,2.72c0,1.53-.64,2.72-1.92,3.56s-3.11,1.27-5.5,1.27c-1.83,0-3.22-.32-4.19-.96s-1.45-1.53-1.45-2.68c0-.79.25-1.45.74-1.98s1.21-.91,2.17-1.14c-.37-.16-.69-.41-.96-.77s-.41-.73-.41-1.13c0-.5.14-.92.43-1.25s.71-.66,1.25-.98c-.69-.3-1.23-.77-1.63-1.43s-.6-1.43-.6-2.32c0-1.43.46-2.54,1.39-3.32s2.26-1.17,3.98-1.17c.37,0,.8.03,1.31.1s.83.12.97.15h4.57Zm-10.11,14.95c0,.49.24.88.71,1.16s1.13.42,1.99.42c1.28,0,2.29-.18,3.01-.53s1.09-.83,1.09-1.44c0-.49-.21-.83-.64-1.02s-1.09-.28-1.99-.28h-1.85c-.66,0-1.21.15-1.65.46s-.66.72-.66,1.22Zm1.3-10.66c0,.71.16,1.27.49,1.69s.82.62,1.48.62,1.16-.21,1.48-.62.47-.98.47-1.69c0-1.58-.65-2.37-1.95-2.37s-1.97.79-1.97,2.37Z"/><path d="m233.51,253.88c0-1.16.65-1.75,1.95-1.75s1.95.58,1.95,1.75c0,.55-.16.99-.49,1.29s-.81.46-1.46.46c-1.3,0-1.95-.59-1.95-1.76Zm3.73,16.49h-3.57v-13.1h3.57v13.1Z"/><path d="m253.08,270.37h-3.57v-7.65c0-.95-.17-1.65-.5-2.13s-.87-.71-1.61-.71c-1,0-1.72.33-2.17,1s-.67,1.78-.67,3.32v6.16h-3.57v-13.1h2.73l.48,1.68h.2c.4-.63.95-1.11,1.65-1.44s1.49-.49,2.38-.49c1.52,0,2.68.41,3.47,1.24s1.18,2.01,1.18,3.57v8.54Z"/><path d="m262.69,270.6c-2.11,0-3.76-.58-4.95-1.75s-1.78-2.81-1.78-4.95.55-3.89,1.65-5.09,2.62-1.8,4.55-1.8,3.29.53,4.32,1.58,1.55,2.51,1.55,4.37v1.73h-8.45c.04,1.02.34,1.81.9,2.38s1.35.86,2.37.86c.79,0,1.54-.08,2.24-.25s1.44-.43,2.2-.79v2.77c-.62.31-1.29.54-2,.7s-1.58.23-2.6.23Zm-.5-11.04c-.76,0-1.35.24-1.78.72s-.68,1.16-.74,2.04h5.02c-.02-.88-.25-1.56-.69-2.04s-1.05-.72-1.8-.72Z"/><path d="m276.87,270.6c-2.11,0-3.76-.58-4.95-1.75s-1.78-2.81-1.78-4.95.55-3.89,1.65-5.09,2.62-1.8,4.55-1.8,3.29.53,4.32,1.58,1.55,2.51,1.55,4.37v1.73h-8.45c.04,1.02.34,1.81.9,2.38s1.35.86,2.37.86c.79,0,1.54-.08,2.24-.25s1.44-.43,2.2-.79v2.77c-.62.31-1.29.54-2,.7s-1.58.23-2.6.23Zm-.5-11.04c-.76,0-1.35.24-1.78.72s-.68,1.16-.74,2.04h5.02c-.02-.88-.25-1.56-.69-2.04s-1.05-.72-1.8-.72Z"/><path d="m292.43,257.02c.48,0,.89.04,1.21.11l-.27,3.35c-.29-.08-.64-.12-1.05-.12-1.14,0-2.03.29-2.67.88s-.96,1.41-.96,2.46v6.67h-3.57v-13.1h2.71l.53,2.2h.18c.41-.73.96-1.33,1.65-1.78s1.44-.67,2.26-.67Z"/><path d="m295.86,253.88c0-1.16.65-1.75,1.95-1.75s1.95.58,1.95,1.75c0,.55-.16.99-.49,1.29s-.81.46-1.46.46c-1.3,0-1.95-.59-1.95-1.76Zm3.73,16.49h-3.57v-13.1h3.57v13.1Z"/><path d="m315.43,270.37h-3.57v-7.65c0-.95-.17-1.65-.5-2.13s-.87-.71-1.61-.71c-1,0-1.72.33-2.17,1s-.67,1.78-.67,3.32v6.16h-3.57v-13.1h2.73l.48,1.68h.2c.4-.63.95-1.11,1.65-1.44s1.49-.49,2.38-.49c1.52,0,2.68.41,3.47,1.24s1.18,2.01,1.18,3.57v8.54Z"/><path d="m330.52,257.27v1.82l-2.05.53c.38.59.56,1.24.56,1.97,0,1.41-.49,2.5-1.47,3.29s-2.34,1.18-4.08,1.18l-.64-.04-.53-.06c-.37.28-.55.59-.55.94,0,.52.66.77,1.97.77h2.23c1.44,0,2.53.31,3.29.93s1.13,1.52,1.13,2.72c0,1.53-.64,2.72-1.92,3.56s-3.11,1.27-5.5,1.27c-1.83,0-3.22-.32-4.19-.96s-1.45-1.53-1.45-2.68c0-.79.25-1.45.74-1.98s1.21-.91,2.17-1.14c-.37-.16-.69-.41-.96-.77s-.41-.73-.41-1.13c0-.5.14-.92.43-1.25s.71-.66,1.25-.98c-.69-.3-1.23-.77-1.63-1.43s-.6-1.43-.6-2.32c0-1.43.46-2.54,1.39-3.32s2.26-1.17,3.98-1.17c.37,0,.8.03,1.31.1s.83.12.97.15h4.57Zm-10.11,14.95c0,.49.24.88.71,1.16s1.13.42,1.99.42c1.28,0,2.29-.18,3.01-.53s1.09-.83,1.09-1.44c0-.49-.21-.83-.64-1.02s-1.09-.28-1.99-.28h-1.85c-.66,0-1.21.15-1.65.46s-.66.72-.66,1.22Zm1.3-10.66c0,.71.16,1.27.49,1.69s.82.62,1.48.62,1.16-.21,1.48-.62.47-.98.47-1.69c0-1.58-.65-2.37-1.95-2.37s-1.97.79-1.97,2.37Z"/><path d="m347.23,270.37l-.69-1.78h-.09c-.6.76-1.22,1.28-1.86,1.58s-1.47.44-2.49.44c-1.26,0-2.25-.36-2.97-1.08s-1.08-1.74-1.08-3.07.49-2.42,1.46-3.08,2.44-1.03,4.4-1.1l2.27-.07v-.57c0-1.33-.68-1.99-2.04-1.99-1.05,0-2.28.32-3.69.95l-1.18-2.41c1.51-.79,3.18-1.18,5.02-1.18s3.11.38,4.04,1.15,1.41,1.93,1.41,3.49v8.73h-2.5Zm-1.05-6.07l-1.38.05c-1.04.03-1.81.22-2.32.56s-.76.87-.76,1.57c0,1.01.58,1.51,1.73,1.51.83,0,1.49-.24,1.99-.71s.74-1.11.74-1.9v-1.08Z"/><path d="m362.54,266.48c0,1.34-.47,2.37-1.4,3.07s-2.33,1.05-4.19,1.05c-.95,0-1.77-.06-2.44-.19s-1.3-.32-1.89-.57v-2.95c.66.31,1.41.57,2.24.79s1.56.32,2.2.32c1.3,0,1.95-.38,1.95-1.12,0-.28-.09-.51-.26-.69s-.47-.38-.89-.6-.98-.48-1.69-.78c-1.01-.42-1.75-.81-2.22-1.17s-.82-.77-1.03-1.24-.32-1.04-.32-1.72c0-1.16.45-2.06,1.35-2.7s2.18-.96,3.84-.96,3.11.34,4.61,1.03l-1.08,2.58c-.66-.28-1.27-.51-1.84-.69s-1.15-.27-1.75-.27c-1.05,0-1.58.29-1.58.86,0,.32.17.6.51.83s1.08.58,2.23,1.04c1.02.41,1.77.8,2.25,1.16s.83.77,1.05,1.24.34,1.03.34,1.68Z"/><path d="m379.89,270.37l-.69-1.78h-.09c-.6.76-1.22,1.28-1.86,1.58s-1.47.44-2.49.44c-1.26,0-2.25-.36-2.97-1.08s-1.08-1.74-1.08-3.07.49-2.42,1.46-3.08,2.44-1.03,4.4-1.1l2.27-.07v-.57c0-1.33-.68-1.99-2.04-1.99-1.05,0-2.28.32-3.69.95l-1.18-2.41c1.51-.79,3.18-1.18,5.02-1.18s3.11.38,4.04,1.15,1.41,1.93,1.41,3.49v8.73h-2.5Zm-1.05-6.07l-1.38.05c-1.04.03-1.81.22-2.32.56s-.76.87-.76,1.57c0,1.01.58,1.51,1.73,1.51.83,0,1.49-.24,1.99-.71s.74-1.11.74-1.9v-1.08Z"/><path d="m396.45,270.6c-1.54,0-2.75-.6-3.63-1.79s-1.32-2.85-1.32-4.97.45-3.82,1.34-5.02,2.13-1.8,3.7-1.8c1.65,0,2.91.64,3.77,1.92h.12c-.18-.98-.27-1.85-.27-2.61v-4.2h3.59v18.23h-2.74l-.69-1.7h-.15c-.81,1.29-2.05,1.93-3.71,1.93Zm1.25-2.85c.91,0,1.58-.27,2.01-.8s.66-1.43.7-2.71v-.39c0-1.41-.22-2.41-.65-3.02s-1.14-.91-2.12-.91c-.8,0-1.42.34-1.86,1.01s-.66,1.66-.66,2.95.22,2.26.67,2.9,1.08.97,1.91.97Z"/><path d="m407.33,253.88c0-1.16.65-1.75,1.95-1.75s1.95.58,1.95,1.75c0,.55-.16.99-.49,1.29s-.81.46-1.46.46c-1.3,0-1.95-.59-1.95-1.76Zm3.73,16.49h-3.57v-13.1h3.57v13.1Z"/><path d="m423.95,266.48c0,1.34-.47,2.37-1.4,3.07s-2.33,1.05-4.19,1.05c-.95,0-1.77-.06-2.44-.19s-1.3-.32-1.89-.57v-2.95c.66.31,1.41.57,2.24.79s1.56.32,2.2.32c1.3,0,1.95-.38,1.95-1.12,0-.28-.09-.51-.26-.69s-.47-.38-.89-.6-.98-.48-1.69-.78c-1.01-.42-1.75-.81-2.22-1.17s-.82-.77-1.03-1.24-.32-1.04-.32-1.72c0-1.16.45-2.06,1.35-2.7s2.18-.96,3.84-.96,3.11.34,4.61,1.03l-1.08,2.58c-.66-.28-1.27-.51-1.84-.69s-1.15-.27-1.75-.27c-1.05,0-1.58.29-1.58.86,0,.32.17.6.51.83s1.08.58,2.23,1.04c1.02.41,1.77.8,2.25,1.16s.83.77,1.05,1.24.34,1.03.34,1.68Z"/><path d="m432.06,270.6c-4.08,0-6.12-2.24-6.12-6.71,0-2.23.55-3.93,1.66-5.1s2.7-1.76,4.77-1.76c1.52,0,2.88.3,4.08.89l-1.05,2.77c-.56-.23-1.09-.41-1.57-.56s-.97-.22-1.45-.22c-1.86,0-2.79,1.32-2.79,3.96s.93,3.84,2.79,3.84c.69,0,1.32-.09,1.91-.28s1.17-.47,1.76-.86v3.06c-.58.37-1.16.62-1.75.76s-1.33.21-2.23.21Z"/><path d="m438.93,253.88c0-1.16.65-1.75,1.95-1.75s1.95.58,1.95,1.75c0,.55-.16.99-.49,1.29s-.81.46-1.46.46c-1.3,0-1.95-.59-1.95-1.76Zm3.73,16.49h-3.57v-13.1h3.57v13.1Z"/><path d="m453.6,270.6c-1.54,0-2.75-.56-3.62-1.68h-.19c.12,1.09.19,1.73.19,1.9v5.31h-3.57v-18.87h2.91l.5,1.7h.16c.84-1.3,2.07-1.95,3.71-1.95,1.55,0,2.76.6,3.63,1.79s1.31,2.86,1.31,4.98c0,1.4-.21,2.61-.62,3.64s-.99,1.82-1.75,2.36-1.65.81-2.67.81Zm-1.05-10.72c-.88,0-1.53.27-1.93.81s-.62,1.44-.63,2.69v.39c0,1.41.21,2.41.63,3.02s1.08.91,1.99.91c1.6,0,2.4-1.32,2.4-3.96,0-1.29-.2-2.26-.59-2.9s-1.01-.97-1.86-.97Z"/><path d="m465.16,270.37h-3.57v-18.23h3.57v18.23Z"/><path d="m468.76,253.88c0-1.16.65-1.75,1.95-1.75s1.95.58,1.95,1.75c0,.55-.16.99-.49,1.29s-.81.46-1.46.46c-1.3,0-1.95-.59-1.95-1.76Zm3.73,16.49h-3.57v-13.1h3.57v13.1Z"/><path d="m488.33,270.37h-3.57v-7.65c0-.95-.17-1.65-.5-2.13s-.87-.71-1.61-.71c-1,0-1.72.33-2.17,1s-.67,1.78-.67,3.32v6.16h-3.57v-13.1h2.73l.48,1.68h.2c.4-.63.95-1.11,1.65-1.44s1.49-.49,2.38-.49c1.52,0,2.68.41,3.47,1.24s1.18,2.01,1.18,3.57v8.54Z"/><path d="m497.94,270.6c-2.11,0-3.76-.58-4.95-1.75s-1.78-2.81-1.78-4.95.55-3.89,1.65-5.09,2.62-1.8,4.55-1.8,3.29.53,4.32,1.58,1.55,2.51,1.55,4.37v1.73h-8.45c.04,1.02.34,1.81.9,2.38s1.35.86,2.37.86c.79,0,1.54-.08,2.24-.25s1.44-.43,2.2-.79v2.77c-.62.31-1.29.54-2,.7s-1.58.23-2.6.23Zm-.5-11.04c-.76,0-1.35.24-1.78.72s-.68,1.16-.74,2.04h5.02c-.02-.88-.25-1.56-.69-2.04s-1.05-.72-1.8-.72Z"/></svg>